<svg width="22" height="20" viewBox="0 0 22 20" fill="none" xmlns="http://www.w3.org/2000/svg">
<path d="M13.3438 19.375H13.2781C13.0855 19.3608 12.9019 19.2874 12.7526 19.1649C12.6032 19.0424 12.4954 18.8768 12.4438 18.6906L8.45 4.37501L5.75937 10.4313C5.67875 10.587 5.55607 10.717 5.40526 10.8065C5.25445 10.896 5.08157 10.9414 4.90625 10.9375H1.15625C0.90761 10.9375 0.669153 10.8387 0.493338 10.6629C0.317522 10.4871 0.21875 10.2486 0.21875 10C0.21875 9.75137 0.317522 9.51291 0.493338 9.33709C0.669153 9.16128 0.90761 9.06251 1.15625 9.06251H4.29688L7.80313 1.17813C7.88289 1.00411 8.01402 0.858683 8.17889 0.761392C8.34375 0.664101 8.53445 0.619612 8.72534 0.633904C8.91624 0.648195 9.09819 0.720583 9.24673 0.841337C9.39527 0.962091 9.50328 1.12542 9.55625 1.30938L13.55 15.6719L16.2406 9.61563C16.3146 9.45115 16.4344 9.31148 16.5857 9.21337C16.737 9.11526 16.9134 9.06288 17.0938 9.06251H20.8438C21.0924 9.06251 21.3308 9.16128 21.5067 9.33709C21.6825 9.51291 21.7812 9.75137 21.7812 10C21.7812 10.2486 21.6825 10.4871 21.5067 10.6629C21.3308 10.8387 21.0924 10.9375 20.8438 10.9375H17.7031L14.1969 18.8219C14.1229 18.9864 14.0031 19.126 13.8518 19.2241C13.7005 19.3222 13.5241 19.3746 13.3438 19.375Z" fill="#ABABAB"/>
</svg>
