<svg width="22" height="24" viewBox="0 0 22 24" fill="none" xmlns="http://www.w3.org/2000/svg">
<path d="M14.5942 9.48142C14.3145 7.90146 12.9443 6.65146 11.3242 6.50144C9.29822 6.31724 7.35449 7.93341 7.35449 10.1314C7.35449 11.3114 7.92432 12.4214 8.86426 13.0915L8.38428 15.9814C8.25504 16.7991 8.88939 17.5115 9.67432 17.5115H12.3242C13.1094 17.5115 13.7424 16.8037 13.6143 15.9715L13.1343 13.0915C14.2744 12.2715 14.8345 10.8814 14.5942 9.48142Z" fill="#ABABAB"/>
<path d="M2.79395 17.5859C3.2793 17.3227 3.45996 16.7158 3.19629 16.2304C2.50781 14.9599 2.14355 13.5107 2.14355 12.039C2.14355 7.15525 6.11621 3.18211 11 3.18211C11.7932 3.18211 12.5786 3.29008 13.3357 3.49607L13.0605 3.60886C12.5488 3.81834 12.3047 4.40232 12.5137 4.91355C12.7225 5.42089 13.3028 5.67055 13.8184 5.45945L16.3252 4.43211C16.7698 4.24966 17.0578 3.70182 16.8845 3.19303C16.7892 2.9006 16.1453 1.36286 15.8447 0.620582C15.6338 0.108863 15.0488 -0.133813 14.54 0.0746833C14.0283 0.284156 13.7842 0.868141 13.9932 1.37937L14.1038 1.64909C13.1001 1.3505 12.0574 1.18211 11 1.18211C5.01367 1.18211 0.143555 6.05271 0.143555 12.039C0.143555 13.8423 0.59082 15.6216 1.43848 17.1836C1.7028 17.6722 2.31353 17.8478 2.79395 17.5859Z" fill="#ABABAB"/>
<path d="M11 20.8955C10.1226 20.8955 9.2576 20.7513 8.42556 20.4981L8.92874 20.2383C9.41897 19.9844 9.61135 19.3813 9.35842 18.8906C9.10452 18.4004 8.50003 18.207 8.01077 18.4609L5.74466 19.6317C5.17212 19.8257 4.91321 20.5457 5.17385 21.0522L6.418 23.459C6.67388 23.9546 7.28215 24.1396 7.76565 23.8882C8.25686 23.6347 8.44827 23.0312 8.19534 22.541L8.18679 22.5243C9.10037 22.7693 10.0464 22.8955 11 22.8955C16.9864 22.8955 21.8565 18.0254 21.8565 12.039C21.8565 10.2412 21.4092 8.46482 20.5616 6.9028C20.2989 6.41794 19.6914 6.23532 19.2061 6.50046C18.7207 6.76364 18.5401 7.37058 18.8037 7.85593C19.4922 9.12644 19.8565 10.5727 19.8565 12.039C19.8565 16.9223 15.8838 20.8955 11 20.8955Z" fill="#ABABAB"/>
</svg>
