<svg width="30" height="30" viewBox="0 0 30 30" fill="none" xmlns="http://www.w3.org/2000/svg">
<g clip-path="url(#clip0_316_661)">
<path d="M12.0703 30H7.03125C3.15422 30 0 26.8458 0 22.9688V7.03125C0 3.15422 3.15422 0 7.03125 0H22.9688C26.8458 0 30 3.15422 30 7.03125V12.8906C30 13.5379 29.4754 14.0625 28.8281 14.0625C28.1809 14.0625 27.6562 13.5379 27.6562 12.8906V7.03125C27.6562 4.44656 25.5534 2.34375 22.9688 2.34375H7.03125C4.44656 2.34375 2.34375 4.44656 2.34375 7.03125V22.9688C2.34375 25.5534 4.44656 27.6562 7.03125 27.6562H12.0703C12.7175 27.6562 13.2422 28.1809 13.2422 28.8281C13.2422 29.4754 12.7175 30 12.0703 30ZM13.6523 8.20312C13.6523 6.26461 12.0752 4.6875 10.1367 4.6875C8.1982 4.6875 6.62109 6.26461 6.62109 8.20312C6.62109 10.1416 8.1982 11.7188 10.1367 11.7188C12.0752 11.7188 13.6523 10.1416 13.6523 8.20312ZM11.3086 8.20312C11.3086 8.8493 10.7829 9.375 10.1367 9.375C9.49055 9.375 8.96484 8.8493 8.96484 8.20312C8.96484 7.55695 9.49055 7.03125 10.1367 7.03125C10.7829 7.03125 11.3086 7.55695 11.3086 8.20312ZM25.3125 11.3672C25.3125 10.72 24.7879 10.1953 24.1406 10.1953H16.875C16.2278 10.1953 15.7031 10.72 15.7031 11.3672C15.7031 12.0144 16.2278 12.5391 16.875 12.5391H24.1406C24.7879 12.5391 25.3125 12.0144 25.3125 11.3672ZM16.6406 19.5703C16.6406 18.9231 16.116 18.3984 15.4688 18.3984H6.91406C6.26684 18.3984 5.74219 18.9231 5.74219 19.5703C5.74219 20.2175 6.26684 20.7422 6.91406 20.7422H15.4688C16.116 20.7422 16.6406 20.2175 16.6406 19.5703ZM11.9531 23.6719C11.9531 23.0246 11.4285 22.5 10.7812 22.5H6.91406C6.26684 22.5 5.74219 23.0246 5.74219 23.6719C5.74219 24.3191 6.26684 24.8438 6.91406 24.8438H10.7812C11.4285 24.8438 11.9531 24.3191 11.9531 23.6719ZM16.9875 29.9773L20.3077 29.3136C21.9541 28.9846 23.4519 28.1831 24.6393 26.9958L28.7471 22.8878C29.555 22.0799 30 21.0058 30 19.8633C30 18.7208 29.5551 17.6466 28.7472 16.8387C27.9393 16.0308 26.8652 15.5859 25.7227 15.5859C24.5801 15.5859 23.506 16.0309 22.6981 16.8387L18.5902 20.9467C17.4029 22.134 16.6014 23.6319 16.2723 25.2783L15.6087 28.5984C15.5319 28.9826 15.6521 29.3797 15.9292 29.6568C16.1511 29.8787 16.4501 30 16.7578 30C16.8342 30 16.9111 29.9926 16.9875 29.9773ZM27.0899 18.4961C27.4551 18.8612 27.6562 19.3468 27.6562 19.8633C27.6562 20.3797 27.4551 20.8654 27.0899 21.2305L22.9819 25.3385C22.123 26.1974 21.0394 26.7773 19.8483 27.0153L18.2515 27.3345L18.5706 25.7376C18.8087 24.5465 19.3885 23.4629 20.2475 22.604L24.3554 18.496C24.7206 18.1308 25.2062 17.9297 25.7227 17.9297C26.2391 17.9297 26.7247 18.1308 27.0899 18.4961ZM24.1406 8.4375H16.875C16.2278 8.4375 15.7031 7.91285 15.7031 7.26562C15.7031 6.6184 16.2278 6.09375 16.875 6.09375H24.1406C24.7879 6.09375 25.3125 6.6184 25.3125 7.26562C25.3125 7.91285 24.7879 8.4375 24.1406 8.4375ZM14.1088 16.0232C14.5445 15.5445 14.5096 14.8034 14.031 14.3677C13.0675 13.4907 11.8166 13.0078 10.5088 13.0078H9.76465C8.45684 13.0078 7.20592 13.4907 6.24246 14.3677C5.76381 14.8034 5.72895 15.5445 6.16459 16.0232C6.60018 16.5018 7.34139 16.5367 7.82004 16.101C8.35107 15.6178 9.04172 15.3516 9.76465 15.3516H10.5087C11.2317 15.3516 11.9224 15.6178 12.4533 16.101C12.6779 16.3054 12.9602 16.4062 13.2418 16.4062C13.5603 16.4062 13.8776 16.2772 14.1088 16.0232Z" fill="#ABABAB"/>
</g>
<defs>
<clipPath id="clip0_316_661">
<rect width="30" height="30" fill="white"/>
</clipPath>
</defs>
</svg>
