<svg width="26" height="26" viewBox="0 0 26 26" fill="none" xmlns="http://www.w3.org/2000/svg">
<path fill-rule="evenodd" clip-rule="evenodd" d="M8.01685 0.5H4.21968C2.16361 0.5 0.5 2.17806 0.5 4.2444V8.07454C0.5 10.14 2.16397 11.8189 4.21968 11.8189H8.01685C10.0726 11.8189 11.7365 10.14 11.7365 8.07454V4.2444C11.7365 2.17806 10.0729 0.5 8.01685 0.5ZM4.21968 2.24419H8.01685C9.10623 2.24419 9.99234 3.13798 9.99234 4.2444V8.07454C9.99234 9.18022 9.10577 10.0747 8.01685 10.0747H4.21968C3.13076 10.0747 2.24419 9.18022 2.24419 8.07454V4.2444C2.24419 3.13798 3.13029 2.24419 4.21968 2.24419ZM21.7815 0.5H17.9832C15.9271 0.5 14.2635 2.17806 14.2635 4.2444V8.07454C14.2635 10.14 15.9274 11.8189 17.9832 11.8189H21.7815C23.8363 11.8189 25.5 10.1398 25.5 8.07454V4.2444C25.5 2.1783 23.8366 0.5 21.7815 0.5ZM17.9832 2.24419H21.7815C22.8698 2.24419 23.7558 3.13811 23.7558 4.2444V8.07454C23.7558 9.18009 22.8694 10.0747 21.7815 10.0747H17.9832C16.8942 10.0747 16.0077 9.18022 16.0077 8.07454V4.2444C16.0077 3.13798 16.8938 2.24419 17.9832 2.24419ZM4.21968 14.1811H8.01685C10.0732 14.1811 11.7365 15.8594 11.7365 17.9267V21.7556C11.7365 23.8219 10.0729 25.5 8.01685 25.5H4.21968C2.16361 25.5 0.5 23.8219 0.5 21.7556V17.9267C0.5 15.8594 2.16337 14.1811 4.21968 14.1811ZM8.01685 15.9252H4.21968C3.13016 15.9252 2.24419 16.8192 2.24419 17.9267V21.7556C2.24419 22.862 3.13029 23.7558 4.21968 23.7558H8.01685C9.10623 23.7558 9.99234 22.862 9.99234 21.7556V17.9267C9.99234 16.8192 9.10636 15.9252 8.01685 15.9252ZM21.7815 14.1811H17.9832C15.9268 14.1811 14.2635 15.8594 14.2635 17.9267V21.7556C14.2635 23.8219 15.9271 25.5 17.9832 25.5H21.7815C23.8366 25.5 25.5 23.8217 25.5 21.7556V17.9267C25.5 15.8596 23.8369 14.1811 21.7815 14.1811ZM17.9832 15.9252H21.7815C22.87 15.9252 23.7558 16.8193 23.7558 17.9267V21.7556C23.7558 22.8619 22.8698 23.7558 21.7815 23.7558H17.9832C16.8938 23.7558 16.0077 22.862 16.0077 21.7556V17.9267C16.0077 16.8192 16.8936 15.9252 17.9832 15.9252Z" fill="#ABABAB"/>
</svg>
