<svg width="30" height="30" viewBox="0 0 30 30" fill="none" xmlns="http://www.w3.org/2000/svg">
<g clip-path="url(#clip0_316_606)">
<path d="M29.0617 14.063H17.187C16.6695 14.063 16.2495 13.643 16.2495 13.1255C16.2495 12.608 16.6695 12.188 17.187 12.188H29.0617C29.5792 12.188 29.9992 12.608 29.9992 13.1255C29.9992 13.643 29.5792 14.063 29.0617 14.063Z" fill="#ABABAB"/>
<path d="M24.3743 18.7503C24.1342 18.7503 23.8943 18.659 23.7117 18.4755C23.3455 18.109 23.3455 17.5153 23.7117 17.1491L27.7367 13.1244L23.7117 9.09938C23.3455 8.73318 23.3455 8.13948 23.7117 7.77328C24.0781 7.40685 24.6718 7.40685 25.038 7.77328L29.7253 12.4606C30.0915 12.8268 30.0915 13.4205 29.7253 13.7867L25.038 18.4741C24.8542 18.659 24.6143 18.7503 24.3743 18.7503Z" fill="#ABABAB"/>
<path d="M9.99976 30C9.73221 30 9.47839 29.9625 9.22479 29.8837L1.70237 27.3775C0.678842 27.02 0 26.0663 0 25.0002V2.50092C0 1.12218 1.12126 0.000923157 2.5 0.000923157C2.76732 0.000923157 3.02115 0.0384586 3.27497 0.117192L10.7972 2.62337C11.8209 2.98087 12.4995 3.93459 12.4995 5.00069V27.5C12.4995 28.8787 11.3785 30 9.99976 30ZM2.5 1.87586C2.15623 1.87586 1.87494 2.15715 1.87494 2.50092V25.0002C1.87494 25.2664 2.05369 25.5138 2.30866 25.6026L9.79584 28.0976C9.84962 28.115 9.91966 28.125 9.99976 28.125C10.3435 28.125 10.6246 27.8438 10.6246 27.5V5.00069C10.6246 4.73451 10.4458 4.4871 10.1909 4.39829L2.7037 1.90333C2.64991 1.88594 2.57988 1.87586 2.5 1.87586Z" fill="#ABABAB"/>
<path d="M19.0618 10.0007C18.5443 10.0007 18.1243 9.5807 18.1243 9.06322V3.43839C18.1243 2.57714 17.4233 1.87586 16.562 1.87586H2.49997C1.98249 1.87586 1.5625 1.45588 1.5625 0.938394C1.5625 0.420908 1.98249 0.000923157 2.49997 0.000923157H16.562C18.4583 0.000923157 19.9993 1.54217 19.9993 3.43839V9.06322C19.9993 9.5807 19.5793 10.0007 19.0618 10.0007Z" fill="#ABABAB"/>
<path d="M16.562 26.2501H11.562C11.0445 26.2501 10.6245 25.8301 10.6245 25.3126C10.6245 24.7951 11.0445 24.3752 11.562 24.3752H16.562C17.4232 24.3752 18.1243 23.6739 18.1243 22.8126V17.1878C18.1243 16.6703 18.5443 16.2503 19.0617 16.2503C19.5792 16.2503 19.9992 16.6703 19.9992 17.1878V22.8126C19.9992 24.7089 18.4582 26.2501 16.562 26.2501Z" fill="#ABABAB"/>
</g>
<defs>
<clipPath id="clip0_316_606">
<rect width="30" height="30" fill="white"/>
</clipPath>
</defs>
</svg>
