<svg width="20" height="18" viewBox="0 0 20 18" fill="none" xmlns="http://www.w3.org/2000/svg">
<path fill-rule="evenodd" clip-rule="evenodd" d="M14.5253 4.75032e-05L5.45618 0C2.28665 0 0 2.56151 0 5.85897V12.141C0 15.4385 2.28665 18 5.45618 18H14.5168C16.0392 17.9829 17.4802 17.3421 18.5126 16.2266C19.5449 15.111 20.0786 13.6183 19.9893 12.0959L19.9906 5.85897C20.0786 4.38171 19.5449 2.88895 18.5126 1.77344C17.4802 0.657936 16.0392 0.0170508 14.5253 4.75032e-05ZM5.45618 1.52843L14.5084 1.52838C15.6073 1.54072 16.6532 2.00592 17.4026 2.81562C18.152 3.62533 18.5393 4.70887 18.4745 5.81389L18.4732 12.141C18.5393 13.2911 18.152 14.3747 17.4026 15.1844C16.6532 15.9941 15.6073 16.4593 14.5084 16.4716L5.45618 16.4716C3.16279 16.4716 1.51744 14.6284 1.51744 12.141V5.85897C1.51744 3.37155 3.16279 1.52843 5.45618 1.52843ZM16.0237 5.63837C15.7618 5.30886 15.2844 5.25556 14.9572 5.5193L10.8579 8.82425L10.7404 8.90682C10.2571 9.20955 9.62242 9.18159 9.15945 8.81813L5.03021 5.51732L4.93727 5.45361C4.617 5.26728 4.20105 5.34031 3.96425 5.64086C3.70376 5.97146 3.75868 6.45217 4.0869 6.71454L8.22137 10.0195L8.38268 10.1375C9.42273 10.8459 10.801 10.8067 11.7985 10.0236L15.9055 6.71255L15.9879 6.63552C16.2396 6.36262 16.2617 5.93792 16.0237 5.63837Z" fill="white"/>
</svg>
