<svg width="18" height="20" viewBox="0 0 18 20" fill="none" xmlns="http://www.w3.org/2000/svg">
<path fill-rule="evenodd" clip-rule="evenodd" d="M9.03612 0H8.96479C5.59565 0 2.50654 2.44456 2.20685 5.68096C2.18686 5.91248 2.17324 6.14906 2.16444 6.40391L2.15213 6.99974L2.14969 7.53395L2.16473 7.47306C2.02569 8.15105 1.70525 8.77993 1.23653 9.29378L1.16936 9.3802C0.768036 9.98985 0.537443 10.6955 0.50175 11.4242L0.500904 11.6624C0.480415 12.6208 0.808819 13.5691 1.42663 14.3223C2.26444 15.2069 3.34896 15.7346 4.51296 15.8466C7.49 16.1699 10.502 16.1699 13.4873 15.8457C14.6434 15.7393 15.7311 15.2101 16.5338 14.3582C17.1399 13.6331 17.4707 12.763 17.499 11.862L17.5 11.4587C17.4668 10.698 17.2348 9.99168 16.8286 9.38467L16.7669 9.30546L16.6162 9.12821C16.2776 8.70525 16.0303 8.21802 15.8896 7.69688L15.845 7.50977L15.8358 7.31353C15.833 7.22527 15.8317 7.1274 15.8312 7.00516L15.8311 6.33206C15.8288 6.07458 15.8212 5.89148 15.8034 5.68536C15.4934 2.44285 12.4034 0 9.03612 0ZM8.9651 1.39536H9.03643C11.7339 1.39536 14.1947 3.34076 14.431 5.81327C14.445 5.97559 14.4513 6.13045 14.4531 6.3605L14.4558 7.26514C14.4588 7.40982 14.4645 7.53013 14.4742 7.66552L14.4871 7.75819L14.552 8.03397C14.7443 8.76351 15.0896 9.4441 15.565 10.0309L15.7029 10.1926L15.6877 10.1672C15.9513 10.5613 16.1016 11.0186 16.1226 11.4901L16.1219 11.6536C16.1378 12.3097 15.9203 12.933 15.5087 13.4267C14.9649 14.002 14.1874 14.3802 13.3517 14.4572C10.453 14.7719 7.5396 14.7719 4.65199 14.4583C3.80714 14.377 3.02913 13.9985 2.454 13.3931C2.08118 12.9356 1.866 12.3143 1.87951 11.6774L1.87967 11.4587L1.89713 11.2682C1.93921 10.9495 2.0457 10.6265 2.21076 10.3291L2.29447 10.1906C2.90811 9.50038 3.32924 8.66114 3.51472 7.75668L3.52911 7.61487L3.53563 6.6956L3.55169 6.2292C3.55897 6.08208 3.5683 5.94229 3.57999 5.80678C3.80835 3.34087 6.26683 1.39536 8.9651 1.39536ZM2.29447 10.1906C2.27963 10.2072 2.26467 10.2239 2.24961 10.2404L2.29887 10.1833L2.29447 10.1906ZM11.608 17.6906C11.3114 17.4491 10.8775 17.4967 10.6389 17.7969C10.5355 17.927 10.4158 18.0437 10.2826 18.1443C9.83075 18.4986 9.26691 18.6564 8.7064 18.5896C8.14669 18.523 7.63792 18.2381 7.29271 17.7995C7.05551 17.4981 6.62189 17.4484 6.32417 17.6885C6.02646 17.9286 5.9774 18.3676 6.21459 18.6689C6.787 19.3962 7.62578 19.8659 8.5453 19.9754C9.46401 20.0849 10.3891 19.826 11.1167 19.255C11.3327 19.0922 11.5366 18.8935 11.7129 18.6715C11.9515 18.3713 11.9045 17.9321 11.608 17.6906Z" fill="white"/>
</svg>
