<svg width="28" height="28" viewBox="0 0 28 28" fill="none" xmlns="http://www.w3.org/2000/svg">
<path d="M2.28955 6.28294L6.45641 8.68859L13.1718 4.81146V0L2.28955 6.28294Z" fill="#ABABAB"/>
<path d="M1.46143 7.71712V20.2829L5.62823 17.8772V10.1228L1.46143 7.71712Z" fill="#ABABAB"/>
<path d="M14.8281 0V4.81146L21.5436 8.68859L25.7104 6.28294L14.8281 0Z" fill="#ABABAB"/>
<path d="M14.0001 6.2457L7.28467 10.1228V17.8772L14.0001 21.7543L20.7155 17.8772V10.1228L14.0001 6.2457Z" fill="#ABABAB"/>
<path d="M22.3716 10.1228V17.8772L26.5384 20.2829V7.71712L22.3716 10.1228Z" fill="#ABABAB"/>
<path d="M6.45641 19.3114L2.28955 21.7171L13.1718 28V23.1885L6.45641 19.3114Z" fill="#ABABAB"/>
<path d="M21.5436 19.3114L14.8281 23.1885V28L25.7104 21.7171L21.5436 19.3114Z" fill="#ABABAB"/>
</svg>
