<svg width="60" height="60" viewBox="0 0 60 60" fill="none" xmlns="http://www.w3.org/2000/svg">
<g clip-path="url(#clip0_0_690)">
<path style="mix-blend-mode:multiply" d="M52.3265 49.9363C52.3265 47.1487 42.2639 44.8887 29.851 44.8887C17.438 44.8887 7.375 47.1487 7.375 49.9363C7.375 52.7239 17.438 54.984 29.851 54.984C42.2639 54.984 52.3265 52.7239 52.3265 49.9363Z" fill="url(#paint0_radial_0_690)"/>
<path d="M52.2612 30.5415C52.5603 18.2473 42.8364 8.03831 30.542 7.73913C18.2477 7.43996 8.03864 17.1639 7.73946 29.4581C7.44029 41.7523 17.1643 51.9613 29.4586 52.2605C41.7529 52.5596 51.962 42.8357 52.2612 30.5415Z" fill="url(#paint1_linear_0_690)"/>
<path d="M45.0005 45C53.2848 36.7157 53.2848 23.2843 45.0005 15C36.7161 6.71569 23.2845 6.71569 15.0002 15C6.7158 23.2843 6.7158 36.7157 15.0002 45C23.2845 53.2843 36.7161 53.2843 45.0005 45Z" fill="url(#paint2_linear_0_690)"/>
<path d="M47.6198 31.1285C48.2431 21.3974 40.8598 13.0036 31.1287 12.3803C21.3976 11.757 13.0036 19.1402 12.3803 28.8713C11.757 38.6023 19.1403 46.9961 28.8715 47.6194C38.6026 48.2428 46.9965 40.8595 47.6198 31.1285Z" fill="url(#paint3_linear_0_690)"/>
<path d="M46.7363 30.1357C46.8102 20.8943 39.3784 13.3426 30.1368 13.2687C20.8952 13.1948 13.3435 20.6265 13.2696 29.868C13.1957 39.1095 20.6275 46.6611 29.8691 46.7351C39.1106 46.809 46.6623 39.3772 46.7363 30.1357Z" fill="url(#paint4_radial_0_690)"/>
<path d="M29.0913 38.3651V36.8046C27.7656 36.8317 26.4738 36.3849 25.448 35.5446C25.0115 35.1311 24.6689 34.6286 24.4436 34.0712C24.2182 33.5138 24.1153 32.9144 24.1418 32.3138H27.5134C27.5004 32.8443 27.6432 33.367 27.9243 33.8172C28.059 33.976 28.2279 34.1022 28.4184 34.1862C28.6089 34.2703 28.816 34.3101 29.0241 34.3026L29.0333 31.2782C27.3715 30.9115 26.1707 30.409 25.4311 29.7707C25.0668 29.4574 24.778 29.066 24.586 28.6256C24.3939 28.1852 24.3037 27.7071 24.3221 27.2271C24.3056 26.6836 24.4169 26.1439 24.6468 25.6512C24.8768 25.1585 25.2191 24.7266 25.6463 24.3902C26.6754 23.6237 27.9336 23.2279 29.2162 23.2673V22.0859H30.6827V23.2504C31.8933 23.2117 33.0785 23.6029 34.0281 24.3547C34.4351 24.7252 34.759 25.1776 34.9787 25.6822C35.1983 26.1869 35.3087 26.7322 35.3025 27.2825H32.0947C32.0968 26.8395 31.9533 26.408 31.6863 26.0544C31.5551 25.9102 31.3941 25.7962 31.2146 25.7202C31.035 25.6442 30.8411 25.608 30.6462 25.6142V28.3915C32.4121 28.813 33.6632 29.3524 34.3995 30.0095C34.768 30.3449 35.0581 30.7574 35.2491 31.2176C35.44 31.6778 35.5272 32.1745 35.5043 32.6723C35.5388 33.2309 35.4438 33.7899 35.2268 34.3057C35.0098 34.8216 34.6765 35.2804 34.2531 35.6463C33.4189 36.3336 32.1646 36.7262 30.49 36.8241V38.3651H29.0913ZM29.3112 28.0725V25.5793H29.2383C28.8174 25.5491 28.3981 25.655 28.042 25.8813C27.9066 25.9907 27.7996 26.1312 27.7303 26.2908C27.661 26.4505 27.6313 26.6246 27.6439 26.7982C27.6404 26.9447 27.6723 27.0899 27.7369 27.2215C27.8014 27.3532 27.8967 27.4673 28.0147 27.5543C28.4096 27.8086 28.8498 27.9845 29.3112 28.0725ZM30.4022 34.3052C30.8684 34.336 31.3333 34.2275 31.7377 33.9934C31.8727 33.8907 31.9833 33.7594 32.0616 33.6089C32.1398 33.4585 32.1838 33.2925 32.1904 33.1231C32.197 32.9536 32.166 32.7847 32.0996 32.6287C32.0332 32.4726 31.9332 32.3331 31.8065 32.2203C31.3811 31.9336 30.9053 31.7298 30.4043 31.6198L30.4022 34.3052Z" fill="#D17404"/>
</g>
<defs>
<radialGradient id="paint0_radial_0_690" cx="0" cy="0" r="1" gradientUnits="userSpaceOnUse" gradientTransform="translate(-262.686 -133.907) scale(30.0186 6.74164)">
<stop stop-color="#999999"/>
<stop offset="0.608" stop-color="white"/>
</radialGradient>
<linearGradient id="paint1_linear_0_690" x1="7.38112" y1="29.5385" x2="51.9072" y2="30.4438" gradientUnits="userSpaceOnUse">
<stop stop-color="#FFFF00"/>
<stop offset="0.37" stop-color="#FFFF00"/>
<stop offset="0.663" stop-color="#FFFF00"/>
<stop offset="0.865" stop-color="#FFF800"/>
<stop offset="1" stop-color="#FFF100"/>
</linearGradient>
<linearGradient id="paint2_linear_0_690" x1="24.5103" y1="50.49" x2="35.4902" y2="9.50992" gradientUnits="userSpaceOnUse">
<stop stop-color="#FFFD00"/>
<stop offset="0.006" stop-color="#FFFD00"/>
<stop offset="0.253" stop-color="#E5D700"/>
<stop offset="0.51" stop-color="#FFED00"/>
<stop offset="0.596" stop-color="#FFE700"/>
<stop offset="0.787" stop-color="#EEDF03"/>
<stop offset="1" stop-color="#FFEF00"/>
</linearGradient>
<linearGradient id="paint3_linear_0_690" x1="47.6198" y1="31.1285" x2="12.3803" y2="28.8712" gradientUnits="userSpaceOnUse">
<stop stop-color="#FFD900"/>
<stop offset="0.03" stop-color="#FFD400"/>
<stop offset="0.325" stop-color="#FFAC00"/>
<stop offset="0.595" stop-color="#FF8F00"/>
<stop offset="0.829" stop-color="#FF7E00"/>
<stop offset="1" stop-color="#FF7800"/>
</linearGradient>
<radialGradient id="paint4_radial_0_690" cx="0" cy="0" r="1" gradientUnits="userSpaceOnUse" gradientTransform="translate(29.8722 62.8238) scale(16.7344 16.7343)">
<stop stop-color="#FFFF00"/>
<stop offset="0.453" stop-color="#FFFD00"/>
<stop offset="0.617" stop-color="#FFF600"/>
<stop offset="0.733" stop-color="#FFEA00"/>
<stop offset="0.827" stop-color="#FFD900"/>
<stop offset="0.908" stop-color="#FFC300"/>
<stop offset="0.978" stop-color="#FFA900"/>
<stop offset="1" stop-color="#FF9F00"/>
</radialGradient>
<clipPath id="clip0_0_690">
<rect width="60" height="60" fill="white"/>
</clipPath>
</defs>
</svg>
