<svg width="20" height="20" viewBox="0 0 20 20" fill="none" xmlns="http://www.w3.org/2000/svg">
<path fill-rule="evenodd" clip-rule="evenodd" d="M6.34567 0.833374H3.56108C2.0533 0.833374 0.833313 2.06395 0.833313 3.57927V6.38804C0.833313 7.90273 2.05356 9.13393 3.56108 9.13393H6.34567C7.85319 9.13393 9.07343 7.90273 9.07343 6.38804V3.57927C9.07343 2.06395 7.85345 0.833374 6.34567 0.833374ZM3.56108 2.11244H6.34567C7.14455 2.11244 7.79436 2.7679 7.79436 3.57927V6.38804C7.79436 7.19887 7.14421 7.85486 6.34567 7.85486H3.56108C2.76254 7.85486 2.11238 7.19887 2.11238 6.38804V3.57927C2.11238 2.7679 2.76219 2.11244 3.56108 2.11244ZM16.4398 0.833374H13.6543C12.1465 0.833374 10.9265 2.06395 10.9265 3.57927V6.38804C10.9265 7.90273 12.1468 9.13393 13.6543 9.13393H16.4398C17.9466 9.13393 19.1666 7.90256 19.1666 6.38804V3.57927C19.1666 2.06413 17.9468 0.833374 16.4398 0.833374ZM13.6543 2.11244H16.4398C17.2379 2.11244 17.8876 2.76799 17.8876 3.57927V6.38804C17.8876 7.19877 17.2375 7.85486 16.4398 7.85486H13.6543C12.8558 7.85486 12.2056 7.19887 12.2056 6.38804V3.57927C12.2056 2.7679 12.8554 2.11244 13.6543 2.11244ZM3.56108 10.8662H6.34567C7.85363 10.8662 9.07343 12.0969 9.07343 13.6129V16.4208C9.07343 17.9361 7.85345 19.1667 6.34567 19.1667H3.56108C2.0533 19.1667 0.833313 17.9361 0.833313 16.4208V13.6129C0.833313 12.0969 2.05312 10.8662 3.56108 10.8662ZM6.34567 12.1452H3.56108C2.7621 12.1452 2.11238 12.8008 2.11238 13.6129V16.4208C2.11238 17.2322 2.76219 17.8876 3.56108 17.8876H6.34567C7.14455 17.8876 7.79436 17.2322 7.79436 16.4208V13.6129C7.79436 12.8008 7.14464 12.1452 6.34567 12.1452ZM16.4398 10.8662H13.6543C12.1463 10.8662 10.9265 12.0969 10.9265 13.6129V16.4208C10.9265 17.9361 12.1465 19.1667 13.6543 19.1667H16.4398C17.9468 19.1667 19.1666 17.936 19.1666 16.4208V13.6129C19.1666 12.0971 17.947 10.8662 16.4398 10.8662ZM13.6543 12.1452H16.4398C17.238 12.1452 17.8876 12.8009 17.8876 13.6129V16.4208C17.8876 17.2321 17.2379 17.8876 16.4398 17.8876H13.6543C12.8554 17.8876 12.2056 17.2322 12.2056 16.4208V13.6129C12.2056 12.8008 12.8553 12.1452 13.6543 12.1452Z" fill="black"/>
</svg>
