<svg width="22" height="20" viewBox="0 0 22 20" fill="none" xmlns="http://www.w3.org/2000/svg">
<path d="M9.5 14.95L13.48 12.67C14.15 12.29 14.15 11.32 13.48 10.93L9.5 8.65C8.83 8.27 8 8.76 8 9.52V14.07C8 14.84 8.83 15.33 9.5 14.95ZM20 3.8H12.41L15.35 0.86C15.55 0.66 15.55 0.35 15.35 0.15C15.15 -0.05 14.84 -0.05 14.64 0.15L11 3.79L7.36 0.15C7.16 -0.05 6.85 -0.05 6.65 0.15C6.45 0.35 6.45 0.66 6.65 0.86L9.59 3.8H2C1.46957 3.8 0.960859 4.01071 0.585786 4.38579C0.210714 4.76086 0 5.26957 0 5.8V17.8C0 18.9 0.9 19.8 2 19.8H20C21.1 19.8 22 18.9 22 17.8V5.8C22 5.26957 21.7893 4.76086 21.4142 4.38579C21.0391 4.01071 20.5304 3.8 20 3.8ZM19 17.8H3C2.45 17.8 2 17.35 2 16.8V6.8C2 6.25 2.45 5.8 3 5.8H19C19.55 5.8 20 6.25 20 6.8V16.8C20 17.35 19.55 17.8 19 17.8Z" fill="black"/>
</svg>
