<svg width="22" height="24" viewBox="0 0 22 24" fill="none" xmlns="http://www.w3.org/2000/svg">
<path d="M0.333344 14.6667C0.333344 12.3333 0.888899 10.2556 2.00001 8.43333C3.11112 6.61111 4.33334 5.07778 5.66668 3.83333C7.00001 2.58889 8.22223 1.63867 9.33334 0.982667L11 0V4.4C11 5.22222 11.2778 5.872 11.8333 6.34933C12.3889 6.82756 13.0111 7.06667 13.7 7.06667C14.0778 7.06667 14.4391 6.98889 14.784 6.83333C15.128 6.67778 15.4445 6.42222 15.7333 6.06667L16.3333 5.33333C17.9333 6.26667 19.2222 7.56089 20.2 9.216C21.1778 10.872 21.6667 12.6889 21.6667 14.6667C21.6667 16.6222 21.1889 18.4053 20.2333 20.016C19.2778 21.6276 18.0222 22.9 16.4667 23.8333C16.8445 23.3 17.1391 22.7164 17.3507 22.0827C17.5613 21.4498 17.6667 20.7778 17.6667 20.0667C17.6667 19.1778 17.5 18.3391 17.1667 17.5507C16.8333 16.7613 16.3556 16.0556 15.7333 15.4333L11 10.8L6.30001 15.4333C5.65557 16.0778 5.16668 16.7889 4.83334 17.5667C4.50001 18.3444 4.33334 19.1778 4.33334 20.0667C4.33334 20.7778 4.43912 21.4498 4.65068 22.0827C4.86134 22.7164 5.15557 23.3 5.53334 23.8333C3.97779 22.9 2.72223 21.6276 1.76668 20.016C0.811121 18.4053 0.333344 16.6222 0.333344 14.6667ZM11 14.5333L13.8333 17.3C14.2111 17.6778 14.5 18.1 14.7 18.5667C14.9 19.0333 15 19.5333 15 20.0667C15 21.1556 14.6111 22.0831 13.8333 22.8493C13.0556 23.6164 12.1111 24 11 24C9.8889 24 8.94446 23.6164 8.16668 22.8493C7.3889 22.0831 7.00001 21.1556 7.00001 20.0667C7.00001 19.5556 7.10001 19.0613 7.30001 18.584C7.50001 18.1058 7.7889 17.6778 8.16668 17.3L11 14.5333Z" fill="#FFEF00"/>
</svg>
