<svg width="217" height="66" viewBox="0 0 217 66" fill="none" xmlns="http://www.w3.org/2000/svg">
<path d="M141.421 6.5011H136.765V11.1911H141.421V6.5011Z" fill="#FFEF00"/>
<path d="M102.038 24.2774C101.563 23.799 101.022 23.3915 100.433 23.0673C99.6984 22.66 98.9361 22.306 98.1516 22.0082C97.1374 21.6354 96.1522 21.1866 95.2045 20.6656C94.9141 20.5051 94.6741 20.2659 94.5114 19.9752C94.3488 19.6845 94.27 19.3538 94.284 19.0205C94.2707 18.7507 94.3237 18.4817 94.4384 18.2375C94.553 17.9933 94.7258 17.7815 94.9414 17.6207C95.4927 17.2609 96.1441 17.0886 96.7998 17.1293C97.7624 17.1187 98.7161 17.3153 99.5971 17.7061C100.486 18.1128 101.335 18.6035 102.132 19.1714L102.545 15.1626C101.718 14.6981 100.838 14.3361 99.9254 14.0844C98.8812 13.8071 97.8046 13.6736 96.7249 13.6874C95.4571 13.6566 94.1971 13.8949 93.0268 14.3869C92.0593 14.795 91.2263 15.4705 90.6237 16.3352C90.0555 17.1831 89.7605 18.1867 89.7788 19.2095C89.7475 20.1299 89.9648 21.0416 90.4074 21.8475C90.8641 22.5977 91.4959 23.2241 92.2477 23.6724C93.1783 24.2364 94.1625 24.7053 95.1856 25.0721C95.9484 25.3622 96.5866 25.6332 97.1001 25.8852C97.5407 26.0831 97.9345 26.3733 98.2551 26.7363C98.5211 27.0813 98.6573 27.5099 98.6395 27.9464C98.659 28.2304 98.6011 28.5144 98.4721 28.7677C98.343 29.021 98.1477 29.2339 97.9073 29.3835C97.2539 29.725 96.521 29.8819 95.7862 29.8376C94.784 29.8419 93.7891 29.6659 92.8483 29.3178C91.8623 28.9453 90.9106 28.4864 90.0042 27.9464L89.5911 31.9559C90.5545 32.3964 91.5569 32.7446 92.5851 32.9959C93.6844 33.2468 94.809 33.3673 95.9361 33.3549C97.3016 33.3913 98.6616 33.1668 99.9443 32.6934C100.95 32.3219 101.82 31.6528 102.441 30.774C103.03 29.8681 103.328 28.8017 103.295 27.7193C103.307 27.06 103.202 26.4038 102.986 25.7815C102.778 25.2188 102.455 24.7063 102.038 24.2774Z" fill="#FFEF00"/>
<path d="M117.948 29.1662C117.239 29.385 116.502 29.4965 115.76 29.4969C114.992 29.5329 114.226 29.3982 113.515 29.1025C112.805 28.8067 112.168 28.3571 111.649 27.7855C110.672 26.5858 110.135 25.084 110.128 23.5324C110.122 21.9809 110.645 20.4743 111.611 19.2658C112.15 18.7031 112.803 18.2647 113.526 17.9807C114.248 17.6967 115.024 17.5738 115.798 17.6207C116.562 17.6176 117.323 17.7193 118.06 17.9232C118.732 18.1067 119.383 18.3603 120.003 18.6798L120.379 14.8974C119.69 14.5225 118.959 14.2336 118.201 14.0371C117.269 13.7939 116.31 13.6763 115.347 13.6873C113.408 13.6151 111.486 14.0794 109.791 15.0299C108.361 15.8744 107.207 17.1195 106.468 18.6135C105.719 20.1518 105.34 21.8457 105.36 23.5588C105.34 25.261 105.723 26.9435 106.477 28.4666C107.219 29.9454 108.366 31.1792 109.781 32.022C111.431 32.9597 113.305 33.4209 115.197 33.3548C116.173 33.3591 117.145 33.2545 118.098 33.0431C118.915 32.8715 119.707 32.5949 120.454 32.2202L120.041 28.2488C119.38 28.6334 118.678 28.9411 117.948 29.1662Z" fill="#FFEF00"/>
<path d="M130.852 14.4814C130.111 14.9127 129.435 15.4476 128.843 16.0701L128.731 14.0653H124.375V32.9769H129.031V20.0796C129.342 19.502 129.82 19.0336 130.402 18.737C131.062 18.3689 131.806 18.1798 132.56 18.1884C132.823 18.1884 133.089 18.2008 133.358 18.2258C133.634 18.2527 133.907 18.3034 134.175 18.3774L134.513 13.7629C134.241 13.7107 133.964 13.6855 133.687 13.6874C132.687 13.6799 131.705 13.955 130.852 14.4814Z" fill="#FFEF00"/>
<path d="M141.421 14.0654H136.765V32.9769H141.421V14.0654Z" fill="#FFEF00"/>
<path d="M160.212 15.1055C158.846 14.1758 157.223 13.7058 155.575 13.7628C154.29 13.723 153.014 13.9989 151.858 14.5667C151.208 14.9154 150.596 15.3307 150.03 15.8059L149.531 14.0653H145.776V42.1298H150.432V31.8162C150.923 32.183 151.452 32.496 152.009 32.7498C153.145 33.1934 154.358 33.3993 155.575 33.3548C157.223 33.4122 158.846 32.9422 160.212 32.0123C161.47 31.109 162.455 29.8719 163.057 28.4385C163.695 26.8921 164.024 25.2339 164.024 23.5592C164.024 21.8845 163.695 20.2263 163.057 18.6799C162.455 17.2464 161.47 16.0091 160.212 15.1055ZM158.1 27.8426C157.745 28.3733 157.261 28.8039 156.694 29.0934C156.128 29.3829 155.497 29.5218 154.862 29.497C153.952 29.5577 153.048 29.3108 152.293 28.7952C151.538 28.2797 150.975 27.5251 150.694 26.6509C150.044 24.6416 150.044 22.4761 150.694 20.4668C150.976 19.5928 151.538 18.8384 152.293 18.3229C153.048 17.8074 153.952 17.5603 154.862 17.6207C155.496 17.5956 156.126 17.7334 156.693 18.0212C157.259 18.309 157.744 18.7373 158.1 19.2659C158.857 20.5666 159.255 22.0468 159.255 23.5542C159.255 25.0617 158.857 26.5419 158.1 27.8426V27.8426Z" fill="#FFEF00"/>
<path d="M172.771 9.41339L168.115 9.90492V14.0653H165.863L165.45 17.9232H168.115V28.4004C168.115 29.2178 168.294 30.0251 168.641 30.7641C168.999 31.5289 169.565 32.1752 170.275 32.6271C171.141 33.1465 172.14 33.3994 173.147 33.3548H176.489L176.902 29.497H175.625C174.983 29.5193 174.34 29.4653 173.71 29.3362C173.52 29.2906 173.347 29.1919 173.211 29.0513C173.075 28.9108 172.981 28.7342 172.94 28.5421C172.804 27.8609 172.747 27.1658 172.771 26.4712V17.9232H176.902V14.0653H172.771V9.41339Z" fill="#FFEF00"/>
<path d="M184.373 27.8328H179.492V32.9769H184.373V27.8328Z" fill="#FFEF00"/>
<path d="M193.496 9.41339L188.84 9.90492V14.0653H186.588L186.175 17.9232H188.84V28.4004C188.84 29.2178 189.02 30.0251 189.366 30.7641C189.724 31.5289 190.291 32.1752 191 32.6271C191.866 33.1465 192.865 33.3994 193.872 33.3548H197.214L197.627 29.497H196.35C195.708 29.5193 195.065 29.4653 194.435 29.3362C194.245 29.2906 194.072 29.1919 193.936 29.0513C193.8 28.9108 193.706 28.7342 193.666 28.5421C193.529 27.8609 193.472 27.1658 193.496 26.4712V17.9232H197.627V14.0653H193.496L193.496 9.41339Z" fill="#FFEF00"/>
<path d="M212.419 14.0651L207.801 27.1525L203.184 14.0651H198.603L205.812 32.9767H209.792L217 14.0651H212.419Z" fill="#FFEF00"/>
<path d="M9.48997 66H74.0445C75.2908 66 76.5248 65.7527 77.6762 65.2723C78.8276 64.7919 79.8737 64.0877 80.755 63.2C81.6362 62.3123 82.3352 61.2585 82.8121 60.0986C83.289 58.9388 83.5345 57.6957 83.5345 56.4403V9.55973C83.5345 8.30433 83.289 7.06121 82.8121 5.90137C82.3352 4.74153 81.6362 3.68768 80.755 2.79998C79.8737 1.91227 78.8276 1.20811 77.6762 0.727691C76.5248 0.247272 75.2908 -3.20121e-06 74.0445 0H9.48997C8.24373 -3.20121e-06 7.00969 0.247272 5.85832 0.727691C4.70694 1.20811 3.66078 1.91227 2.77955 2.79998C1.89833 3.68768 1.1993 4.74153 0.722383 5.90137C0.245466 7.06121 1.58893e-06 8.30433 0 9.55973V56.4403C3.17786e-06 57.6957 0.24547 58.9388 0.722387 60.0986C1.1993 61.2585 1.89833 62.3123 2.77956 63.2C3.66078 64.0877 4.70695 64.7919 5.85832 65.2723C7.0097 65.7527 8.24373 66 9.48997 66ZM5.13528 14.7227C5.13527 13.4673 5.38073 12.2242 5.85765 11.0644C6.33456 9.90454 7.03358 8.85069 7.91481 7.96298C8.79603 7.07528 9.84219 6.37111 10.9936 5.89069C12.1449 5.41027 13.379 5.163 14.6252 5.16301H68.9093C70.1555 5.163 71.3896 5.41027 72.5409 5.89069C73.6923 6.37111 74.7385 7.07528 75.6197 7.96298C76.5009 8.85069 77.2 9.90454 77.6769 11.0644C78.1538 12.2242 78.3992 13.4673 78.3992 14.7227V50.7215C78.3992 53.2569 77.3994 55.6885 75.6197 57.4812C73.84 59.274 71.4262 60.2812 68.9093 60.2812H14.6252C12.1083 60.2812 9.69452 59.274 7.91481 57.4812C6.1351 55.6885 5.13528 53.2569 5.13528 50.7215V14.7227Z" fill="#FFEF00"/>
<path d="M71.7173 13.1235C71.2175 13.5327 70.7313 13.9668 70.2332 14.4474C70.1416 14.531 69.2997 15.2428 67.8783 14.3703L67.7796 14.3189C66.9709 13.8502 66.206 13.3086 65.4944 12.7007C65.1642 12.407 62.2007 9.8187 59.2048 9.90143C58.27 9.88356 57.3413 10.057 56.475 10.4113C55.6086 10.7655 54.8227 11.2932 54.1647 11.9624L52.6446 13.3717C52.2842 13.7303 51.5912 14.162 51.284 14.0508L50.9071 13.9362C50.2526 13.5624 49.632 13.1312 49.0526 12.6477C48.7908 12.4433 46.443 10.6495 44.3581 10.2892C43.8689 10.1722 40.8423 9.53481 38.2168 10.978C37.1531 11.5709 36.1756 12.3086 35.3118 13.1702L35.2427 13.2425C34.9801 13.5327 34.272 14.1216 33.7557 14.0668L33.6174 14.06C33.0921 13.9962 32.5866 13.8191 32.1354 13.5407C31.4023 13.0825 30.6999 12.5763 30.0328 12.0252C29.7022 11.7315 26.7379 9.14382 23.7414 9.22623C22.8071 9.20965 21.8792 9.38373 21.0134 9.73798C20.1477 10.0922 19.3621 10.6193 18.704 11.2875L17.1812 12.6989C16.8232 13.0575 16.1322 13.4901 15.8226 13.3756L15.4463 13.261C14.7918 12.8878 14.1714 12.4569 13.5924 11.9734C12.9572 11.4921 12.2897 11.0557 11.5946 10.6674L9.35046 9.41845V15.7293L9.99798 16.1837C10.3947 16.4622 10.7867 16.7557 11.1323 17.0327C11.4965 17.346 14.1717 19.524 17.2069 18.8208C18.6217 18.5296 19.9121 17.8034 20.8999 16.7423C21.5659 16.0261 22.3169 15.3953 23.1361 14.8643C23.36 14.7681 23.6031 14.7259 23.846 14.7411C24.089 14.7563 24.325 14.8284 24.5354 14.9518C25.249 15.3579 25.9311 15.8179 26.5757 16.3278C26.6936 16.4185 27.6335 17.1383 28.5664 17.7793V17.8599L29.3197 18.3007C29.5019 18.4075 29.6733 18.4991 29.8145 18.57L29.8718 18.6015C29.8718 18.6015 30.062 18.7107 30.3515 18.8422C31.0935 19.1977 31.8846 19.4383 32.6979 19.5558C33.8949 19.7746 35.1289 19.6482 36.2577 19.1913C36.9125 18.9235 37.5314 18.574 38.0998 18.151L38.7225 17.6945V17.5181C38.8153 17.4339 38.9089 17.3452 39.0076 17.2488C39.6291 16.5989 40.9102 15.6258 41.6866 15.5999L41.7557 15.5952C42.6849 15.5182 43.6159 15.7208 44.4308 16.1772C45.176 16.64 45.8933 17.1469 46.5789 17.6951C46.8779 17.9552 49.5843 20.2093 52.6677 19.496C54.0826 19.2049 55.373 18.4787 56.3608 17.4175C57.025 16.7031 57.7738 16.0737 58.5904 15.5434C58.8152 15.446 59.0594 15.4029 59.3036 15.4174C59.5478 15.4319 59.7853 15.5037 59.9971 15.627C60.7103 16.0326 61.3918 16.4922 62.0359 17.0018C63.0868 17.8227 64.1848 18.5805 65.3243 19.271C66.5551 19.9438 67.9287 20.3079 69.3287 20.3325H69.3299C70.1491 20.3399 70.9614 20.1814 71.7185 19.8665C72.3734 19.599 72.9923 19.2496 73.5606 18.8265L74.1839 18.3703V11.1039L71.7173 13.1235Z" fill="#FFEF00"/>
<path d="M70.2326 24.9359C70.1411 25.0198 69.2998 25.7316 67.8783 24.8583L67.7796 24.8068C66.9709 24.3382 66.206 23.7965 65.4944 23.1886C65.1678 22.8979 62.2616 20.3882 59.3047 20.3882C59.2698 20.3882 59.235 20.3885 59.2007 20.3893C58.2671 20.376 57.3403 20.5516 56.4753 20.9057C55.6102 21.2597 54.8245 21.7851 54.1647 22.4506L52.6452 23.8593C52.2854 24.2185 51.5924 24.6494 51.284 24.5387L50.9071 24.4241C50.2526 24.0503 49.632 23.6191 49.0526 23.1356C48.7903 22.9312 46.4424 21.1368 44.3569 20.7771C43.954 20.6824 40.8467 20.0215 38.2168 21.4659C37.1532 22.0591 36.1758 22.7969 35.3118 23.6584L35.2433 23.7299C34.8494 24.1918 34.2956 24.4852 33.6945 24.5503L33.6056 24.5485C33.0835 24.4851 32.5814 24.3076 32.1345 24.0283C31.4018 23.57 30.6997 23.0639 30.0327 22.5131C29.7025 22.2194 26.7196 19.6734 23.7408 19.7141C22.8068 19.6991 21.8794 19.8739 21.014 20.2281C20.1486 20.5823 19.3629 21.1085 18.7039 21.7754L17.1823 23.1856C16.8231 23.5448 16.1304 23.9772 15.8214 23.8635L15.448 23.7501C14.7919 23.3757 14.1698 22.9437 13.5891 22.459C12.9549 21.979 12.2885 21.5436 11.5949 21.1559L9.3504 19.9052V26.2176L9.99792 26.672C10.3955 26.9511 10.7875 27.2445 11.1325 27.5207C11.4967 27.8337 14.1675 30.0128 17.2071 29.3088C18.6216 29.0176 19.9116 28.2916 20.8993 27.2308C21.5627 26.5115 22.3143 25.8803 23.136 25.3523C23.36 25.2562 23.603 25.2141 23.8459 25.2293C24.0889 25.2445 24.3249 25.3166 24.5353 25.4398C25.2489 25.8459 25.931 26.3059 26.5756 26.8157C26.6935 26.9065 27.6335 27.6263 28.5663 28.2673V28.3488L29.3202 28.7889C29.5025 28.8957 29.6735 28.9868 29.8138 29.0573L29.8717 29.0895C29.8717 29.0895 30.0619 29.1987 30.3517 29.3302C31.094 29.6859 31.8853 29.9265 32.699 30.0441C33.8956 30.2624 35.1292 30.1359 36.2576 29.6792C36.9124 29.4115 37.5313 29.062 38.0997 28.639L38.7224 28.1825V28.006C38.8152 27.9218 38.9088 27.8331 39.0075 27.7367C39.629 27.0868 40.9101 26.1138 41.6865 26.0879L41.7638 26.0819C42.689 26.0087 43.6151 26.2109 44.4272 26.6634C45.1731 27.1274 45.8916 27.6348 46.5788 28.1831C46.8784 28.4432 49.5842 30.6973 52.6682 29.984C54.0828 29.6927 55.373 28.9665 56.3607 27.9055C57.025 27.191 57.774 26.5615 58.5909 26.0314C58.8157 25.9348 59.0597 25.8921 59.3037 25.9066C59.5477 25.9211 59.785 25.9924 59.997 26.115C60.7102 26.5206 61.3917 26.9802 62.0359 27.4898C63.0867 28.3107 64.1847 29.0684 65.3242 29.759C66.555 30.4318 67.9286 30.7958 69.3286 30.8205H69.3299C70.149 30.8279 70.9613 30.6694 71.7184 30.3545C72.3733 30.0869 72.9922 29.7375 73.5605 29.3145L74.1838 28.8583V21.5918L71.7173 23.6115C71.2175 24.0206 70.7313 24.4548 70.2326 24.9359Z" fill="#FFEF00"/>
<path d="M70.235 35.68C70.144 35.7651 69.3039 36.4808 67.9285 35.6333L67.7791 35.5529C66.9706 35.0841 66.2059 34.5425 65.4944 33.9347C65.3633 33.8181 62.2598 31.0986 59.2042 31.1355C58.2699 31.1206 57.3421 31.2955 56.4763 31.6496C55.6105 32.0037 54.8243 32.5299 54.1647 33.1968L52.6417 34.6093C52.2836 34.9673 51.5936 35.397 51.284 35.2854L50.9071 35.1702C50.2525 34.7965 49.632 34.3653 49.0526 33.8818C48.7909 33.6773 46.4436 31.8839 44.3587 31.5235C43.8683 31.4051 40.8446 30.7677 38.2168 32.2124C37.1532 32.8054 36.1757 33.5431 35.3118 34.4046L35.2412 34.4784C34.8497 34.9418 34.2955 35.235 33.6945 35.2967L33.608 35.2949C33.0855 35.2303 32.583 35.0529 32.1348 34.7748C31.402 34.3165 30.6998 33.8104 30.0328 33.2595C29.7019 32.9649 26.7219 30.3871 23.7402 30.4606C22.8063 30.4456 21.879 30.6203 21.0137 30.9745C20.1484 31.3287 19.3628 31.8549 18.704 32.5219L17.1824 33.9321C16.8314 34.2835 16.1431 34.7254 15.8226 34.6099L15.4463 34.4954C14.7918 34.1221 14.1714 33.6913 13.5924 33.2078C12.9573 32.7265 12.2897 32.2902 11.5946 31.902L9.35046 30.6525V36.9638L9.99798 37.4181C10.3947 37.6967 10.7864 37.9901 11.1323 38.2671C11.4965 38.5802 14.1687 40.7593 17.2069 40.0552C18.6218 39.7641 19.9121 39.0379 20.8999 37.9767C21.5656 37.2607 22.3164 36.6302 23.1352 36.0993C23.3593 36.0031 23.6025 35.9608 23.8457 35.9759C24.0888 35.991 24.3251 36.063 24.5357 36.1862C25.2492 36.5924 25.9311 37.0524 26.5757 37.5622C26.6933 37.6529 27.6321 38.3716 28.5664 39.0134V39.0935L29.3179 39.5336C29.5016 39.6416 29.6742 39.7338 29.8106 39.802L29.8703 39.835C29.8703 39.835 30.0611 39.9448 30.3518 40.077C31.0941 40.4322 31.8853 40.6726 32.6987 40.7902C33.8955 41.0085 35.1291 40.8822 36.2577 40.4257C36.9125 40.158 37.5314 39.8085 38.0998 39.3854L38.7225 38.929V38.7519C38.8155 38.6674 38.9095 38.5787 39.009 38.4814C39.6276 37.8324 40.9061 36.8603 41.6865 36.8344L41.7557 36.8296C42.6849 36.7528 43.6158 36.9554 44.4308 37.4117C45.1759 37.8745 45.8932 38.3813 46.5789 38.9296C46.8784 39.1896 49.5861 41.4458 52.6682 40.7302C54.0828 40.4387 55.3729 39.7126 56.3607 38.6519C57.025 37.9375 57.7741 37.308 58.591 36.7778C58.8157 36.6807 59.0598 36.6378 59.3038 36.6523C59.5479 36.6668 59.7853 36.7384 59.9971 36.8614C60.7102 37.2671 61.3918 37.7267 62.0359 38.2362C63.0868 39.0572 64.1848 39.8149 65.3243 40.5055C66.5555 41.1783 67.9294 41.5424 69.3299 41.5669C70.1465 41.5743 70.9563 41.4166 71.7114 41.1033C72.3693 40.8365 72.9907 40.4862 73.5606 40.0609L74.1839 39.6048V32.341L71.7173 34.3576C71.2181 34.7668 70.7325 35.1997 70.235 35.68Z" fill="#FFEF00"/>
<path d="M20.5629 54.9298C23.3186 54.9298 25.5525 52.6794 25.5525 49.9034C25.5525 47.1274 23.3186 44.8771 20.5629 44.8771C17.8072 44.8771 15.5732 47.1274 15.5732 49.9034C15.5732 52.6794 17.8072 54.9298 20.5629 54.9298Z" fill="#FFEF00"/>
<path d="M66.4998 53.4575C68.4483 51.4946 68.4483 48.3121 66.4998 46.3492C64.5512 44.3863 61.392 44.3863 59.4434 46.3492C57.4948 48.3121 57.4948 51.4946 59.4434 53.4575C61.3919 55.4204 64.5512 55.4204 66.4998 53.4575Z" fill="#FFEF00"/>
<path d="M28.8823 43.7332L30.2374 56.0735H31.3197L30.0922 43.7332H28.8823Z" fill="#FFEF00"/>
<path d="M31.9519 43.7332L32.9846 56.0735H34.0669L33.1619 43.7332H31.9519Z" fill="#FFEF00"/>
<path d="M35.0221 43.7332L35.7318 56.0735H36.8141L36.2321 43.7332H35.0221Z" fill="#FFEF00"/>
<path d="M38.0924 43.7332L38.479 56.0735H39.5613L39.3024 43.7332H38.0924Z" fill="#FFEF00"/>
<path d="M41.2256 56.0735H42.3085L42.372 43.7332H41.162L41.2256 56.0735Z" fill="#FFEF00"/>
<path d="M43.9734 56.0735H45.0557L45.4422 43.7332H44.2323L43.9734 56.0735Z" fill="#FFEF00"/>
<path d="M46.72 56.0735H47.8029L48.5125 43.7332H47.3026L46.72 56.0735Z" fill="#FFEF00"/>
<path d="M49.4678 56.0735H50.5501L51.5828 43.7332H50.3728L49.4678 56.0735Z" fill="#FFEF00"/>
<path d="M52.2144 56.0735H53.2973L54.6524 43.7332H53.4425L52.2144 56.0735Z" fill="#FFEF00"/>
<path d="M90.3279 53.6631V47.7932H90.9547V53.6631H90.3279ZM90.7343 51.3082V50.7535H92.4453C92.6696 50.7577 92.8918 50.7081 93.0934 50.6089C93.2777 50.5162 93.4321 50.3725 93.5382 50.1946C93.6437 49.9966 93.6989 49.7754 93.6989 49.5507C93.6989 49.326 93.6437 49.1048 93.5382 48.9068C93.4321 48.7289 93.2777 48.5852 93.0934 48.4925C92.8918 48.3933 92.6696 48.3437 92.4453 48.3479H90.7343V47.7932H92.4961C92.8224 47.7878 93.1452 47.8623 93.4366 48.0105C93.7075 48.1505 93.9347 48.3632 94.093 48.6253C94.251 48.9086 94.3341 49.2281 94.3341 49.5531C94.3341 49.8781 94.251 50.1976 94.093 50.4809C93.9335 50.7407 93.7065 50.9517 93.4366 51.091C93.1452 51.2391 92.8224 51.3136 92.4961 51.3082L90.7343 51.3082Z" fill="white"/>
<path d="M96.8833 53.7483C96.5143 53.754 96.1509 53.6566 95.8335 53.4668C95.52 53.2788 95.2611 53.0112 95.0827 52.6908C94.9043 52.3703 94.8125 52.0083 94.8167 51.6409C94.8122 51.2724 94.9074 50.9097 95.092 50.5916C95.2716 50.283 95.5269 50.026 95.8335 49.8453C96.1518 49.6582 96.5148 49.5623 96.8833 49.568C97.2499 49.5636 97.6111 49.6576 97.9296 49.8406C98.2432 50.0222 98.5031 50.2847 98.6825 50.6012C98.8618 50.9176 98.9541 51.2765 98.9499 51.6409C98.956 52.009 98.8647 52.3722 98.6854 52.6931C98.5061 53.014 98.2452 53.281 97.9296 53.4668C97.6131 53.6554 97.2511 53.7528 96.8833 53.7483ZM96.8833 53.1686C97.145 53.1726 97.4027 53.1047 97.6289 52.9722C97.8483 52.8422 98.0272 52.653 98.1453 52.4259C98.272 52.1842 98.3362 51.9142 98.332 51.6409C98.3361 51.3739 98.2703 51.1105 98.1411 50.8773C97.9435 50.5415 97.6228 50.2973 97.2481 50.1976C96.8734 50.0978 96.4748 50.1504 96.1383 50.3441C95.9213 50.4715 95.7427 50.6558 95.6214 50.8773C95.4951 51.1114 95.431 51.3744 95.4353 51.6409C95.4302 51.9155 95.4943 52.187 95.6214 52.43C95.7405 52.6555 95.9195 52.8432 96.1383 52.9722C96.3643 53.1047 96.6219 53.1726 96.8833 53.1686Z" fill="white"/>
<path d="M100.864 53.6631L99.3227 49.6531H99.9496L101.161 52.9806L100.94 52.9889L102.134 49.6531H102.49L103.693 52.9889L103.464 52.9806L104.675 49.6531H105.302L103.761 53.6631H103.405L102.185 50.3786H102.439L101.22 53.6631H100.864Z" fill="white"/>
<path d="M107.767 53.7482C107.394 53.7541 107.025 53.66 106.7 53.4756C106.388 53.2974 106.129 53.038 105.95 52.7246C105.771 52.3976 105.676 52.0305 105.675 51.6571C105.674 51.2836 105.765 50.9158 105.942 50.5874C106.115 50.2765 106.368 50.0184 106.675 49.8405C106.991 49.6573 107.351 49.5631 107.716 49.5679C108.056 49.5606 108.391 49.646 108.686 49.8149C108.965 49.9789 109.193 50.2167 109.347 50.5023C109.512 50.8127 109.595 51.1607 109.588 51.5129C109.588 51.5587 109.585 51.6111 109.58 51.6712C109.573 51.7414 109.561 51.8112 109.546 51.8801H106.099V51.3682H109.216L109.004 51.5557C109.015 51.2957 108.965 51.0366 108.856 50.8005C108.757 50.5939 108.601 50.4206 108.407 50.3017C108.195 50.1777 107.953 50.1157 107.708 50.1226C107.444 50.1163 107.183 50.1826 106.954 50.3142C106.741 50.4408 106.567 50.6238 106.45 50.8433C106.324 51.0868 106.262 51.3582 106.268 51.6325C106.262 51.9147 106.328 52.1937 106.459 52.4431C106.582 52.6722 106.767 52.8615 106.992 52.9888C107.235 53.1232 107.508 53.191 107.784 53.1852C108.011 53.1873 108.236 53.1423 108.445 53.0531C108.647 52.9659 108.825 52.8295 108.962 52.6561L109.351 53.0489C109.165 53.2764 108.927 53.4549 108.657 53.5691C108.375 53.6895 108.073 53.7505 107.767 53.7482Z" fill="white"/>
<path d="M110.486 53.6631V49.653H111.087V53.6631H110.486ZM111.087 51.3254L110.841 51.223C110.817 50.7878 110.948 50.3583 111.21 50.0113C111.333 49.8642 111.489 49.7477 111.664 49.6709C111.84 49.594 112.03 49.5587 112.222 49.5679C112.41 49.5633 112.598 49.6007 112.77 49.6773C112.943 49.7539 113.097 49.8679 113.221 50.0113L112.823 50.4296C112.739 50.3319 112.633 50.2558 112.514 50.2077C112.388 50.1604 112.254 50.1372 112.12 50.1392C111.982 50.1341 111.845 50.1581 111.716 50.2095C111.588 50.261 111.472 50.3388 111.375 50.438C111.166 50.6839 111.063 51.0028 111.087 51.3254V51.3254Z" fill="white"/>
<path d="M115.542 53.7482C115.169 53.7541 114.8 53.66 114.475 53.4756C114.163 53.2974 113.904 53.038 113.725 52.7246C113.546 52.3976 113.451 52.0305 113.45 51.6571C113.448 51.2836 113.54 50.9158 113.717 50.5874C113.89 50.2765 114.143 50.0184 114.449 49.8405C114.766 49.6573 115.126 49.5631 115.491 49.5679C115.831 49.5606 116.166 49.646 116.461 49.8149C116.74 49.9789 116.968 50.2167 117.122 50.5023C117.287 50.8127 117.37 51.1607 117.363 51.5129C117.363 51.5587 117.36 51.6111 117.354 51.6712C117.347 51.7414 117.336 51.8112 117.321 51.8801H113.873V51.3682H116.991L116.778 51.5557C116.79 51.2957 116.739 51.0366 116.631 50.8005C116.532 50.5939 116.376 50.4206 116.182 50.3017C115.97 50.1777 115.728 50.1157 115.483 50.1226C115.219 50.1163 114.958 50.1826 114.729 50.3142C114.516 50.4408 114.342 50.6238 114.225 50.8433C114.099 51.0868 114.037 51.3582 114.043 51.6325C114.037 51.9147 114.103 52.1937 114.234 52.4431C114.357 52.6722 114.542 52.8615 114.767 52.9888C115.01 53.1232 115.283 53.191 115.559 53.1852C115.786 53.1873 116.011 53.1423 116.22 53.0531C116.422 52.9659 116.599 52.8295 116.736 52.6561L117.126 53.0489C116.94 53.2764 116.701 53.4549 116.432 53.5691C116.15 53.6895 115.848 53.7505 115.542 53.7482Z" fill="white"/>
<path d="M119.963 53.7482C119.611 53.7541 119.264 53.6596 118.963 53.4756C118.67 53.2936 118.43 53.0357 118.269 52.7287C118.102 52.3984 118.015 52.0329 118.015 51.6622C118.015 51.2915 118.102 50.9261 118.269 50.5957C118.432 50.2874 118.673 50.0284 118.968 49.8453C119.238 49.6821 119.543 49.5879 119.858 49.5708C120.172 49.5536 120.486 49.6142 120.772 49.7471C121.018 49.8641 121.23 50.0435 121.386 50.2678C121.543 50.4921 121.639 50.7536 121.665 51.0266V52.2812C121.637 52.556 121.539 52.8188 121.381 53.0447C121.226 53.2639 121.019 53.4411 120.78 53.5607C120.526 53.6877 120.246 53.752 119.963 53.7482ZM120.064 53.1769C120.321 53.1824 120.573 53.1142 120.793 52.9805C121.001 52.8499 121.17 52.6639 121.28 52.4431C121.395 52.196 121.454 51.9263 121.453 51.6534C121.453 51.3805 121.392 51.1112 121.276 50.8647C121.164 50.6448 120.994 50.4603 120.785 50.3315C120.562 50.2048 120.31 50.1385 120.054 50.1393C119.797 50.14 119.546 50.2077 119.324 50.3357C119.111 50.4668 118.938 50.6522 118.82 50.8731C118.692 51.1143 118.627 51.3846 118.633 51.6581C118.628 51.9323 118.691 52.2035 118.815 52.4472C118.931 52.6713 119.107 52.8577 119.324 52.9846C119.549 53.1148 119.805 53.1813 120.064 53.1769H120.064ZM122.021 53.6631H121.42V52.5883L121.547 51.5986L121.42 50.6345V47.6224H122.021V53.6631Z" fill="white"/>
<path d="M125.028 53.6631V47.6224H125.629V50.6345L125.511 51.5986L125.629 52.5883V53.6631H125.028ZM127.095 53.7482C126.81 53.7529 126.528 53.6886 126.273 53.5608C126.035 53.4402 125.83 53.2631 125.676 53.0448C125.518 52.8189 125.42 52.556 125.392 52.2812V51.0266C125.418 50.7536 125.514 50.4921 125.671 50.2678C125.827 50.0434 126.039 49.864 126.286 49.7471C126.571 49.6142 126.884 49.5537 127.198 49.5708C127.511 49.5879 127.816 49.6822 128.086 49.8453C128.379 50.0301 128.62 50.2888 128.785 50.5958C128.954 50.9246 129.042 51.2894 129.043 51.6597C129.043 52.03 128.956 52.3951 128.789 52.7246C128.625 53.0312 128.384 53.2887 128.09 53.4709C127.791 53.6566 127.446 53.7528 127.095 53.7483V53.7482ZM126.984 53.1769C127.246 53.1823 127.503 53.1158 127.73 52.9847C127.945 52.856 128.121 52.6701 128.238 52.4473C128.36 52.2025 128.424 51.9322 128.424 51.6581C128.424 51.384 128.36 51.1137 128.238 50.8689C128.122 50.647 127.947 50.4612 127.734 50.3315C127.51 50.2055 127.258 50.1393 127.002 50.1393C126.745 50.1393 126.493 50.2055 126.269 50.3315C126.057 50.4599 125.885 50.6462 125.773 50.8689C125.656 51.1153 125.595 51.385 125.595 51.6581C125.595 51.9312 125.656 52.2009 125.773 52.4473C125.884 52.6691 126.054 52.8552 126.265 52.9847C126.482 53.1151 126.731 53.1817 126.984 53.1769V53.1769Z" fill="white"/>
<path d="M131.143 53.6887L129.39 49.6531H130.05L131.456 53.0144H131.21L132.684 49.6531H133.353L131.482 53.6887H131.143ZM130.05 55.3528L131.151 53.0745L131.482 53.6887L130.711 55.3528H130.05Z" fill="white"/>
<path d="M137.707 53.7483C137.313 53.7651 136.922 53.6836 136.567 53.5109C136.212 53.3382 135.906 53.0797 135.674 52.7586L136.106 52.3325C136.283 52.5928 136.52 52.8063 136.796 52.955C137.088 53.0978 137.408 53.168 137.732 53.1597C138.053 53.1753 138.369 53.0855 138.634 52.9038C138.745 52.8235 138.835 52.7168 138.894 52.5932C138.954 52.4696 138.983 52.333 138.978 52.1956C138.986 51.9921 138.931 51.791 138.821 51.6201C138.712 51.4656 138.569 51.3397 138.402 51.2529C138.217 51.1548 138.026 51.0706 137.83 51.0011C137.623 50.9273 137.416 50.8492 137.208 50.7667C137.005 50.6877 136.813 50.5846 136.636 50.4596C136.461 50.3348 136.318 50.1713 136.216 49.9817C136.101 49.7504 136.046 49.4938 136.056 49.2354C136.047 48.9451 136.127 48.6593 136.284 48.4158C136.441 48.1846 136.66 48.0028 136.915 47.8915C137.202 47.7651 137.513 47.7024 137.826 47.7076C138.175 47.7015 138.522 47.7775 138.838 47.9296C139.126 48.0709 139.379 48.275 139.579 48.5271L139.147 48.9622C138.986 48.7565 138.784 48.5865 138.554 48.4629C138.322 48.3482 138.067 48.2913 137.808 48.2968C137.519 48.282 137.232 48.3661 136.995 48.5355C136.895 48.6136 136.816 48.7149 136.762 48.8307C136.709 48.9465 136.685 49.0734 136.691 49.2008C136.682 49.3899 136.737 49.5764 136.847 49.7299C136.96 49.8734 137.104 49.9901 137.267 50.0715C137.451 50.1666 137.642 50.2478 137.839 50.3143C138.044 50.3858 138.252 50.4637 138.461 50.5488C138.664 50.6314 138.857 50.7405 139.033 50.8732C139.207 51.0069 139.35 51.1773 139.452 51.3725C139.567 51.6127 139.623 51.8777 139.613 52.1444C139.624 52.3679 139.584 52.5911 139.495 52.7963C139.406 53.0014 139.271 53.1829 139.101 53.3264C138.699 53.6268 138.206 53.7761 137.707 53.7483Z" fill="white"/>
<path d="M142.373 53.7482C142.004 53.7535 141.639 53.6577 141.319 53.4709C141.01 53.2905 140.754 53.0299 140.578 52.7163C140.396 52.3912 140.302 52.0232 140.307 51.6498C140.302 51.2776 140.395 50.9108 140.578 50.5874C140.754 50.276 141.01 50.018 141.319 49.8405C141.64 49.6569 142.004 49.5628 142.373 49.568C142.665 49.565 142.953 49.623 143.221 49.7382C143.473 49.8468 143.698 50.0099 143.881 50.2161L143.483 50.6255C143.349 50.4728 143.182 50.3519 142.996 50.2714C142.799 50.1877 142.587 50.1457 142.373 50.1482C142.112 50.1443 141.855 50.212 141.628 50.344C141.411 50.4714 141.233 50.6557 141.112 50.8773C140.984 51.1143 140.92 51.3804 140.925 51.6498C140.921 51.9215 140.985 52.1899 141.112 52.43C141.231 52.6555 141.41 52.8431 141.628 52.9722C141.854 53.1046 142.112 53.1725 142.373 53.1686C142.589 53.1705 142.802 53.1284 143 53.0448C143.19 52.9638 143.36 52.8431 143.5 52.6907L143.898 53.0912C143.712 53.3018 143.482 53.4681 143.225 53.578C142.956 53.693 142.666 53.7509 142.373 53.7482Z" fill="white"/>
<path d="M144.72 53.6631V49.653H145.321V53.6631H144.72ZM145.321 51.3254L145.076 51.223C145.052 50.7878 145.182 50.3583 145.444 50.0113C145.568 49.8642 145.723 49.7477 145.899 49.6709C146.074 49.594 146.265 49.5587 146.456 49.5679C146.645 49.5633 146.832 49.6007 147.005 49.6773C147.178 49.7539 147.331 49.8679 147.456 50.0113L147.057 50.4296C146.973 50.3319 146.867 50.2558 146.748 50.2077C146.622 50.1604 146.489 50.1372 146.354 50.1392C146.216 50.1341 146.079 50.1581 145.951 50.2095C145.822 50.261 145.706 50.3388 145.609 50.438C145.401 50.6839 145.297 51.0028 145.321 51.3254V51.3254Z" fill="white"/>
<path d="M148.379 48.7913C148.325 48.7919 148.271 48.7809 148.221 48.7588C148.171 48.7367 148.127 48.7042 148.091 48.6633C148.013 48.5834 147.971 48.476 147.972 48.3645C147.97 48.3093 147.98 48.2544 148.001 48.2031C148.021 48.1518 148.052 48.1053 148.091 48.0664C148.128 48.0276 148.173 47.997 148.222 47.9764C148.272 47.9559 148.325 47.9458 148.379 47.9468C148.435 47.9444 148.49 47.9539 148.542 47.9745C148.594 47.9951 148.641 48.0264 148.68 48.0664C148.717 48.1059 148.747 48.1527 148.766 48.2039C148.786 48.2551 148.795 48.3097 148.794 48.3645C148.795 48.4752 148.754 48.5821 148.68 48.6633C148.642 48.7055 148.595 48.7388 148.543 48.7609C148.491 48.783 148.435 48.7934 148.379 48.7913ZM148.082 53.6631V49.653H148.684V53.6631L148.082 53.6631Z" fill="white"/>
<path d="M149.878 55.3528V49.6531H150.479V50.6768L150.361 51.6581L150.479 52.6395V55.3528H149.878ZM151.945 53.7483C151.66 53.753 151.378 53.6887 151.123 53.5608C150.885 53.4402 150.68 53.2631 150.526 53.0448C150.368 52.819 150.27 52.5561 150.242 52.2813V51.0267C150.268 50.7537 150.364 50.4922 150.521 50.2678C150.677 50.0435 150.889 49.864 151.136 49.7471C151.421 49.6143 151.734 49.5537 152.048 49.5708C152.362 49.5879 152.666 49.6822 152.936 49.8453C153.229 50.0302 153.47 50.2888 153.635 50.5958C153.804 50.9247 153.892 51.2894 153.893 51.6597C153.894 52.03 153.806 52.3951 153.639 52.7246C153.475 53.0312 153.234 53.2887 152.94 53.4709C152.641 53.6566 152.296 53.7528 151.945 53.7483ZM151.834 53.1769C152.096 53.1823 152.354 53.1159 152.58 52.9847C152.795 52.8561 152.971 52.6701 153.088 52.4473C153.211 52.2025 153.274 51.9322 153.274 51.6581C153.274 51.3841 153.211 51.1138 153.088 50.869C152.972 50.647 152.798 50.4613 152.584 50.3316C152.36 50.2055 152.108 50.1393 151.852 50.1393C151.595 50.1393 151.343 50.2055 151.119 50.3316C150.907 50.4599 150.735 50.6463 150.623 50.869C150.506 51.1153 150.446 51.385 150.446 51.6581C150.446 51.9313 150.506 52.2009 150.623 52.4473C150.734 52.6691 150.904 52.8553 151.115 52.9847C151.332 53.1152 151.581 53.1818 151.834 53.1769H151.834Z" fill="white"/>
<path d="M154.299 50.1994V49.6531H156.899V50.1994H154.299ZM155.298 53.6631V47.9641H155.9V53.6631L155.298 53.6631Z" fill="white"/>
<path d="M159.668 53.6632V47.7933H160.117L160.295 48.5354V53.6632H159.668ZM163.7 53.6632L160.024 48.6294L160.117 47.7933L163.793 52.827L163.7 53.6632ZM163.7 53.6632L163.522 52.9549V47.7933H164.149V53.6632H163.7Z" fill="white"/>
<path d="M167.316 53.7482C166.943 53.7541 166.575 53.66 166.249 53.4756C165.937 53.2974 165.678 53.038 165.5 52.7246C165.32 52.3976 165.226 52.0305 165.224 51.6571C165.223 51.2836 165.315 50.9158 165.491 50.5874C165.664 50.2765 165.917 50.0184 166.224 49.8405C166.541 49.6573 166.9 49.5631 167.266 49.5679C167.605 49.5606 167.94 49.646 168.236 49.8149C168.514 49.9789 168.742 50.2167 168.896 50.5023C169.061 50.8127 169.145 51.1607 169.138 51.5129C169.138 51.5587 169.135 51.6111 169.129 51.6712C169.122 51.7414 169.111 51.8112 169.095 51.8801H165.648V51.3682H168.765L168.553 51.5557C168.565 51.2957 168.514 51.0366 168.405 50.8005C168.307 50.5939 168.151 50.4206 167.956 50.3017C167.744 50.1777 167.502 50.1157 167.257 50.1226C166.993 50.1163 166.733 50.1826 166.503 50.3142C166.291 50.4408 166.116 50.6238 165.999 50.8433C165.874 51.0868 165.811 51.3582 165.817 51.6325C165.811 51.9147 165.877 52.1937 166.008 52.4431C166.131 52.6722 166.316 52.8615 166.542 52.9888C166.784 53.1232 167.057 53.191 167.333 53.1852C167.56 53.1873 167.785 53.1423 167.994 53.0531C168.196 52.9659 168.374 52.8295 168.511 52.6561L168.9 53.0489C168.714 53.2764 168.476 53.4549 168.206 53.5691C167.925 53.6895 167.622 53.7505 167.316 53.7482Z" fill="white"/>
<path d="M169.51 50.1994V49.6531H172.111V50.1994H169.51ZM170.51 53.6631V47.9641H171.111V53.6631L170.51 53.6631Z" fill="white"/>
<path d="M174.033 53.6631L172.492 49.6531H173.119L174.33 52.9806L174.109 52.9889L175.303 49.6531H175.659L176.862 52.9889L176.633 52.9806L177.844 49.6531H178.471L176.93 53.6631H176.574L175.354 50.3786H175.608L174.389 53.6631H174.033Z" fill="white"/>
<path d="M180.91 53.7483C180.541 53.754 180.178 53.6566 179.86 53.4668C179.547 53.2788 179.288 53.0112 179.109 52.6908C178.931 52.3703 178.839 52.0083 178.843 51.6409C178.839 51.2724 178.934 50.9097 179.119 50.5916C179.298 50.283 179.554 50.026 179.86 49.8453C180.178 49.6582 180.541 49.5623 180.91 49.568C181.277 49.5636 181.638 49.6576 181.956 49.8406C182.27 50.0222 182.53 50.2847 182.709 50.6012C182.888 50.9176 182.981 51.2765 182.977 51.6409C182.983 52.009 182.891 52.3722 182.712 52.6931C182.533 53.014 182.272 53.281 181.956 53.4668C181.64 53.6554 181.278 53.7528 180.91 53.7483ZM180.91 53.1686C181.172 53.1726 181.429 53.1047 181.656 52.9722C181.875 52.8422 182.054 52.653 182.172 52.4259C182.299 52.1842 182.363 51.9142 182.359 51.6409C182.363 51.3739 182.297 51.1105 182.168 50.8773C181.97 50.5415 181.649 50.2973 181.275 50.1976C180.9 50.0978 180.501 50.1504 180.165 50.3441C179.948 50.4715 179.769 50.6558 179.648 50.8773C179.522 51.1114 179.458 51.3744 179.462 51.6409C179.457 51.9155 179.521 52.187 179.648 52.43C179.767 52.6555 179.946 52.8432 180.165 52.9722C180.391 53.1047 180.649 53.1726 180.91 53.1686Z" fill="white"/>
<path d="M183.909 53.6631V49.653H184.51V53.6631H183.909ZM184.51 51.3254L184.265 51.223C184.24 50.7878 184.371 50.3583 184.633 50.0113C184.756 49.8642 184.912 49.7477 185.087 49.6709C185.263 49.594 185.453 49.5587 185.645 49.5679C185.833 49.5633 186.021 49.6007 186.193 49.6773C186.366 49.7539 186.52 49.8679 186.644 50.0113L186.246 50.4296C186.162 50.3319 186.056 50.2558 185.937 50.2077C185.811 50.1604 185.677 50.1372 185.543 50.1392C185.405 50.1341 185.268 50.1581 185.139 50.2095C185.011 50.261 184.895 50.3388 184.798 50.438C184.589 50.6839 184.486 51.0028 184.51 51.3254V51.3254Z" fill="white"/>
<path d="M187.263 53.6631V47.6224H187.864V53.6631H187.263ZM189.837 53.6631L187.805 51.6069L189.803 49.6531H190.541L188.363 51.7688L188.381 51.4195L190.625 53.6631L189.837 53.6631Z" fill="white"/>
<path d="M213.914 47.4489H195.178C194.774 47.4489 194.446 47.7791 194.446 48.1864V53.7718C194.446 54.1791 194.774 54.5093 195.178 54.5093H213.914C214.318 54.5093 214.646 54.1791 214.646 53.7718V48.1864C214.646 47.7791 214.318 47.4489 213.914 47.4489Z" fill="#FFEF00"/>
<path d="M197.519 53.29V48.1706H198.354V53.29H197.519ZM198.093 53.29V52.5585H199.552C199.663 52.5651 199.773 52.5469 199.876 52.5052C199.979 52.4636 200.072 52.3995 200.147 52.3175C200.284 52.1654 200.359 51.967 200.357 51.7617C200.358 51.6242 200.326 51.4886 200.263 51.3665C200.2 51.2451 200.105 51.1439 199.987 51.0743C199.855 50.998 199.704 50.96 199.552 50.9642H198.093V50.2333H199.428C199.617 50.243 199.803 50.1832 199.951 50.0649C200.077 49.9304 200.147 49.7525 200.147 49.5677C200.147 49.3828 200.077 49.2049 199.951 49.0704C199.803 48.9522 199.617 48.8923 199.428 48.902H198.093V48.1706H199.45C199.747 48.1599 200.041 48.2254 200.306 48.361C200.518 48.4727 200.695 48.6425 200.815 48.8508C200.925 49.0472 200.983 49.2692 200.982 49.4948C200.986 49.749 200.908 49.9977 200.76 50.2036C200.592 50.4249 200.368 50.5967 200.111 50.7011L200.176 50.4381C200.471 50.551 200.73 50.7433 200.924 50.9939C201.104 51.2361 201.199 51.5322 201.193 51.8349C201.195 52.0892 201.128 52.3394 201 52.5585C200.864 52.7851 200.668 52.9688 200.434 53.0888C200.149 53.231 199.833 53.3001 199.515 53.29H198.093Z" fill="black"/>
<path d="M203.545 53.3632C203.216 53.3683 202.892 53.2864 202.604 53.1258C202.33 52.9709 202.102 52.7448 201.944 52.4711C201.785 52.1857 201.701 51.8643 201.701 51.5372C201.7 51.2101 201.782 50.8883 201.94 50.6024C202.098 50.3271 202.326 50.0992 202.6 49.9418C202.874 49.7844 203.185 49.7033 203.501 49.7067C203.803 49.7007 204.101 49.7792 204.361 49.9334C204.609 50.0833 204.812 50.298 204.949 50.5548C205.095 50.8316 205.169 51.1413 205.163 51.4546C205.163 51.5145 205.16 51.5743 205.153 51.6337C205.145 51.6944 205.134 51.7617 205.12 51.8349H202.26V51.1767H204.706L204.408 51.4397C204.405 51.2527 204.363 51.0684 204.285 50.8987C204.218 50.7583 204.11 50.6412 203.976 50.5625C203.826 50.4802 203.657 50.4397 203.486 50.4452C203.301 50.4408 203.118 50.4862 202.956 50.5768C202.807 50.6637 202.686 50.792 202.608 50.9464C202.522 51.1222 202.479 51.3167 202.485 51.5129C202.48 51.7135 202.525 51.912 202.615 52.0908C202.699 52.2526 202.827 52.3862 202.986 52.4747C203.155 52.5674 203.345 52.6139 203.537 52.6098C203.708 52.6115 203.877 52.5791 204.034 52.5146C204.183 52.4536 204.316 52.3587 204.423 52.2372L204.931 52.7562C204.764 52.9545 204.552 53.1099 204.314 53.2097C204.07 53.3124 203.809 53.3646 203.545 53.3632Z" fill="black"/>
<path d="M205.41 50.5112V49.7799H207.878V50.5113L205.41 50.5112ZM206.245 53.29V48.317H207.043V53.29H206.245Z" fill="black"/>
<path d="M209.816 53.3632C209.515 53.367 209.219 53.2831 208.964 53.1216C208.71 52.9606 208.502 52.735 208.361 52.4675C208.216 52.1798 208.14 51.8614 208.14 51.5385C208.14 51.2155 208.216 50.8972 208.361 50.6095C208.502 50.3415 208.71 50.1149 208.964 49.9518C209.218 49.7882 209.515 49.7029 209.816 49.7066C210.063 49.7018 210.307 49.761 210.525 49.8786C210.727 49.9893 210.896 50.152 211.015 50.35C211.137 50.5552 211.2 50.7909 211.196 51.0302V52.0396C211.2 52.2785 211.138 52.5139 211.018 52.7199C210.9 52.9189 210.731 53.0819 210.528 53.1912C210.309 53.3083 210.064 53.3675 209.816 53.3632ZM209.948 52.6026C210.081 52.6077 210.214 52.5836 210.338 52.5318C210.461 52.48 210.572 52.4018 210.662 52.3026C210.848 52.0916 210.946 51.8166 210.935 51.5349C210.939 51.3423 210.896 51.1517 210.811 50.9791C210.734 50.8234 210.614 50.6928 210.466 50.6023C210.309 50.5099 210.13 50.4631 209.948 50.4672C209.768 50.4636 209.59 50.5104 209.435 50.6023C209.287 50.6933 209.167 50.8237 209.087 50.9791C209.003 51.1521 208.96 51.3423 208.96 51.5349C208.96 51.7276 209.003 51.9177 209.087 52.0908C209.167 52.2461 209.287 52.3765 209.435 52.4675C209.59 52.5594 209.768 52.6062 209.948 52.6026ZM210.884 53.29V52.3467L211.022 51.4909L210.884 50.6428V49.7798H211.682V53.29H210.884Z" fill="black"/>
</svg>
