<svg width="493" height="146" viewBox="0 0 493 146" fill="none" xmlns="http://www.w3.org/2000/svg">
<g clip-path="url(#clip0_53_177)">
<path d="M96.0042 86.7088C93.8961 90.3639 90.4983 92.9823 86.4394 94.0715L59.0578 101.424C57.7255 101.782 56.3541 101.966 54.9824 101.966C49.7123 101.966 44.8089 99.3376 41.8728 94.9345L41.2081 93.9305L83.3755 82.6043C83.4408 82.588 83.5097 82.565 83.5817 82.5453C83.6963 82.5091 83.8369 82.4535 83.9842 82.3878C84.0562 82.3549 84.1316 82.3156 84.2069 82.2763C84.5016 82.1188 84.7699 81.9251 85.0153 81.7022C85.0481 81.6727 85.0842 81.6365 85.1201 81.6005L85.2052 81.5152C85.2086 81.5118 85.2086 81.5118 85.2086 81.5118L85.2641 81.4528C85.3786 81.3248 85.4999 81.1707 85.6111 81.0033L85.6405 80.9573C85.6571 80.9343 85.67 80.9146 85.6865 80.8919L85.7159 80.8424C85.7193 80.8391 85.7226 80.8326 85.7257 80.8262L85.7585 80.7669C85.8044 80.6917 85.847 80.6128 85.8862 80.5308C85.9974 80.3011 86.0859 80.0583 86.1546 79.8056C86.1708 79.7531 86.1806 79.7039 86.1907 79.6582C86.2593 79.3462 86.2921 79.0183 86.2823 78.6836C86.2789 78.6016 86.2725 78.5129 86.2658 78.4211C86.2529 78.2832 86.2299 78.1325 86.2005 77.9881L86.1971 77.9651C86.184 77.9059 86.1677 77.8503 86.1546 77.7944C86.1383 77.7321 86.1184 77.6599 86.0957 77.5911C86.0596 77.4763 86.0038 77.3351 85.9386 77.1874C85.9024 77.1152 85.8666 77.0397 85.8271 76.9645C85.6702 76.6691 85.477 76.4001 85.2543 76.1539C85.2249 76.121 85.189 76.0851 85.1529 76.0489C84.9761 75.8683 84.7798 75.7044 84.5604 75.5601C84.4884 75.5075 84.4131 75.4615 84.3313 75.4157C84.2529 75.3697 84.1708 75.327 84.089 75.2877C83.9582 75.2287 83.8436 75.1762 83.7324 75.1369C83.6601 75.1072 83.6047 75.0909 83.5489 75.0712C83.4999 75.0547 83.4509 75.0417 83.3985 75.0286L83.215 74.9825C82.9041 74.9137 82.5736 74.8809 82.2397 74.8907C82.161 74.8941 82.0694 74.9005 81.9778 74.9073C81.9122 74.9137 81.8304 74.9235 81.7486 74.9367L81.2117 75.0811L53.6633 82.4796L53.5748 82.4993C53.4014 82.5419 53.2213 82.588 53.0415 82.6273L52.9922 82.6371C51.9185 82.8637 50.8221 82.9785 49.7289 82.9785C46.8123 82.9785 43.9448 82.1517 41.4341 80.5897C41.3294 80.5243 41.2246 80.4553 41.1165 80.3865L40.9921 80.3076C40.9921 80.3076 40.989 80.3076 40.989 80.3045C40.9431 80.275 40.8972 80.2422 40.8546 80.2093C39.2476 79.1135 37.866 77.7385 36.7596 76.1244L36.6254 75.9242C36.5405 75.7962 36.4585 75.6684 36.3736 75.537C35.5453 74.2051 34.9234 72.7712 34.5274 71.2719C33.4372 67.2032 34.0002 62.9479 36.1083 59.2895C38.2131 55.6313 41.6109 53.0162 45.6666 51.9238L73.0514 44.571C79.5752 42.819 86.482 45.4304 90.2397 51.0674L90.9042 52.0681L48.737 63.394C48.6714 63.4106 48.6126 63.4303 48.5504 63.4465C48.4162 63.4892 48.2818 63.5417 48.1314 63.6105C48.0462 63.6467 47.9709 63.686 47.8958 63.7253C47.6109 63.8798 47.3426 64.0698 47.1003 64.2897L46.9921 64.3947C46.8154 64.5719 46.6484 64.7687 46.5011 64.9919C46.4521 65.0641 46.4031 65.143 46.3571 65.2216C46.3115 65.3005 46.2689 65.3824 46.2294 65.4644C46.1117 65.7039 46.0232 65.9434 45.961 66.1829L45.9479 66.2321C45.9414 66.2618 45.935 66.2846 45.9283 66.314L45.912 66.3896C45.8498 66.6948 45.8235 67.003 45.8333 67.3082C45.8367 67.4068 45.8434 67.4888 45.8498 67.5772C45.8661 67.7218 45.8857 67.8661 45.9154 68.0071C45.9283 68.063 45.9448 68.1253 45.961 68.1941C46.0134 68.3943 46.079 68.5846 46.1608 68.7716C46.2067 68.8831 46.2655 68.9915 46.3342 69.1195C46.3865 69.2211 46.4521 69.3197 46.5406 69.4443C47.398 70.6648 48.8972 71.3013 50.3571 71.0649L50.9692 70.901L78.2853 63.5647C78.3215 63.5549 78.3705 63.5417 78.413 63.5319L78.6422 63.476C78.8027 63.4367 78.9629 63.3974 79.1234 63.3646C83.1005 62.5214 87.2053 63.2464 90.675 65.4119L90.7537 65.4611C90.8126 65.4973 90.8714 65.5332 90.9336 65.5759L90.9958 65.6186C91.0549 65.6579 91.117 65.6975 91.1759 65.7368C91.1988 65.7531 91.2218 65.7696 91.2479 65.7859L91.7717 66.1599C93.1627 67.1934 94.3675 68.4403 95.3526 69.8807L96.135 71.052L96.0924 71.0649C96.747 72.2234 97.2479 73.4568 97.5916 74.7399C98.6717 78.7951 98.112 83.0473 96.0042 86.7088Z" fill="url(#paint0_linear_53_177)"/>
<path d="M92.9728 12.1315C87.6406 9.04739 81.0744 9.04739 75.7452 12.1315L64.1217 18.8543L56.93 23.0146L20.2391 44.2492C19.0476 44.9382 18.3078 46.2211 18.3078 47.6025V98.3894C18.3078 99.7674 19.0476 101.053 20.2391 101.742L8.61546 95.0165C3.28643 91.9323 0 86.2298 0 80.0616V47.6025C0 39.6887 4.24879 32.3163 11.0836 28.3627L51.5717 4.92972L54.9628 2.96768C61.8009 -0.989225 70.292 -0.989225 77.1299 2.96768L84.3543 7.14768L92.9728 12.1315Z" fill="url(#paint1_linear_53_177)"/>
<path d="M113.795 98.3936V111.846C113.795 118.014 110.512 123.716 105.179 126.8L102.747 128.208V128.211L77.1332 143.032C73.7158 145.01 69.8828 146.001 66.053 146.001C62.22 146.001 58.3869 145.01 54.9695 143.032L11.087 117.637C8.58613 116.19 6.43555 114.293 4.71378 112.082C1.71211 108.237 0.00341797 103.437 0.00341797 98.3936V80.0658C0.00341797 86.2341 3.28657 91.9365 8.61887 95.0207L20.2425 101.747L32.6649 108.935L64.1217 127.142C65.3133 127.831 66.7928 127.831 67.9844 127.142L111.867 101.747C111.87 101.747 111.87 101.743 111.87 101.743C111.873 101.74 111.88 101.737 111.886 101.734C113.068 101.038 113.795 99.7683 113.795 98.3936Z" fill="url(#paint2_linear_53_177)"/>
<path d="M132.099 47.6033V98.39C132.099 101.95 131.242 105.395 129.674 108.476C127.775 112.206 124.832 115.396 121.117 117.571L113.794 121.81L105.179 126.797C110.508 123.713 113.794 118.01 113.794 111.842V47.6033C113.794 47.5278 113.791 47.4522 113.785 47.3801C113.785 47.3638 113.785 47.3475 113.782 47.331C113.782 47.3211 113.778 47.3113 113.778 47.3015C113.775 47.2425 113.768 47.1833 113.762 47.1277C113.762 47.1209 113.762 47.1145 113.759 47.1077C113.759 47.1047 113.755 47.1013 113.755 47.0979C113.755 47.0948 113.755 47.0881 113.752 47.0881C113.752 47.0783 113.749 47.0684 113.749 47.0586C113.742 46.9865 113.729 46.9177 113.713 46.8486V46.8455C113.706 46.8157 113.7 46.7832 113.693 46.7534C113.687 46.7239 113.677 46.6945 113.67 46.6616C113.667 46.6518 113.667 46.6453 113.664 46.6355C113.66 46.6321 113.66 46.6257 113.66 46.6223C113.657 46.6125 113.657 46.6057 113.657 46.5993C113.657 46.5959 113.654 46.5928 113.654 46.5894C113.654 46.5861 113.654 46.5861 113.654 46.5861C113.634 46.5108 113.611 46.4387 113.585 46.3631V46.3598C113.562 46.2941 113.539 46.2253 113.513 46.1596C113.51 46.1498 113.503 46.1366 113.5 46.1267C113.497 46.1169 113.493 46.1105 113.49 46.1006C113.461 46.0318 113.431 45.9661 113.398 45.9004C113.366 45.8347 113.333 45.7724 113.297 45.707C113.291 45.6904 113.281 45.6772 113.274 45.6643C113.274 45.6609 113.271 45.6545 113.268 45.6511C113.238 45.5986 113.205 45.5427 113.169 45.4902C113.163 45.4804 113.156 45.4739 113.153 45.4675V45.4641C113.117 45.4116 113.081 45.3557 113.042 45.3032C113.032 45.287 113.022 45.2738 113.012 45.2606V45.2575C112.966 45.1982 112.921 45.1359 112.865 45.0769C112.852 45.0607 112.835 45.0407 112.819 45.0244C112.806 45.0082 112.79 44.9916 112.773 44.9753C112.747 44.9425 112.714 44.9096 112.685 44.8801C112.662 44.8571 112.642 44.8374 112.619 44.8144C112.61 44.808 112.603 44.7981 112.596 44.7914C112.574 44.7687 112.547 44.7456 112.524 44.7192C112.521 44.7159 112.515 44.7094 112.508 44.703C112.498 44.6931 112.485 44.6799 112.472 44.6735C112.436 44.6373 112.397 44.6044 112.354 44.5749C112.341 44.5651 112.328 44.5519 112.315 44.5421C112.312 44.5387 112.305 44.5322 112.299 44.5289C112.256 44.4929 112.21 44.4635 112.165 44.4306C112.148 44.414 112.128 44.4042 112.112 44.3913C112.112 44.3913 112.112 44.3913 112.109 44.3913V44.3879C112.093 44.3781 112.079 44.3714 112.066 44.3615C112.063 44.3585 112.056 44.3517 112.05 44.3517C112.001 44.3158 111.949 44.2829 111.896 44.2534C111.883 44.2467 111.87 44.2369 111.857 44.2304L75.1657 22.9957L67.9743 18.8354C67.3785 18.4909 66.7107 18.3203 66.0463 18.3203C65.3785 18.3203 64.7107 18.4942 64.1149 18.8354L75.7385 12.1126C81.0677 9.02847 87.6341 9.02847 92.9664 12.1126L111.778 22.999L121.012 28.3437C127.854 32.3171 132.099 39.6895 132.099 47.6033Z" fill="url(#paint3_linear_53_177)"/>
<path d="M172.499 95.8917C168.918 95.0224 166.361 93.992 164.833 92.8077L168.587 83.9228C172.761 86.8492 177.52 88.3126 182.876 88.3126C188.231 88.3126 190.905 86.7442 190.905 83.6077C190.905 82.2132 190.348 81.1339 189.236 80.366C188.123 79.5984 186.142 78.6926 183.291 77.6462L179.327 76.1828C175.154 74.5094 171.851 72.5081 169.419 70.1718C166.983 67.8392 165.769 64.7549 165.769 60.9196C165.769 56.5295 167.491 53.0977 170.931 50.6204C174.371 48.1466 178.977 46.9095 184.751 46.9095C187.602 46.9095 190.401 47.2245 193.147 47.8512C195.894 48.4779 197.998 49.2817 199.458 50.2563L195.389 59.2462C194.486 58.3408 193.043 57.5566 191.062 56.8937C189.082 56.2311 186.872 55.8995 184.44 55.8995C179.504 55.8995 177.036 57.3991 177.036 60.3946C177.036 62.068 177.697 63.341 179.016 64.2102C180.335 65.0831 182.493 66.0411 185.481 67.0845C185.759 67.1533 186.836 67.5374 188.715 68.2362C193.164 69.9784 196.466 71.9668 198.624 74.1944C200.777 76.4257 201.858 79.2833 201.858 82.7677C201.858 87.5088 200.067 91.0981 196.486 93.536C192.905 95.977 188.368 97.1944 182.876 97.1944C179.54 97.1975 176.08 96.7612 172.499 95.8917Z" fill="white"/>
<path d="M219.066 94.1144C215.275 92.0603 212.267 89.0976 210.044 85.2295C207.819 81.361 206.706 76.8134 206.706 71.5869C206.706 66.6392 207.73 62.3016 209.782 58.571C211.832 54.8438 214.719 51.9698 218.44 49.9455C222.159 47.9242 226.454 46.9137 231.321 46.9137C235.007 46.9137 238.185 47.3829 240.863 48.3246C243.537 49.2663 245.642 50.4343 247.174 51.8252L242.166 60.9202C239.246 57.9937 235.943 56.5304 232.257 56.5304C227.805 56.5304 224.418 57.8887 222.087 60.6085C219.756 63.3253 218.594 66.9508 218.594 71.4819C218.594 76.6396 219.792 80.649 222.192 83.5036C224.591 86.3612 227.943 87.7884 232.257 87.7884C234.411 87.7884 236.516 87.4737 238.568 86.847C240.617 86.2203 242.202 85.4886 243.315 84.6519L247.383 92.5985C245.855 93.7862 243.714 94.8458 240.968 95.7875C238.221 96.7292 235.18 97.1984 231.842 97.1984C227.112 97.1984 222.856 96.1716 219.066 94.1144Z" fill="white"/>
<path d="M252.228 48.1671H263.492V57.5771C264.605 54.3715 266.412 51.7927 268.916 49.8405C271.42 47.8914 274.268 46.9137 277.469 46.9137C279.695 46.9137 281.223 47.1237 282.058 47.5404L280.495 58.9354C279.868 58.5185 278.513 58.3087 276.425 58.3087C273.154 58.3087 270.182 59.3552 267.508 61.4452C264.83 63.5353 263.492 66.882 263.492 71.4819V96.155H252.228V48.1671Z" fill="white"/>
<path d="M289.097 36.9818C287.635 35.5184 286.906 33.7072 286.906 31.545C286.906 29.5962 287.635 27.9229 289.097 26.5285C290.556 25.134 292.363 24.4384 294.52 24.4384C296.604 24.4384 298.38 25.1373 299.839 26.5285C301.299 27.9229 302.03 29.5962 302.03 31.545C302.03 33.7072 301.315 35.5184 299.892 36.9818C298.464 38.4452 296.674 39.1768 294.52 39.1768C292.363 39.1768 290.556 38.4452 289.097 36.9818ZM288.78 48.1668H300.464V96.1514H288.78V48.1668Z" fill="white"/>
<path d="M306.873 48.1662H317.722V57.0512C321.545 50.2922 327.526 46.9095 335.657 46.9095C342.403 46.9095 347.862 49.0521 352.036 53.3403C356.209 57.6287 358.293 63.8132 358.293 71.8977C358.293 76.9145 357.265 81.3439 355.218 85.1761C353.164 89.0083 350.383 91.971 346.873 94.0611C343.36 96.1508 339.45 97.1975 335.139 97.1975C331.106 97.1975 327.61 96.4824 324.657 95.055C321.702 93.6278 319.391 91.5903 317.722 88.9393L317.825 121.556H306.873V48.1662ZM342.963 83.3486C345.394 80.4578 346.613 76.7471 346.613 72.2161C346.613 67.4781 345.414 63.6953 343.013 60.8736C340.615 58.0518 337.122 56.641 332.531 56.641C330.03 56.641 327.683 57.2514 325.492 58.4719C323.302 59.6924 321.565 61.4346 320.276 63.6984C318.991 65.9656 318.349 68.597 318.349 71.5925V72.3242C318.349 75.3231 318.991 77.9873 320.276 80.3233C321.565 82.6596 323.285 84.4706 325.439 85.7601C327.593 87.0494 329.96 87.6927 332.531 87.6927C337.05 87.6859 340.526 86.2391 342.963 83.3486Z" fill="white"/>
<path d="M410.935 57.3665H402.487V48.1665H410.935V28.6182L422.305 26.1083V48.1665H433.358V57.3665H422.305V96.1511H410.935V57.3665Z" fill="white"/>
<path d="M371.588 57.3665H363.139V48.1665H371.588V28.6182L382.955 26.1083V48.1665H394.011V57.3665H382.955V96.1511H371.588V57.3665Z" fill="white"/>
<path d="M491.653 48.1859L461.944 96.1511H447.624L437.039 48.1859H450.736L457.672 80.9073L477.776 48.1859H491.653Z" fill="white"/>
<path d="M398.249 96.1522C400.588 96.1522 402.484 94.2514 402.484 91.9064C402.484 89.5617 400.588 87.6609 398.249 87.6609C395.91 87.6609 394.013 89.5617 394.013 91.9064C394.013 94.2514 395.91 96.1522 398.249 96.1522Z" fill="white"/>
</g>
<defs>
<linearGradient id="paint0_linear_53_177" x1="66.0564" y1="44.0319" x2="66.0564" y2="101.966" gradientUnits="userSpaceOnUse">
<stop stop-color="white"/>
<stop offset="1" stop-color="white" stop-opacity="0.55"/>
</linearGradient>
<linearGradient id="paint1_linear_53_177" x1="46.4865" y1="7.01923e-07" x2="46.4865" y2="101.742" gradientUnits="userSpaceOnUse">
<stop stop-color="white"/>
<stop offset="1" stop-color="white" stop-opacity="0.55"/>
</linearGradient>
<linearGradient id="paint2_linear_53_177" x1="56.8992" y1="80.0658" x2="56.8992" y2="146.001" gradientUnits="userSpaceOnUse">
<stop stop-color="white"/>
<stop offset="1" stop-color="white" stop-opacity="0.55"/>
</linearGradient>
<linearGradient id="paint3_linear_53_177" x1="98.107" y1="9.79949" x2="98.107" y2="126.797" gradientUnits="userSpaceOnUse">
<stop stop-color="white"/>
<stop offset="1" stop-color="white" stop-opacity="0.55"/>
</linearGradient>
<clipPath id="clip0_53_177">
<rect width="493" height="146" fill="white"/>
</clipPath>
</defs>
</svg>
