<svg width="135" height="40" viewBox="0 0 135 40" fill="none" xmlns="http://www.w3.org/2000/svg">
<g clip-path="url(#clip0_104_1308)">
<path d="M26.2892 23.7559C25.7119 24.7573 24.7815 25.4746 23.67 25.773L16.172 27.7875C15.8072 27.8855 15.4317 27.9358 15.056 27.9358C13.6129 27.9358 12.2702 27.2158 11.4662 26.0095L11.2842 25.7344L22.831 22.6313C22.8489 22.6269 22.8678 22.6206 22.8875 22.6152C22.9189 22.6053 22.9574 22.59 22.9977 22.572C23.0174 22.563 23.0381 22.5523 23.0587 22.5415C23.1394 22.4983 23.2129 22.4453 23.2801 22.3842C23.289 22.3761 23.2989 22.3662 23.3087 22.3563L23.3321 22.333C23.333 22.332 23.333 22.332 23.333 22.332L23.3482 22.3159C23.3795 22.2808 23.4128 22.2386 23.4432 22.1927L23.4513 22.1801C23.4558 22.1738 23.4593 22.1684 23.4638 22.1622L23.4719 22.1486C23.4728 22.1477 23.4737 22.1459 23.4746 22.1442L23.4836 22.1279C23.4961 22.1073 23.5078 22.0857 23.5185 22.0633C23.549 22.0003 23.5732 21.9338 23.592 21.8646C23.5965 21.8502 23.5992 21.8367 23.6019 21.8242C23.6207 21.7387 23.6297 21.6489 23.627 21.5572C23.6261 21.5347 23.6243 21.5104 23.6225 21.4853C23.6189 21.4475 23.6127 21.4062 23.6046 21.3666L23.6037 21.3603C23.6001 21.3441 23.5956 21.3289 23.592 21.3136C23.5876 21.2965 23.5821 21.2767 23.5759 21.2579C23.566 21.2264 23.5508 21.1877 23.5329 21.1473C23.523 21.1275 23.5132 21.1068 23.5024 21.0862C23.4594 21.0053 23.4065 20.9316 23.3455 20.8641C23.3374 20.8551 23.3276 20.8453 23.3177 20.8353C23.2693 20.7859 23.2156 20.7409 23.1555 20.7014C23.1358 20.687 23.1151 20.6744 23.0927 20.6619C23.0713 20.6493 23.0488 20.6376 23.0264 20.6268C22.9906 20.6106 22.9592 20.5963 22.9288 20.5855C22.909 20.5773 22.8938 20.5729 22.8785 20.5675C22.8651 20.5629 22.8517 20.5594 22.8373 20.5558L22.7871 20.5432C22.7019 20.5243 22.6114 20.5153 22.52 20.518C22.4984 20.519 22.4734 20.5207 22.4483 20.5226C22.4303 20.5243 22.4079 20.527 22.3855 20.5306L22.2385 20.5702L14.6948 22.5972L14.6706 22.6026C14.6231 22.6143 14.5738 22.6269 14.5245 22.6376L14.511 22.6403C14.217 22.7024 13.9168 22.7339 13.6174 22.7339C12.8188 22.7339 12.0336 22.5073 11.3461 22.0794C11.3174 22.0615 11.2887 22.0426 11.2591 22.0237L11.225 22.0021C11.225 22.0021 11.2242 22.0021 11.2242 22.0013C11.2116 21.9932 11.199 21.9842 11.1874 21.9752C10.7473 21.6749 10.369 21.2983 10.066 20.856L10.0293 20.8012C10.006 20.7661 9.98356 20.7311 9.96032 20.6951C9.7335 20.3302 9.56322 19.9373 9.45476 19.5266C9.15622 18.4119 9.3104 17.246 9.88768 16.2437C10.464 15.2415 11.3945 14.525 12.5051 14.2257L20.0039 12.2113C21.7904 11.7313 23.6817 12.4467 24.7107 13.9911L24.8926 14.2653L13.3458 17.3683C13.3279 17.3728 13.3118 17.3782 13.2947 17.3826C13.258 17.3943 13.2212 17.4087 13.18 17.4276C13.1567 17.4375 13.136 17.4483 13.1155 17.459C13.0375 17.5013 12.964 17.5534 12.8976 17.6136L12.868 17.6424C12.8196 17.6909 12.7739 17.7449 12.7336 17.806C12.7201 17.8258 12.7067 17.8474 12.6941 17.8689C12.6816 17.8906 12.67 17.913 12.6592 17.9355C12.627 18.0011 12.6027 18.0667 12.5857 18.1323L12.5821 18.1458C12.5803 18.1539 12.5785 18.1602 12.5767 18.1683L12.5723 18.1889C12.5552 18.2726 12.548 18.357 12.5507 18.4406C12.5516 18.4676 12.5535 18.4901 12.5552 18.5143C12.5597 18.5539 12.5651 18.5935 12.5732 18.6321C12.5767 18.6474 12.5812 18.6645 12.5857 18.6833C12.6 18.7382 12.618 18.7903 12.6404 18.8416C12.653 18.8721 12.6691 18.9018 12.6879 18.9369C12.7022 18.9647 12.7201 18.9917 12.7444 19.0259C12.9792 19.3603 13.3897 19.5346 13.7895 19.4699L13.9571 19.4249L21.4372 17.415C21.4471 17.4123 21.4605 17.4087 21.4721 17.406L21.5349 17.3907C21.5788 17.3799 21.6227 17.3692 21.6667 17.3602C22.7557 17.1292 23.8797 17.3278 24.8299 17.9211L24.8514 17.9346C24.8675 17.9445 24.8836 17.9543 24.9007 17.966L24.9177 17.9777C24.9339 17.9885 24.9509 17.9993 24.967 18.0101C24.9733 18.0146 24.9796 18.0191 24.9867 18.0236L25.1302 18.126C25.5111 18.4092 25.841 18.7508 26.1108 19.1454L26.325 19.4663L26.3133 19.4699C26.4926 19.7873 26.6297 20.1252 26.7239 20.4767C27.0196 21.5877 26.8664 22.7527 26.2892 23.7559Z" fill="url(#paint0_linear_104_1308)"/>
<path d="M25.4591 3.32371C23.9989 2.47874 22.2009 2.47874 20.7416 3.32371L17.5587 5.16557L15.5894 6.30538L5.54215 12.1231C5.21588 12.3118 5.0133 12.6633 5.0133 13.0418V26.956C5.0133 27.3335 5.21588 27.6858 5.54215 27.8746L2.3592 26.0319C0.899936 25.1869 0 23.6246 0 21.9347V13.0418C0 10.8736 1.16346 8.85377 3.03505 7.77062L14.1221 1.35061L15.0507 0.813062C16.9232 -0.271021 19.2483 -0.271021 21.1208 0.813062L23.099 1.95827L25.4591 3.32371Z" fill="url(#paint1_linear_104_1308)"/>
<path d="M31.1608 26.9571V30.6426C31.1608 32.3326 30.2618 33.8949 28.8016 34.7398L28.1357 35.1255V35.1263L21.1217 39.1867C20.1859 39.7287 19.1362 40.0003 18.0875 40.0003C17.0379 40.0003 15.9883 39.7287 15.0525 39.1867L3.03597 32.2292C2.35115 31.8328 1.76225 31.3132 1.29077 30.7073C0.468812 29.6538 0.000915527 28.3387 0.000915527 26.9571V21.9358C0.000915527 23.6257 0.899954 25.188 2.36012 26.033L5.54306 27.8758L8.94473 29.8453L17.5586 34.8333C17.8849 35.0221 18.2901 35.0221 18.6164 34.8333L30.6329 27.8758C30.6338 27.8758 30.6338 27.8749 30.6338 27.8749C30.6347 27.8739 30.6365 27.8731 30.6382 27.8722C30.9618 27.6816 31.1608 27.3337 31.1608 26.9571Z" fill="url(#paint2_linear_104_1308)"/>
<path d="M36.1732 13.042V26.9562C36.1732 27.9315 35.9384 28.8753 35.509 29.7194C34.9891 30.7415 34.1833 31.6152 33.1659 32.2112L31.1608 33.3726L28.8016 34.7389C30.2609 33.8939 31.1608 32.3316 31.1608 30.6417V13.042C31.1608 13.0213 31.1599 13.0006 31.1581 12.9809C31.1581 12.9764 31.1581 12.9719 31.1572 12.9674C31.1572 12.9647 31.1563 12.962 31.1563 12.9593C31.1554 12.9432 31.1536 12.9269 31.1518 12.9117C31.1518 12.9099 31.1519 12.9081 31.1509 12.9062C31.1509 12.9054 31.15 12.9045 31.15 12.9036C31.15 12.9027 31.15 12.9009 31.1491 12.9009C31.1491 12.8982 31.1483 12.8955 31.1483 12.8928C31.1464 12.873 31.1429 12.8542 31.1384 12.8352V12.8344C31.1366 12.8262 31.1348 12.8173 31.133 12.8092C31.1312 12.8011 31.1285 12.793 31.1267 12.784C31.1259 12.7813 31.1259 12.7796 31.1249 12.7769C31.124 12.7759 31.124 12.7742 31.124 12.7732C31.1232 12.7706 31.1232 12.7687 31.1232 12.7669C31.1232 12.766 31.1223 12.7652 31.1223 12.7642C31.1223 12.7633 31.1223 12.7633 31.1223 12.7633C31.1169 12.7427 31.1106 12.7229 31.1034 12.7022V12.7013C31.0972 12.6833 31.0909 12.6645 31.0837 12.6465C31.0828 12.6438 31.081 12.6402 31.0801 12.6375C31.0792 12.6348 31.0783 12.633 31.0775 12.6303C31.0693 12.6115 31.0613 12.5935 31.0523 12.5755C31.0434 12.5575 31.0344 12.5404 31.0245 12.5225C31.0228 12.5179 31.0201 12.5143 31.0182 12.5108C31.0182 12.5099 31.0174 12.5081 31.0165 12.5072C31.0084 12.4928 30.9994 12.4775 30.9896 12.4631C30.9878 12.4604 30.986 12.4586 30.9851 12.4569V12.4559C30.9752 12.4416 30.9654 12.4262 30.9547 12.4119C30.952 12.4074 30.9493 12.4038 30.9465 12.4002V12.3993C30.934 12.3831 30.9214 12.366 30.9063 12.3499C30.9026 12.3454 30.8981 12.3399 30.8937 12.3355C30.8901 12.331 30.8856 12.3265 30.8811 12.322C30.874 12.313 30.865 12.304 30.8569 12.2959C30.8506 12.2896 30.8453 12.2842 30.839 12.2779C30.8363 12.2762 30.8345 12.2735 30.8327 12.2716C30.8265 12.2654 30.8193 12.2591 30.813 12.2519C30.8121 12.2509 30.8103 12.2492 30.8085 12.2474C30.8058 12.2447 30.8022 12.2411 30.7986 12.2393C30.7888 12.2294 30.7781 12.2204 30.7664 12.2123C30.7628 12.2096 30.7592 12.206 30.7556 12.2033C30.7548 12.2024 30.7529 12.2006 30.7512 12.1997C30.7395 12.1899 30.7269 12.1818 30.7144 12.1728C30.7099 12.1682 30.7045 12.1656 30.7001 12.162C30.7001 12.162 30.7001 12.162 30.6991 12.162V12.1611C30.6947 12.1584 30.6911 12.1566 30.6875 12.1539C30.6866 12.153 30.6848 12.1512 30.683 12.1512C30.6696 12.1413 30.6553 12.1323 30.6409 12.1242C30.6373 12.1224 30.6337 12.1197 30.6301 12.1179L20.5829 6.30022L18.6137 5.1604C18.4505 5.06602 18.2676 5.01927 18.0857 5.01927C17.9028 5.01927 17.72 5.06692 17.5568 5.1604L20.7398 3.31854C22.1991 2.47357 23.9972 2.47357 25.4573 3.31854L30.6086 6.30112L33.1373 7.7654C35.0106 8.85402 36.1732 10.8739 36.1732 13.042Z" fill="url(#paint3_linear_104_1308)"/>
<path d="M47.236 26.2717C46.2554 26.0335 45.5554 25.7512 45.1368 25.4268L46.1648 22.9925C47.3077 23.7943 48.611 24.1952 50.0775 24.1952C51.5439 24.1952 52.2762 23.7655 52.2762 22.9062C52.2762 22.5242 52.1238 22.2285 51.8191 22.0181C51.5143 21.8078 50.972 21.5596 50.1913 21.2729L49.1058 20.872C47.963 20.4135 47.0585 19.8652 46.3926 19.2252C45.7256 18.5861 45.3931 17.7411 45.3931 16.6903C45.3931 15.4875 45.8646 14.5473 46.8066 13.8686C47.7487 13.1909 49.0099 12.8519 50.5911 12.8519C51.3718 12.8519 52.1381 12.9382 52.8902 13.1099C53.6422 13.2816 54.2186 13.5019 54.6184 13.7689L53.5042 16.2319C53.2568 15.9838 52.8615 15.7689 52.3192 15.5873C51.7769 15.4058 51.1719 15.3149 50.5059 15.3149C49.1542 15.3149 48.4783 15.7258 48.4783 16.5465C48.4783 17.0049 48.6594 17.3537 49.0206 17.5919C49.3819 17.831 49.9726 18.0935 50.791 18.3793C50.8671 18.3982 51.1621 18.5034 51.6765 18.6949C52.8947 19.1722 53.7991 19.7169 54.3898 20.3272C54.9796 20.9385 55.2754 21.7215 55.2754 22.6761C55.2754 23.975 54.7851 24.9584 53.8045 25.6263C52.8239 26.2951 51.5816 26.6286 50.0775 26.6286C49.1641 26.6295 48.2166 26.5099 47.236 26.2717Z" fill="black"/>
<path d="M59.9876 25.7847C58.9496 25.2219 58.1259 24.4103 57.5172 23.3505C56.9077 22.2906 56.603 21.0447 56.603 19.6128C56.603 18.2573 56.8835 17.0689 57.4455 16.0468C58.0067 15.0256 58.7972 14.2383 59.8164 13.6836C60.8346 13.1299 62.0106 12.853 63.3435 12.853C64.3528 12.853 65.2232 12.9816 65.9564 13.2396C66.6887 13.4976 67.265 13.8176 67.6845 14.1986L66.3131 16.6904C65.5136 15.8886 64.6092 15.4877 63.5999 15.4877C62.3808 15.4877 61.4531 15.8599 60.8149 16.605C60.1767 17.3493 59.8585 18.3426 59.8585 19.584C59.8585 20.9971 60.1865 22.0956 60.8436 22.8776C61.5006 23.6606 62.4185 24.0516 63.5999 24.0516C64.1897 24.0516 64.766 23.9653 65.328 23.7936C65.8891 23.622 66.323 23.4215 66.6277 23.1923L67.7419 25.3694C67.3233 25.6948 66.7371 25.9851 65.9851 26.2431C65.233 26.5011 64.4003 26.6296 63.486 26.6296C62.1908 26.6296 61.0255 26.3483 59.9876 25.7847Z" fill="black"/>
<path d="M69.0685 13.1964H72.1529V15.7745C72.4577 14.8963 72.9525 14.1897 73.6381 13.6549C74.3239 13.1209 75.1037 12.853 75.9803 12.853C76.5899 12.853 77.0083 12.9106 77.2369 13.0247L76.8089 16.1466C76.6374 16.0324 76.2663 15.975 75.6944 15.975C74.7989 15.975 73.9851 16.2616 73.2527 16.8343C72.5195 17.4069 72.1529 18.3238 72.1529 19.584V26.3438H69.0685V13.1964Z" fill="black"/>
<path d="M79.1645 10.132C78.7641 9.73105 78.5646 9.23482 78.5646 8.64243C78.5646 8.10851 78.7641 7.65007 79.1645 7.26804C79.5641 6.886 80.0588 6.69543 80.6495 6.69543C81.2201 6.69543 81.7065 6.8869 82.1061 7.26804C82.5057 7.65007 82.7059 8.10851 82.7059 8.64243C82.7059 9.23482 82.5103 9.73105 82.1207 10.132C81.7295 10.5329 81.2393 10.7334 80.6495 10.7334C80.0588 10.7334 79.5641 10.5329 79.1645 10.132ZM79.0778 13.1964H82.2771V26.3428H79.0778V13.1964Z" fill="black"/>
<path d="M84.0321 13.1962H87.0029V15.6305C88.0499 13.7787 89.6875 12.8519 91.9143 12.8519C93.7613 12.8519 95.2563 13.4389 96.3992 14.6138C97.5421 15.7887 98.1128 17.4831 98.1128 19.698C98.1128 21.0725 97.8312 22.286 97.2705 23.3359C96.7083 24.3859 95.9466 25.1975 94.9855 25.7702C94.0236 26.3427 92.9528 26.6295 91.7724 26.6295C90.6678 26.6295 89.7105 26.4335 88.9021 26.0425C88.0928 25.6515 87.46 25.0932 87.0029 24.3669L87.0312 33.303H84.0321V13.1962ZM93.9147 22.8352C94.5805 22.0432 94.9142 21.0266 94.9142 19.7852C94.9142 18.4872 94.5859 17.4508 93.9285 16.6777C93.2719 15.9046 92.3154 15.5181 91.0582 15.5181C90.3733 15.5181 89.7305 15.6853 89.1307 16.0197C88.5308 16.3541 88.0553 16.8314 87.7024 17.4516C87.3503 18.0728 87.1747 18.7937 87.1747 19.6144V19.8149C87.1747 20.6365 87.3503 21.3664 87.7024 22.0064C88.0553 22.6465 88.5262 23.1426 89.1161 23.4959C89.7059 23.8492 90.3541 24.0254 91.0582 24.0254C92.2955 24.0235 93.2474 23.6272 93.9147 22.8352Z" fill="black"/>
<path d="M112.528 15.7169H110.214V13.1963H112.528V7.84062L115.641 7.15295V13.1963H118.668V15.7169H115.641V26.3428H112.528V15.7169Z" fill="black"/>
<path d="M101.753 15.7169H99.4398V13.1963H101.753V7.84062L104.866 7.15295V13.1963H107.893V15.7169H104.866V26.3428H101.753V15.7169Z" fill="black"/>
<path d="M134.631 13.2017L126.496 26.3428H122.575L119.676 13.2017H123.427L125.326 22.1664L130.831 13.2017H134.631Z" fill="black"/>
<path d="M109.054 26.3431C109.694 26.3431 110.214 25.8223 110.214 25.1799C110.214 24.5375 109.694 24.0167 109.054 24.0167C108.413 24.0167 107.894 24.5375 107.894 25.1799C107.894 25.8223 108.413 26.3431 109.054 26.3431Z" fill="black"/>
</g>
<defs>
<linearGradient id="paint0_linear_104_1308" x1="18.0885" y1="12.0636" x2="18.0885" y2="27.9358" gradientUnits="userSpaceOnUse">
<stop/>
<stop offset="1" stop-opacity="0.55"/>
</linearGradient>
<linearGradient id="paint1_linear_104_1308" x1="12.7296" y1="1.92308e-07" x2="12.7296" y2="27.8746" gradientUnits="userSpaceOnUse">
<stop/>
<stop offset="1" stop-opacity="0.55"/>
</linearGradient>
<linearGradient id="paint2_linear_104_1308" x1="15.5809" y1="21.9358" x2="15.5809" y2="40.0003" gradientUnits="userSpaceOnUse">
<stop/>
<stop offset="1" stop-opacity="0.55"/>
</linearGradient>
<linearGradient id="paint3_linear_104_1308" x1="26.865" y1="2.68481" x2="26.865" y2="34.7389" gradientUnits="userSpaceOnUse">
<stop/>
<stop offset="1" stop-opacity="0.55"/>
</linearGradient>
<clipPath id="clip0_104_1308">
<rect width="135" height="40" fill="white"/>
</clipPath>
</defs>
</svg>
