<svg width="48" height="45" viewBox="0 0 48 45" fill="none" xmlns="http://www.w3.org/2000/svg">
<g clip-path="url(#clip0_552_2899)">
<path d="M46.8873 0L26.291 15.2398L30.1211 6.25856L46.8873 0Z" fill="#E17726"/>
<path d="M1.16072 0.0179443L17.8822 6.25963L21.5189 15.3586L1.16072 0.0179443ZM38.5987 32.4108L47.702 32.5841L44.5205 43.3919L33.4124 40.3336L38.5987 32.4108ZM9.40097 32.4108L14.5679 40.3336L3.47859 43.3921L0.316406 32.5841L9.40097 32.4108Z" fill="#E27625"/>
<path d="M21.0245 13.041L21.3965 25.0566L10.2644 24.5502L13.4309 19.773L13.471 19.7271L21.0245 13.041ZM26.86 12.907L34.5288 19.7275L34.5685 19.7732L37.735 24.5504L26.6054 25.0566L26.86 12.907ZM14.894 32.4458L20.9723 37.1819L13.9115 40.5908L14.894 32.4458ZM33.107 32.445L34.069 40.591L27.0278 37.1815L33.107 32.445Z" fill="#E27625"/>
<path d="M27.1834 36.7354L34.3285 40.1951L27.6822 43.3537L27.7512 41.2661L27.1834 36.7354ZM20.8146 36.7369L20.2692 41.232L20.314 43.3513L13.6521 40.1951L20.8146 36.7369Z" fill="#D5BFB2"/>
<path d="M18.7514 26.6248L20.6185 30.5488L14.2617 28.6865L18.7514 26.6248ZM29.2486 26.6251L33.7595 28.6865L27.3818 30.5482L29.2486 26.6251Z" fill="#233447"/>
<path d="M15.3799 32.4056L14.3524 40.8506L8.84497 32.5903L15.3799 32.4056ZM32.6205 32.4058L39.1557 32.5903L33.6276 40.8509L32.6205 32.4058ZM37.896 24.0725L33.1401 28.9196L29.4732 27.2439L27.7176 30.9346L26.5667 24.5879L37.896 24.0725ZM10.1016 24.0725L21.4332 24.5879L20.2821 30.9346L18.5262 27.2444L14.8787 28.9198L10.1016 24.0725Z" fill="#CC6228"/>
<path d="M9.78101 23.0779L15.1619 28.5381L15.3483 33.9285L9.78101 23.0779ZM38.2242 23.0681L32.6468 33.9381L32.8568 28.5381L38.2242 23.0681ZM21.1699 23.4105L21.3865 24.7736L21.9216 28.1694L21.5776 38.5991L19.951 30.2207L19.9504 30.1341L21.1699 23.4105ZM26.827 23.3916L28.0497 30.1341L28.0491 30.2207L26.4184 38.6201L26.3539 36.5192L26.0995 28.1076L26.827 23.3916Z" fill="#E27525"/>
<path d="M33.3351 28.3212L33.1531 33.0045L27.4767 37.4271L26.3292 36.6164L27.6155 29.991L33.3351 28.3212ZM14.6843 28.3212L20.3841 29.991L21.6704 36.6164L20.5229 37.4271L14.8463 33.0042L14.6843 28.3212Z" fill="#F5841F"/>
<path d="M12.5659 39.1609L19.8282 42.6019L19.7974 41.1325L20.4051 40.599H27.5927L28.2224 41.1306L28.1759 42.5989L35.3922 39.1695L31.8807 42.0713L27.6347 44.9875H20.3468L16.1037 42.0593L12.5659 39.1609Z" fill="#C0AC9D"/>
<path d="M26.6634 36.2773L27.6901 37.0028L28.2918 41.8035L27.421 41.0683H20.5818L19.7275 41.8183L20.3095 37.0032L21.3367 36.2773H26.6634Z" fill="#161616"/>
<path d="M45.5276 0.421875L48 7.83881L46.4559 15.3383L47.5554 16.1863L46.0676 17.3214L47.1859 18.1851L45.7052 19.5334L46.6142 20.1917L44.2018 23.0091L34.3074 20.1281L34.2217 20.0822L27.0917 14.0676L45.5276 0.421875ZM2.47237 0.421875L20.9085 14.0676L13.7782 20.0822L13.6926 20.1281L3.79819 23.0091L1.38581 20.1917L2.29406 19.5339L0.814312 18.1851L1.93031 17.3224L0.420187 16.1841L1.56112 15.3354L0 7.83919L2.47237 0.421875Z" fill="#763E1A"/>
<path d="M33.8236 19.4981L44.3073 22.5504L47.7132 33.0478H38.7275L32.5362 33.1258L37.0388 24.3493L33.8236 19.4981ZM14.1766 19.4981L10.9608 24.3493L15.464 33.1258L9.27553 33.0478H0.305908L3.69272 22.5506L14.1766 19.4981ZM30.6346 6.2085L27.7023 14.1283L27.08 24.8271L26.8418 28.1805L26.8229 36.747H21.1771L21.1587 28.1966L20.9198 24.8242L20.2973 14.1283L17.3654 6.2085H30.6346Z" fill="#F5841F"/>
</g>
<defs>
<clipPath id="clip0_552_2899">
<rect width="48" height="45" fill="white"/>
</clipPath>
</defs>
</svg>
