<svg width="20" height="25" viewBox="0 0 20 25" fill="none" xmlns="http://www.w3.org/2000/svg">
<path d="M10 15.5001C9.73479 15.5001 9.48043 15.3948 9.2929 15.2072C9.10536 15.0197 9 14.7653 9 14.5001C9.03714 13.8467 9.23593 13.2127 9.57855 12.655C9.92117 12.0974 10.3969 11.6335 10.963 11.3051C11.3329 11.1024 11.629 10.7875 11.8087 10.4059C11.9884 10.0242 12.0424 9.59541 11.963 9.18112C11.886 8.7854 11.6925 8.42171 11.4075 8.13664C11.1224 7.85158 10.7587 7.65814 10.363 7.58112C10.0741 7.5278 9.77706 7.53877 9.49291 7.61325C9.20876 7.68773 8.94451 7.82388 8.71893 8.01204C8.49335 8.2002 8.31199 8.43573 8.18773 8.70191C8.06348 8.96809 7.99938 9.25837 8 9.55212C8 9.81733 7.89465 10.0717 7.70711 10.2592C7.51957 10.4468 7.26522 10.5521 7 10.5521C6.73479 10.5521 6.48043 10.4468 6.2929 10.2592C6.10536 10.0717 6 9.81733 6 9.55212C5.9999 8.96787 6.12779 8.39069 6.37467 7.86117C6.62155 7.33165 6.98143 6.86264 7.429 6.48712C7.85676 6.12952 8.35454 5.8653 8.89042 5.7114C9.42629 5.5575 9.98842 5.51733 10.5407 5.59346C11.0931 5.66959 11.6234 5.86034 12.0976 6.15348C12.5719 6.44661 12.9796 6.83565 13.2947 7.29564C13.6097 7.75562 13.8251 8.27639 13.9271 8.82452C14.029 9.37266 14.0153 9.93606 13.8867 10.4786C13.7581 11.0211 13.5175 11.5307 13.1804 11.9748C12.8433 12.4188 12.417 12.7875 11.929 13.0571C11.6762 13.2129 11.4615 13.4234 11.3007 13.6731C11.1399 13.9229 11.0372 14.2055 11 14.5001C11 14.7653 10.8946 15.0197 10.7071 15.2072C10.5196 15.3948 10.2652 15.5001 10 15.5001ZM10.793 24.2601C12.953 23.3921 20 19.9791 20 12.5431V7.37212C20.0011 6.32113 19.6706 5.29659 19.0554 4.44443C18.4403 3.59227 17.5719 2.95596 16.574 2.62612L10.315 0.551116C10.1107 0.482148 9.88934 0.482148 9.685 0.551116L3.426 2.62612C2.42811 2.95596 1.55975 3.59227 0.944604 4.44443C0.329456 5.29659 -0.00110546 6.32113 2.7775e-06 7.37212V12.5431C2.7775e-06 19.1051 7.005 23.1191 9.153 24.1931C9.41269 24.3496 9.70039 24.4538 10 24.5001C10.277 24.4701 10.5459 24.3887 10.793 24.2601ZM15.944 4.52412C16.5425 4.72253 17.0633 5.10449 17.4324 5.61575C17.8015 6.12701 18.0001 6.74156 18 7.37212V12.5431C18 18.7261 11.913 21.6541 10.047 22.4041C8.159 21.4601 2 17.9591 2 12.5431V7.37212C1.99992 6.74156 2.19852 6.12701 2.56761 5.61575C2.93669 5.10449 3.45748 4.72253 4.056 4.52412L10 2.55412L15.944 4.52412ZM10 17.5001C9.80222 17.5001 9.60888 17.5588 9.44443 17.6686C9.27998 17.7785 9.15181 17.9347 9.07612 18.1174C9.00044 18.3002 8.98063 18.5012 9.01922 18.6952C9.0578 18.8892 9.15304 19.0674 9.2929 19.2072C9.43275 19.3471 9.61093 19.4423 9.80491 19.4809C9.99889 19.5195 10.2 19.4997 10.3827 19.424C10.5654 19.3483 10.7216 19.2201 10.8315 19.0557C10.9414 18.8912 11 18.6979 11 18.5001C11 18.2349 10.8946 17.9805 10.7071 17.793C10.5196 17.6055 10.2652 17.5001 10 17.5001Z" fill="white"/>
</svg>
