<svg width="23" height="23" viewBox="0 0 23 23" fill="none" xmlns="http://www.w3.org/2000/svg">
<path d="M22.6976 14.6252C22.6952 16.7655 21.8439 18.8175 20.3304 20.331C18.817 21.8444 16.765 22.6957 14.6247 22.6981C14.4864 22.6981 14.3507 22.6614 14.2312 22.5918C14.1118 22.5222 14.013 22.4221 13.9449 22.3018C13.8768 22.1815 13.8418 22.0453 13.8436 21.9071C13.8453 21.7689 13.8837 21.6336 13.9548 21.5151L15.0484 19.6921C15.101 19.6039 15.1705 19.5269 15.253 19.4656C15.3354 19.4043 15.4291 19.3598 15.5287 19.3348C15.6284 19.3097 15.732 19.3046 15.8336 19.3196C15.9352 19.3347 16.0329 19.3696 16.121 19.4225C16.2091 19.4753 16.2859 19.545 16.347 19.6276C16.4082 19.7102 16.4524 19.804 16.4772 19.9037C16.502 20.0034 16.5069 20.107 16.4916 20.2086C16.4763 20.3102 16.4411 20.4078 16.3881 20.4958L16.1063 20.9657C17.536 20.6294 18.8103 19.8204 19.723 18.6697C20.6356 17.519 21.1332 16.0939 21.1351 14.6252C21.1351 14.418 21.2174 14.2193 21.3639 14.0728C21.5104 13.9263 21.7091 13.844 21.9163 13.844C22.1235 13.844 22.3223 13.9263 22.4688 14.0728C22.6153 14.2193 22.6976 14.418 22.6976 14.6252ZM1.08301 9.15645C1.29019 9.1564 1.48888 9.07407 1.63538 8.92757C1.78188 8.78107 1.86421 8.58238 1.86426 8.3752C1.86617 6.90649 2.36373 5.48142 3.27638 4.3307C4.18904 3.17998 5.46337 2.37098 6.89305 2.03467L6.61127 2.50464C6.5585 2.5926 6.52358 2.6901 6.50849 2.79157C6.4934 2.89303 6.49845 2.99647 6.52333 3.09599C6.5736 3.29697 6.70165 3.46975 6.87931 3.57632C7.05696 3.68289 7.26968 3.71452 7.47066 3.66425C7.67164 3.61399 7.84442 3.48594 7.95099 3.30828L9.04454 1.48537C9.11566 1.36683 9.15405 1.23154 9.1558 1.09331C9.15754 0.955078 9.12257 0.818863 9.05446 0.698568C8.98635 0.578273 8.88753 0.478206 8.76811 0.408585C8.64868 0.338963 8.51291 0.302281 8.37467 0.302282C6.23434 0.304678 4.18235 1.15598 2.66891 2.66943C1.15546 4.18288 0.304154 6.23486 0.301758 8.3752C0.30181 8.58238 0.384137 8.78107 0.530639 8.92757C0.67714 9.07407 0.875824 9.1564 1.08301 9.15645ZM22.6976 4.44657V7.09553C22.6785 7.58764 22.5379 8.06737 22.2881 8.49181C22.0383 8.91626 21.6873 9.2722 21.2663 9.52782L18.7639 10.9184C18.3447 11.1298 17.8817 11.2399 17.4122 11.2399C16.9427 11.2399 16.4798 11.1298 16.0606 10.9184L13.5581 9.52782C13.1371 9.27223 12.786 8.91631 12.5361 8.49186C12.2863 8.06742 12.1455 7.58768 12.1263 7.09553V4.44657C12.1456 3.95426 12.2865 3.47438 12.5364 3.04978C12.7863 2.62518 13.1375 2.26909 13.5586 2.0133L16.0606 0.623719C16.4797 0.412039 16.9427 0.301758 17.4122 0.301758C17.8818 0.301758 18.3448 0.412039 18.7639 0.623719L21.2663 2.01432C21.6873 2.26994 22.0383 2.62588 22.2881 3.05032C22.5378 3.47476 22.6785 3.95447 22.6976 4.44657ZM16.6307 6.47816L13.6888 4.77623V7.0955C13.7087 7.3084 13.7752 7.5143 13.8837 7.69856C13.9922 7.88282 14.1399 8.04091 14.3164 8.16158L16.6307 9.44828V6.47816ZM17.4119 5.12508L20.4673 3.35716L18.005 1.98889C17.818 1.90737 17.6162 1.86529 17.4122 1.86529C17.2082 1.86529 17.0064 1.90737 16.8194 1.98889L14.3569 3.35724L17.4119 5.12508ZM21.1351 4.77613L18.1932 6.47816V9.4486L20.5074 8.16259C20.6839 8.04162 20.8316 7.88333 20.9401 7.69892C21.0485 7.51451 21.1151 7.30851 21.1351 7.0955V4.77613ZM10.8731 15.9049V18.5539C10.8538 19.0462 10.7129 19.5261 10.463 19.9507C10.213 20.3753 9.86185 20.7313 9.44076 20.9871L6.93882 22.3767C6.5222 22.5949 6.05763 22.7054 5.5874 22.6982C5.11702 22.7053 4.6523 22.5948 4.23548 22.3767L1.73301 20.9861C1.31206 20.7305 0.961021 20.3745 0.71126 19.9501C0.4615 19.5256 0.320807 19.0459 0.301758 18.5538V15.9048C0.320807 15.4127 0.4615 14.933 0.71126 14.5086C0.961021 14.0841 1.31206 13.7282 1.73301 13.4725L4.23546 12.0819C4.65459 11.8702 5.11758 11.76 5.58713 11.76C6.05668 11.76 6.51967 11.8702 6.9388 12.0819L9.44125 13.4725C9.86227 13.7281 10.2134 14.0841 10.4633 14.5085C10.7131 14.933 10.8539 15.4127 10.8731 15.9049ZM4.80615 17.9365L1.86426 16.2346V18.5538C1.88424 18.7668 1.95082 18.9728 2.05929 19.1573C2.16775 19.3417 2.31545 19.5 2.4919 19.6209L4.80615 20.9069V17.9365ZM5.5874 16.5834L8.64183 14.816L6.17996 13.4473C5.99295 13.3657 5.79115 13.3237 5.58715 13.3237C5.38315 13.3237 5.18134 13.3657 4.99434 13.4473L2.53208 14.8155L5.5874 16.5834ZM9.31055 16.2345L6.36865 17.9365V20.9067L8.68239 19.6209C8.85899 19.5001 9.00681 19.3418 9.11536 19.1574C9.22392 18.973 9.29055 18.7669 9.31052 18.5538L9.31055 16.2345Z" fill="white"/>
</svg>
