<svg width="149" height="149" viewBox="0 0 149 149" fill="none" xmlns="http://www.w3.org/2000/svg">
<g clip-path="url(#clip0_53_1620)">
<path d="M116.085 27.5506H83.288L94.4865 7.68098C95.8925 5.21822 95.0356 2.08187 92.5725 0.676205C90.1098 -0.729754 86.9737 0.127148 85.5677 2.58991C85.5584 2.6062 85.5494 2.6222 85.5404 2.6385L74.4999 22.2265L63.4594 2.6385C62.0671 0.168175 58.9357 -0.705604 56.4654 0.68668C53.995 2.07896 53.121 5.21066 54.5133 7.68098L65.712 27.5506H32.9152C22.3496 27.5626 13.7873 36.1249 13.7756 46.6905V129.86C13.7879 140.426 22.3499 148.988 32.9152 149H116.085C126.65 148.987 135.212 140.425 135.224 129.86V46.6908C135.213 36.1252 126.65 27.5629 116.085 27.5506ZM124.955 129.86C124.95 134.757 120.982 138.725 116.085 138.731H32.9152C28.0185 138.725 24.0503 134.757 24.0448 129.86V46.6908C24.05 41.7941 28.0182 37.8256 32.9152 37.8201H74.4952H74.5045H116.085C120.982 37.8256 124.95 41.7941 124.955 46.6908V129.86Z" fill="white"/>
<path d="M100.294 78.8187L79.6346 87.83V80.8796C79.6352 78.0438 77.3366 75.7446 74.5008 75.744C73.7938 75.744 73.0943 75.8898 72.446 76.1726L44.5994 88.3197C42.0025 89.4591 40.8212 92.4881 41.9606 95.0847C43.0966 97.6734 46.1113 98.8571 48.705 97.7325L69.3652 88.7206V95.671C69.3649 98.5068 71.6636 100.806 74.4994 100.806C75.2064 100.806 75.9059 100.661 76.5539 100.378L104.401 88.2306C107 87.097 108.188 84.0707 107.055 81.4714C105.921 78.8719 102.895 77.6839 100.295 78.8175L100.294 78.8187Z" fill="white"/>
</g>
<defs>
<clipPath id="clip0_53_1620">
<rect width="149" height="149" fill="white"/>
</clipPath>
</defs>
</svg>
