<svg id="Layer_1" data-name="Layer 1" xmlns="http://www.w3.org/2000/svg" xmlns:xlink="http://www.w3.org/1999/xlink" viewBox="0 0 784.16 498.73"><defs><style>.cls-1{fill:none;}.cls-2{clip-path:url(#clip-path);}.cls-3{fill:#f7f7f7;}</style><clipPath id="clip-path" transform="translate(284.16)"><rect class="cls-1" width="500" height="500"/></clipPath></defs><title>script tv black back</title><rect x="284.56" width="499.6" height="498.73"/><g class="cls-2"><path class="cls-3" d="M179.71,320.43a18.16,18.16,0,0,1-4.15-.44,21,21,0,0,1-3.72-1.28l.51-4.94a22.59,22.59,0,0,0,3.53,1.69,10.62,10.62,0,0,0,3.65.64,5.07,5.07,0,0,0,2.63-.56,1.91,1.91,0,0,0,.91-1.77,2.26,2.26,0,0,0-.48-1.49,4.15,4.15,0,0,0-1.43-1c-.64-.31-1.43-.65-2.38-1a20.33,20.33,0,0,1-3.64-1.73,6.59,6.59,0,0,1-2.29-2.25,6.26,6.26,0,0,1-.78-3.25,6.15,6.15,0,0,1,1.05-3.54,7,7,0,0,1,3-2.4,11.29,11.29,0,0,1,4.59-.86,15.16,15.16,0,0,1,4,.49,14.87,14.87,0,0,1,3.25,1.33L187.4,303a19.79,19.79,0,0,0-3.14-1.81,8.48,8.48,0,0,0-3.47-.71,3.76,3.76,0,0,0-2.31.61,2,2,0,0,0-.82,1.72,2.22,2.22,0,0,0,1.15,2,27,27,0,0,0,3.65,1.65,22.51,22.51,0,0,1,2.84,1.31,8.76,8.76,0,0,1,2,1.49,5.24,5.24,0,0,1,1.17,1.85,6.77,6.77,0,0,1,.39,2.39,6.18,6.18,0,0,1-4.16,6.13,13.53,13.53,0,0,1-5,.81" transform="translate(284.16)"/><path class="cls-3" d="M203.62,320.43a12.82,12.82,0,0,1-6.72-1.64,10.66,10.66,0,0,1-4.1-4.38,13.14,13.14,0,0,1-1.39-6.05,13.55,13.55,0,0,1,1.37-6.09,10.62,10.62,0,0,1,4.13-4.41,13.09,13.09,0,0,1,6.89-1.66,13.87,13.87,0,0,1,3.55.43,12.16,12.16,0,0,1,2.7,1.06l-.47,4.66a12.6,12.6,0,0,0-2.41-.93,10.36,10.36,0,0,0-2.81-.37,6.62,6.62,0,0,0-5.19,2,8.32,8.32,0,0,0,0,10.49,6.5,6.5,0,0,0,5.11,2.11,9.33,9.33,0,0,0,2.71-.41,12.64,12.64,0,0,0,2.6-1.13l.51,4.89a12.27,12.27,0,0,1-2.92,1,16.77,16.77,0,0,1-3.6.38" transform="translate(284.16)"/><path class="cls-3" d="M214,320v-23.3h5.4l.14,2.47a11.09,11.09,0,0,1,2.5-2,6.64,6.64,0,0,1,3.51-1,5.41,5.41,0,0,1,1,.09l-.42,5.69a6.17,6.17,0,0,0-1-.19c-.34,0-.67,0-1,0a5.39,5.39,0,0,0-2.68.67,3.9,3.9,0,0,0-1.7,1.66V320Z" transform="translate(284.16)"/><path class="cls-3" d="M229.38,287.35h5.78v5.78h-5.78Zm0,9.32h5.78V320h-5.78Z" transform="translate(284.16)"/><path class="cls-3" d="M240.57,331.24V296.67h4.66l1.11,3.86-1.72-.6a14.26,14.26,0,0,1,3.49-2.65,10,10,0,0,1,4.62-1,9.69,9.69,0,0,1,5.75,1.66,10.37,10.37,0,0,1,3.53,4.4,15.65,15.65,0,0,1,0,12,10.4,10.4,0,0,1-3.53,4.41,9.69,9.69,0,0,1-5.75,1.65,11.26,11.26,0,0,1-4.43-.74,12.68,12.68,0,0,1-3.45-2.38l1.49-1.16v15.09Zm11.27-15.56a4.63,4.63,0,0,0,4-2,10.48,10.48,0,0,0,0-10.57,4.64,4.64,0,0,0-4-2,5.44,5.44,0,0,0-3.28.93,5.35,5.35,0,0,0-1.89,2.57,12.2,12.2,0,0,0,0,7.62,5.33,5.33,0,0,0,1.89,2.58,5.44,5.44,0,0,0,3.28.93" transform="translate(284.16)"/><path class="cls-3" d="M274.53,320.43a6.48,6.48,0,0,1-3.56-.89,5.53,5.53,0,0,1-2-2.3,6.86,6.86,0,0,1-.65-2.91V301.42H265l.51-4.75h2.8v-5.13l5.78-.6v5.73h5.12v4.75h-5.12V312a10.9,10.9,0,0,0,.21,2.55,1.27,1.27,0,0,0,1,1,10.31,10.31,0,0,0,2.38.2h1.58l-.51,4.75Z" transform="translate(284.16)"/><rect class="cls-3" x="566.57" y="313.63" width="6.06" height="6.34"/><path class="cls-3" d="M300.25,320.43a6.45,6.45,0,0,1-3.56-.89,5.53,5.53,0,0,1-2-2.3,6.86,6.86,0,0,1-.65-2.91V301.42H290.7l.51-4.75H294v-5.13l5.78-.6v5.73h5.12v4.75h-5.12V312a10.9,10.9,0,0,0,.21,2.55,1.27,1.27,0,0,0,.95,1,10.31,10.31,0,0,0,2.38.2h1.58l-.51,4.75Z" transform="translate(284.16)"/><polygon class="cls-3" points="599.23 319.97 590.28 296.67 595.97 296.67 601.7 312.79 607.43 296.67 613.12 296.67 604.17 319.97 599.23 319.97"/><path class="cls-3" d="M303.75,166.22H197.05a15.69,15.69,0,0,0-15.69,15.69v76.93a15.68,15.68,0,0,0,15.69,15.68h106.7a15.69,15.69,0,0,0,15.69-15.68V181.91a15.7,15.7,0,0,0-15.69-15.69m7.2,83.23a15.68,15.68,0,0,1-15.69,15.69H205.53a15.68,15.68,0,0,1-15.68-15.69V190.38a15.68,15.68,0,0,1,15.68-15.68h89.73A15.68,15.68,0,0,1,311,190.38Z" transform="translate(284.16)"/><path class="cls-3" d="M296.54,187s-2.83.16-6.53-2.76l-.8-.61h-4.14c.67.48,1.58,1.14,2.78,2l2.41,1.65a11,11,0,0,0,6.43,2.13,7.17,7.17,0,0,0,4.28-1.3l.51-.38v-3.22c-.62.6-2.76,2.51-4.94,2.45" transform="translate(284.16)"/><path class="cls-3" d="M263.49,187.35a7.45,7.45,0,0,0,6.48.27,13.78,13.78,0,0,0,4.08-3.17s.37-.36.9-.83h-3.57l-.55.52a5.46,5.46,0,0,1-6.15,1.1,22.45,22.45,0,0,1-2.51-1.62h-4.24c.55.36,1.28.84,2.21,1.5a28,28,0,0,0,3.35,2.23" transform="translate(284.16)"/><path class="cls-3" d="M292.34,194a25.83,25.83,0,0,1-4.38-3.05s-4.64-4.1-8.8-4a8.88,8.88,0,0,0-6.58,2.73l-2.42,2.22s-2.47,2.58-4.88,1.71c0,0-.71.19-4.37-2.67,0,0-3.76-2.91-6.77-3.41,0,0-4.69-1.17-8.52.94a18.8,18.8,0,0,0-4.14,3.13s-2.12,2.4-4.56,2.18a7.82,7.82,0,0,1-3.71-1.2,35,35,0,0,1-3.86-2.77s-4.64-4.1-8.81-4a8.81,8.81,0,0,0-6.57,2.72l-2.43,2.22s-2.47,2.58-4.87,1.72c0,0-.71.18-4.38-2.68a26.52,26.52,0,0,0-3-1.93v4.81c.61.42,1.32.94,2.06,1.53,0,0,3.91,3.38,7.95,2.39a8.75,8.75,0,0,0,4.77-2.67,22.22,22.22,0,0,1,4.27-3.53,5.07,5.07,0,0,1,4.76.12A29.3,29.3,0,0,1,226.8,193s2.5,1.9,4.28,3v0q.38.22.72.39l.16.09s.24.13.65.32a11.05,11.05,0,0,0,3.18,1,8.47,8.47,0,0,0,4.63-.47,11.49,11.49,0,0,0,2.44-1.38v-.19a12.54,12.54,0,0,0,1.18-1s3.24-3.37,6.05-3.46a10.16,10.16,0,0,1,6,1.29,39.7,39.7,0,0,1,3.9,2.75s3.91,3.38,8,2.39a8.81,8.81,0,0,0,4.77-2.68,22.12,22.12,0,0,1,4.26-3.52,5.07,5.07,0,0,1,4.76.12,29,29,0,0,1,3.69,2.46,56.61,56.61,0,0,0,5.16,3.54s4.4,2.52,8.45.8a11.22,11.22,0,0,0,2.45-1.39V191.7c-.7.57-1.46,1.23-2.29,2,0,0-2.76,2.76-6.85.26" transform="translate(284.16)"/><path class="cls-3" d="M290,201.44l-3.43-2.6s-3.64-2.85-7-2.7a9,9,0,0,0-6.3,2.87l-2.46,2.34a5.46,5.46,0,0,1-6.15,1.1,24.55,24.55,0,0,1-2.93-1.92,34.73,34.73,0,0,0-4.16-2.74,12.31,12.31,0,0,0-6.38-1.38,10.34,10.34,0,0,0-6.51,2.42s-.8.68-2.52,2.19a7.09,7.09,0,0,1-3.5,1.91s-2.54.69-6.13-1.81l0,0c-.36-.24-.74-.51-1.13-.82l-3.43-2.6s-3.64-2.85-7-2.7a9,9,0,0,0-6.3,2.88l-2.47,2.33a5.46,5.46,0,0,1-6.15,1.1,24.57,24.57,0,0,1-2.92-1.91,36.87,36.87,0,0,0-3.83-2.57v2.86c.56.36,1.28.85,2.21,1.5a26.4,26.4,0,0,0,3.36,2.23,7.46,7.46,0,0,0,6.48.28,13.87,13.87,0,0,0,4.08-3.18,13.48,13.48,0,0,1,3.91-2.78s2.48-1.13,5.84,1.07c0,0,1.35.9,4,2.92l2,1.34,0,0a12,12,0,0,0,2.23,1.31,10.44,10.44,0,0,0,4.7,1.09,7.07,7.07,0,0,0,4.27-1.3s.21-.14.52-.38v-.24a9.9,9.9,0,0,0,1-.86l2.15-1.92a9.39,9.39,0,0,1,4.82-2,10.9,10.9,0,0,1,5.82,1.19s1.14.63,3.46,2.27a28,28,0,0,0,3.35,2.23,7.49,7.49,0,0,0,6.48.27,13.78,13.78,0,0,0,4.08-3.17,13.28,13.28,0,0,1,3.91-2.78s2.49-1.14,5.85,1.06c0,0,1.34.91,4,2.93l2.41,1.65a11,11,0,0,0,6.43,2.13,7.17,7.17,0,0,0,4.28-1.3l.51-.38v-3.22c-.62.6-2.76,2.51-4.94,2.45,0,0-2.83.16-6.53-2.76" transform="translate(284.16)"/><path class="cls-3" d="M292.34,211.19a25.14,25.14,0,0,1-4.38-3s-4.64-4.11-8.8-4a8.89,8.89,0,0,0-6.58,2.72l-2.42,2.23s-2.47,2.58-4.88,1.71c0,0-.71.19-4.37-2.68,0,0-3.76-2.91-6.77-3.4,0,0-4.69-1.17-8.52.93a19.16,19.16,0,0,0-4.14,3.14s-2.12,2.4-4.56,2.18a7.82,7.82,0,0,1-3.71-1.2,35.43,35.43,0,0,1-3.86-2.77s-4.64-4.1-8.81-4A8.81,8.81,0,0,0,214,205.8L211.54,208s-2.47,2.58-4.87,1.71c0,0-.71.19-4.38-2.67a25,25,0,0,0-3-1.93v4.81c.61.42,1.32.94,2.06,1.53,0,0,3.91,3.38,7.95,2.39a8.83,8.83,0,0,0,4.77-2.67,22.22,22.22,0,0,1,4.27-3.53,5.07,5.07,0,0,1,4.76.12,29.3,29.3,0,0,1,3.68,2.46s2.5,1.9,4.28,3v0q.38.22.72.39l.16.09s.24.13.65.32a11.16,11.16,0,0,0,3.18,1,8.47,8.47,0,0,0,4.63-.47,11.49,11.49,0,0,0,2.44-1.38V213a14.23,14.23,0,0,0,1.18-1s3.24-3.37,6.05-3.46a10.16,10.16,0,0,1,6,1.29,39.7,39.7,0,0,1,3.9,2.75s3.91,3.38,8,2.39a8.81,8.81,0,0,0,4.77-2.68,22.42,22.42,0,0,1,4.26-3.53,5.09,5.09,0,0,1,4.76.13,27.79,27.79,0,0,1,3.69,2.46,56.61,56.61,0,0,0,5.16,3.54s4.4,2.52,8.45.8a11.22,11.22,0,0,0,2.45-1.39v-5.39c-.7.57-1.46,1.23-2.29,2,0,0-2.76,2.76-6.85.25" transform="translate(284.16)"/><path class="cls-3" d="M290,219.07l-3.43-2.6s-3.64-2.85-7-2.7a9,9,0,0,0-6.3,2.88L270.83,219a5.46,5.46,0,0,1-6.15,1.1,23.38,23.38,0,0,1-2.93-1.91,34.39,34.39,0,0,0-4.16-2.75,12.31,12.31,0,0,0-6.38-1.38,10.34,10.34,0,0,0-6.51,2.42s-.8.68-2.52,2.19a7.09,7.09,0,0,1-3.5,1.91s-2.54.69-6.13-1.8l0,0c-.36-.24-.74-.51-1.13-.82l-3.43-2.6s-3.64-2.85-7-2.7a9,9,0,0,0-6.3,2.88l-2.47,2.34a5.46,5.46,0,0,1-6.15,1.1,24.1,24.1,0,0,1-2.92-1.92,38.66,38.66,0,0,0-3.83-2.57v2.87c.56.35,1.28.84,2.21,1.49a26.4,26.4,0,0,0,3.36,2.23,7.46,7.46,0,0,0,6.48.28,13.87,13.87,0,0,0,4.08-3.18,13.48,13.48,0,0,1,3.91-2.78s2.48-1.13,5.84,1.07c0,0,1.35.9,4,2.92l2,1.34,0,0a11.71,11.71,0,0,0,2.23,1.32,10.45,10.45,0,0,0,4.7,1.08,7.07,7.07,0,0,0,4.27-1.3l.52-.37v-.25a9.77,9.77,0,0,0,1-.85l2.15-1.92a9.37,9.37,0,0,1,4.82-2,11,11,0,0,1,5.82,1.19s1.14.63,3.46,2.27a26.71,26.71,0,0,0,3.35,2.23,7.47,7.47,0,0,0,6.48.28,13.72,13.72,0,0,0,4.08-3.18,13.48,13.48,0,0,1,3.91-2.78s2.49-1.13,5.85,1.07c0,0,1.34.9,4,2.92l2.41,1.66a11,11,0,0,0,6.43,2.12A7.09,7.09,0,0,0,301,223l.51-.38v-3.22c-.62.61-2.76,2.52-4.94,2.46,0,0-2.83.15-6.53-2.77" transform="translate(284.16)"/><path class="cls-3" d="M292.34,228.83a25,25,0,0,1-4.38-3.05s-4.64-4.1-8.8-4a8.84,8.84,0,0,0-6.58,2.72l-2.42,2.22s-2.47,2.58-4.88,1.72c0,0-.71.18-4.37-2.68,0,0-3.76-2.91-6.77-3.41,0,0-4.69-1.17-8.52.94a18.7,18.7,0,0,0-4.14,3.14s-2.12,2.4-4.56,2.17a7.82,7.82,0,0,1-3.71-1.2,34,34,0,0,1-3.86-2.77s-4.64-4.1-8.81-4a8.86,8.86,0,0,0-6.57,2.72l-2.43,2.23s-2.47,2.57-4.87,1.71c0,0-.71.19-4.38-2.68a26.52,26.52,0,0,0-3-1.93v4.81c.61.43,1.32.94,2.06,1.53,0,0,3.91,3.38,7.95,2.4a8.81,8.81,0,0,0,4.77-2.68,22.22,22.22,0,0,1,4.27-3.53,5.07,5.07,0,0,1,4.76.12,29.3,29.3,0,0,1,3.68,2.46s2.5,1.91,4.28,3v0q.38.23.72.39l.16.09a7,7,0,0,0,.65.32,11.11,11.11,0,0,0,3.18,1,8.47,8.47,0,0,0,4.63-.47,11.31,11.31,0,0,0,2.44-1.39v-.19a14,14,0,0,0,1.18-1s3.24-3.38,6.05-3.47a10.21,10.21,0,0,1,6,1.3,38.5,38.5,0,0,1,3.9,2.74s3.91,3.38,8,2.39a8.75,8.75,0,0,0,4.77-2.67A22,22,0,0,1,277,226.4a5.07,5.07,0,0,1,4.76.12,29,29,0,0,1,3.69,2.46,54.58,54.58,0,0,0,5.16,3.54s4.4,2.52,8.45.8a11.41,11.41,0,0,0,2.45-1.38v-5.4c-.7.57-1.46,1.23-2.29,2,0,0-2.76,2.76-6.85.26" transform="translate(284.16)"/><path class="cls-3" d="M231.18,185.89l0,0a12,12,0,0,0,2.23,1.31,10.44,10.44,0,0,0,4.7,1.09,7.07,7.07,0,0,0,4.27-1.3s.21-.14.52-.38v-.24a9.9,9.9,0,0,0,1-.86l2.15-1.92h-3.17v-.19l-.21.19h-.26l-.22.19a7.09,7.09,0,0,1-3.5,1.91s-2.54.69-6.13-1.81l0,0c-.36-.24-.74-.51-1.13-.82l-.8-.61h-4.14c.66.48,1.58,1.14,2.77,2Z" transform="translate(284.16)"/><path class="cls-3" d="M204.88,186.24a7.46,7.46,0,0,0,6.48.28,13.87,13.87,0,0,0,4.08-3.18s.36-.36.89-.83h-3.57l-.55.52a5.46,5.46,0,0,1-6.15,1.1,23.68,23.68,0,0,1-2.51-1.62h-4.24c.56.36,1.28.85,2.21,1.5a26.4,26.4,0,0,0,3.36,2.23" transform="translate(284.16)"/><path class="cls-3" d="M223.6,248.11a8.25,8.25,0,1,1-8.25-8.25,8.25,8.25,0,0,1,8.25,8.25" transform="translate(284.16)"/><path class="cls-3" d="M293.7,248.11a8.25,8.25,0,1,1-8.25-8.25,8.25,8.25,0,0,1,8.25,8.25" transform="translate(284.16)"/><polygon class="cls-3" points="517.29 258.24 515.5 258.24 513.26 237.99 515.26 237.99 517.29 258.24"/><polygon class="cls-3" points="521.83 258.24 520.04 258.24 518.33 237.99 520.33 237.99 521.83 258.24"/><polygon class="cls-3" points="526.37 258.24 524.58 258.24 523.41 237.99 525.41 237.99 526.37 258.24"/><polygon class="cls-3" points="530.91 258.24 529.12 258.24 528.48 237.99 530.48 237.99 530.91 258.24"/><polygon class="cls-3" points="535.45 258.24 533.66 258.24 533.56 237.99 535.56 237.99 535.45 258.24"/><polygon class="cls-3" points="539.99 258.24 538.2 258.24 538.63 237.99 540.63 237.99 539.99 258.24"/><polygon class="cls-3" points="544.53 258.24 542.75 258.24 543.71 237.99 545.71 237.99 544.53 258.24"/><polygon class="cls-3" points="549.08 258.24 547.29 258.24 548.78 237.99 550.78 237.99 549.08 258.24"/><polygon class="cls-3" points="553.62 258.24 551.83 258.24 553.86 237.99 555.86 237.99 553.62 258.24"/><path class="cls-3" d="M-276.29,304.73a17.62,17.62,0,0,1-4.15-.44,20.25,20.25,0,0,1-3.72-1.28l.51-4.94a22.59,22.59,0,0,0,3.53,1.69,10.39,10.39,0,0,0,3.65.64,5.07,5.07,0,0,0,2.63-.56,1.91,1.91,0,0,0,.91-1.77,2.28,2.28,0,0,0-.48-1.49,4.15,4.15,0,0,0-1.43-1.05c-.64-.31-1.43-.64-2.38-1a20.34,20.34,0,0,1-3.64-1.72,6.59,6.59,0,0,1-2.29-2.25,6.28,6.28,0,0,1-.78-3.25,6.1,6.1,0,0,1,1.05-3.54,6.83,6.83,0,0,1,3-2.4,11.13,11.13,0,0,1,4.59-.86,15.18,15.18,0,0,1,4,.48,14.87,14.87,0,0,1,3.25,1.33l-.52,4.94a19,19,0,0,0-3.14-1.8,8.32,8.32,0,0,0-3.47-.71,3.83,3.83,0,0,0-2.31.6,2,2,0,0,0-.82,1.73,2.2,2.2,0,0,0,1.15,2,28.07,28.07,0,0,0,3.65,1.66,22.56,22.56,0,0,1,2.84,1.3,9.06,9.06,0,0,1,2,1.49,5.33,5.33,0,0,1,1.17,1.85,6.81,6.81,0,0,1,.39,2.39,6.53,6.53,0,0,1-1.06,3.76,6.55,6.55,0,0,1-3.1,2.37,13.53,13.53,0,0,1-5,.81" transform="translate(284.16)"/><path class="cls-3" d="M-252.38,304.73a12.73,12.73,0,0,1-6.72-1.64,10.6,10.6,0,0,1-4.1-4.38,13.1,13.1,0,0,1-1.39-6,13.62,13.62,0,0,1,1.37-6.1,10.62,10.62,0,0,1,4.13-4.41,13.19,13.19,0,0,1,6.89-1.65,13.44,13.44,0,0,1,3.55.43,11.69,11.69,0,0,1,2.7,1.06l-.47,4.66a12,12,0,0,0-2.41-.94,10.77,10.77,0,0,0-2.81-.37,6.65,6.65,0,0,0-5.19,2,7.54,7.54,0,0,0-1.84,5.29,7.54,7.54,0,0,0,1.88,5.2,6.5,6.5,0,0,0,5.11,2.11,9,9,0,0,0,2.71-.41,12.12,12.12,0,0,0,2.6-1.13l.51,4.9a12.28,12.28,0,0,1-2.92,1,16.15,16.15,0,0,1-3.6.38" transform="translate(284.16)"/><path class="cls-3" d="M-242,304.27V281h5.4l.14,2.47a11.38,11.38,0,0,1,2.5-2,6.64,6.64,0,0,1,3.51-1,5.37,5.37,0,0,1,1,.1l-.42,5.68a6.13,6.13,0,0,0-1-.18c-.34,0-.67-.05-1-.05a5.39,5.39,0,0,0-2.68.68,3.93,3.93,0,0,0-1.7,1.65v15.89Z" transform="translate(284.16)"/><path class="cls-3" d="M-226.62,271.65h5.78v5.78h-5.78Zm0,9.32h5.78v23.3h-5.78Z" transform="translate(284.16)"/><path class="cls-3" d="M-215.43,315.54V281h4.66l1.11,3.87-1.72-.61a14,14,0,0,1,3.49-2.64,9.86,9.86,0,0,1,4.62-1,9.69,9.69,0,0,1,5.75,1.65,10.4,10.4,0,0,1,3.53,4.41,14.83,14.83,0,0,1,1.2,6,14.9,14.9,0,0,1-1.2,6,10.37,10.37,0,0,1-3.53,4.4,9.69,9.69,0,0,1-5.75,1.65,11.09,11.09,0,0,1-4.43-.74,12.68,12.68,0,0,1-3.45-2.38l1.49-1.16v15.09ZM-204.16,300a4.63,4.63,0,0,0,4-2,8.9,8.9,0,0,0,1.43-5.27,8.92,8.92,0,0,0-1.43-5.29,4.65,4.65,0,0,0-4-2,5.44,5.44,0,0,0-3.28.93,5.33,5.33,0,0,0-1.89,2.58,11,11,0,0,0-.61,3.81,11.11,11.11,0,0,0,.61,3.81,5.35,5.35,0,0,0,1.89,2.57,5.44,5.44,0,0,0,3.28.93" transform="translate(284.16)"/><path class="cls-3" d="M-181.47,304.73a6.39,6.39,0,0,1-3.56-.89,5.53,5.53,0,0,1-2-2.3,6.86,6.86,0,0,1-.65-2.91V285.72H-191l.51-4.75h2.8v-5.12l5.78-.61V281h5.12v4.75h-5.12v10.53a11,11,0,0,0,.21,2.56,1.26,1.26,0,0,0,.95,1,9.77,9.77,0,0,0,2.38.2h1.58l-.51,4.75Z" transform="translate(284.16)"/><rect class="cls-3" x="110.57" y="297.93" width="6.06" height="6.34"/><path class="cls-3" d="M-155.75,304.73a6.37,6.37,0,0,1-3.56-.89,5.53,5.53,0,0,1-2-2.3,6.86,6.86,0,0,1-.65-2.91V285.72h-3.31l.51-4.75h2.8v-5.12l5.78-.61V281h5.12v4.75h-5.12v10.53a11,11,0,0,0,.21,2.56,1.26,1.26,0,0,0,.95,1,9.77,9.77,0,0,0,2.38.2h1.58l-.51,4.75Z" transform="translate(284.16)"/><polygon class="cls-3" points="143.23 304.27 134.28 280.97 139.97 280.97 145.7 297.09 151.43 280.97 157.12 280.97 148.17 304.27 143.23 304.27"/><path class="cls-3" d="M-152.25,150.53h-106.7a15.68,15.68,0,0,0-15.69,15.68v76.93a15.69,15.69,0,0,0,15.69,15.69h106.7a15.7,15.7,0,0,0,15.69-15.69V166.21a15.69,15.69,0,0,0-15.69-15.68m7.2,83.23a15.68,15.68,0,0,1-15.69,15.68h-89.73a15.68,15.68,0,0,1-15.68-15.68V174.69A15.68,15.68,0,0,1-250.47,159h89.73A15.68,15.68,0,0,1-145,174.69Z" transform="translate(284.16)"/><path class="cls-3" d="M-159.46,171.3s-2.83.15-6.53-2.77l-.8-.61h-4.14c.67.48,1.58,1.14,2.78,2l2.41,1.66a11,11,0,0,0,6.43,2.12,7.09,7.09,0,0,0,4.28-1.3l.51-.38v-3.22c-.62.61-2.76,2.52-4.94,2.46" transform="translate(284.16)"/><path class="cls-3" d="M-192.51,171.65a7.47,7.47,0,0,0,6.48.28,13.72,13.72,0,0,0,4.08-3.18s.37-.36.9-.83h-3.57l-.55.52a5.46,5.46,0,0,1-6.15,1.1,22.45,22.45,0,0,1-2.51-1.62h-4.24c.55.36,1.28.85,2.21,1.5a26.71,26.71,0,0,0,3.35,2.23" transform="translate(284.16)"/><path class="cls-3" d="M-163.66,178.29a25,25,0,0,1-4.38-3s-4.64-4.1-8.8-4a8.84,8.84,0,0,0-6.58,2.72l-2.42,2.22s-2.47,2.58-4.88,1.72c0,0-.71.18-4.37-2.68,0,0-3.76-2.91-6.77-3.41,0,0-4.69-1.17-8.52.94a18.7,18.7,0,0,0-4.14,3.14s-2.12,2.4-4.56,2.17a7.82,7.82,0,0,1-3.71-1.2,35,35,0,0,1-3.86-2.77s-4.64-4.1-8.81-4a8.86,8.86,0,0,0-6.57,2.72l-2.43,2.23s-2.47,2.57-4.87,1.71c0,0-.71.19-4.38-2.68a26.52,26.52,0,0,0-3-1.93V177c.61.43,1.32.94,2.06,1.53,0,0,3.91,3.38,7.95,2.4a8.81,8.81,0,0,0,4.77-2.68,22.22,22.22,0,0,1,4.27-3.53,5.07,5.07,0,0,1,4.76.12,29.3,29.3,0,0,1,3.68,2.46s2.5,1.91,4.28,3v0q.38.23.72.39l.16.09a7,7,0,0,0,.65.32,11,11,0,0,0,3.18,1,8.47,8.47,0,0,0,4.63-.47,11.31,11.31,0,0,0,2.44-1.39v-.19a14,14,0,0,0,1.18-1s3.24-3.38,6.05-3.47a10.21,10.21,0,0,1,6,1.3,38.5,38.5,0,0,1,3.9,2.74s3.91,3.38,8,2.39a8.75,8.75,0,0,0,4.77-2.67,22,22,0,0,1,4.26-3.53,5.07,5.07,0,0,1,4.76.12,29,29,0,0,1,3.69,2.46,54.58,54.58,0,0,0,5.16,3.54s4.4,2.52,8.45.8a11.41,11.41,0,0,0,2.45-1.38V176c-.7.57-1.46,1.23-2.29,2,0,0-2.76,2.76-6.85.26" transform="translate(284.16)"/><path class="cls-3" d="M-166,185.74l-3.43-2.6s-3.64-2.85-7-2.7a9,9,0,0,0-6.3,2.88l-2.46,2.33a5.46,5.46,0,0,1-6.15,1.1,25,25,0,0,1-2.93-1.91,34.39,34.39,0,0,0-4.16-2.75,12.31,12.31,0,0,0-6.38-1.38,10.34,10.34,0,0,0-6.51,2.42s-.8.68-2.52,2.19a7.09,7.09,0,0,1-3.5,1.91s-2.54.69-6.13-1.8l0,0c-.36-.24-.74-.51-1.13-.82L-228,182s-3.64-2.85-7-2.7a9,9,0,0,0-6.3,2.88l-2.47,2.33a5.46,5.46,0,0,1-6.15,1.1,23,23,0,0,1-2.92-1.91,38.66,38.66,0,0,0-3.83-2.57V184c.56.36,1.28.85,2.21,1.5a26.4,26.4,0,0,0,3.36,2.23,7.46,7.46,0,0,0,6.48.28,13.87,13.87,0,0,0,4.08-3.18,13.48,13.48,0,0,1,3.91-2.78s2.48-1.13,5.84,1.07c0,0,1.35.9,4,2.92l2,1.34,0,0a11.71,11.71,0,0,0,2.23,1.32,10.59,10.59,0,0,0,4.7,1.08,7.07,7.07,0,0,0,4.27-1.3s.21-.14.52-.38v-.24a9.77,9.77,0,0,0,1-.85l2.15-1.93a9.39,9.39,0,0,1,4.82-2,10.9,10.9,0,0,1,5.82,1.19s1.14.63,3.46,2.27a26.71,26.71,0,0,0,3.35,2.23,7.47,7.47,0,0,0,6.48.28,13.72,13.72,0,0,0,4.08-3.18,13.48,13.48,0,0,1,3.91-2.78s2.49-1.13,5.85,1.07c0,0,1.34.9,4,2.92l2.41,1.66a11,11,0,0,0,6.43,2.12,7.17,7.17,0,0,0,4.28-1.3l.51-.38v-3.22c-.62.61-2.76,2.52-4.94,2.45,0,0-2.83.16-6.53-2.76" transform="translate(284.16)"/><path class="cls-3" d="M-163.66,195.5a25,25,0,0,1-4.38-3.05s-4.64-4.1-8.8-4a8.84,8.84,0,0,0-6.58,2.72l-2.42,2.22s-2.47,2.58-4.88,1.71c0,0-.71.19-4.37-2.67,0,0-3.76-2.91-6.77-3.41,0,0-4.69-1.17-8.52.94a18.8,18.8,0,0,0-4.14,3.13s-2.12,2.41-4.56,2.18a7.82,7.82,0,0,1-3.71-1.2,34,34,0,0,1-3.86-2.77s-4.64-4.1-8.81-4A8.81,8.81,0,0,0-242,190.1l-2.43,2.23s-2.47,2.57-4.87,1.71c0,0-.71.19-4.38-2.68a26.52,26.52,0,0,0-3-1.93v4.81c.61.43,1.32.94,2.06,1.53,0,0,3.91,3.38,7.95,2.39a8.75,8.75,0,0,0,4.77-2.67,22.22,22.22,0,0,1,4.27-3.53,5.07,5.07,0,0,1,4.76.12,29.3,29.3,0,0,1,3.68,2.46s2.5,1.91,4.28,3v0q.38.22.72.39l.16.09a7,7,0,0,0,.65.32,11.11,11.11,0,0,0,3.18,1,8.47,8.47,0,0,0,4.63-.47,11.87,11.87,0,0,0,2.44-1.39v-.19a14,14,0,0,0,1.18-1s3.24-3.38,6.05-3.47a10.25,10.25,0,0,1,6,1.29,39.7,39.7,0,0,1,3.9,2.75s3.91,3.38,8,2.39a8.75,8.75,0,0,0,4.77-2.67,22,22,0,0,1,4.26-3.53,5.07,5.07,0,0,1,4.76.12,29,29,0,0,1,3.69,2.46,56.61,56.61,0,0,0,5.16,3.54s4.4,2.52,8.45.8a11.41,11.41,0,0,0,2.45-1.38v-5.4c-.7.57-1.46,1.23-2.29,2,0,0-2.76,2.76-6.85.26" transform="translate(284.16)"/><path class="cls-3" d="M-166,203.37l-3.43-2.6s-3.64-2.84-7-2.7a9,9,0,0,0-6.3,2.88l-2.46,2.34a5.46,5.46,0,0,1-6.15,1.1,24.55,24.55,0,0,1-2.93-1.92,34.39,34.39,0,0,0-4.16-2.75,12.31,12.31,0,0,0-6.38-1.38,10.34,10.34,0,0,0-6.51,2.42s-.8.68-2.52,2.19a7.07,7.07,0,0,1-3.5,1.92s-2.54.69-6.13-1.81l0,0c-.36-.24-.74-.51-1.13-.81l-3.43-2.6s-3.64-2.85-7-2.71a9,9,0,0,0-6.3,2.88l-2.47,2.34a5.46,5.46,0,0,1-6.15,1.1,24.1,24.1,0,0,1-2.92-1.92,38.66,38.66,0,0,0-3.83-2.57v2.87c.56.36,1.28.84,2.21,1.49a27.07,27.07,0,0,0,3.36,2.24,7.48,7.48,0,0,0,6.48.27,13.92,13.92,0,0,0,4.08-3.17,13.28,13.28,0,0,1,3.91-2.78s2.48-1.14,5.84,1.06c0,0,1.35.9,4,2.92l2,1.34,0,0a11.71,11.71,0,0,0,2.23,1.32,10.58,10.58,0,0,0,4.7,1.09,7.12,7.12,0,0,0,4.27-1.31l.52-.37v-.25a9.77,9.77,0,0,0,1-.85l2.15-1.92a9.46,9.46,0,0,1,4.82-2,11,11,0,0,1,5.82,1.2s1.14.63,3.46,2.26a26.71,26.71,0,0,0,3.35,2.23,7.47,7.47,0,0,0,6.48.28,13.72,13.72,0,0,0,4.08-3.18,13.48,13.48,0,0,1,3.91-2.78s2.49-1.13,5.85,1.07c0,0,1.34.9,4,2.92l2.41,1.66a11,11,0,0,0,6.43,2.12,7.09,7.09,0,0,0,4.28-1.3l.51-.37v-3.23c-.62.61-2.76,2.52-4.94,2.46,0,0-2.83.16-6.53-2.77" transform="translate(284.16)"/><path class="cls-3" d="M-163.66,213.13a25,25,0,0,1-4.38-3s-4.64-4.1-8.8-4a8.89,8.89,0,0,0-6.58,2.72l-2.42,2.23s-2.47,2.57-4.88,1.71c0,0-.71.19-4.37-2.68,0,0-3.76-2.91-6.77-3.41,0,0-4.69-1.16-8.52.94a18.7,18.7,0,0,0-4.14,3.14s-2.12,2.4-4.56,2.17a7.68,7.68,0,0,1-3.71-1.2,33.38,33.38,0,0,1-3.86-2.76s-4.64-4.11-8.81-4a8.86,8.86,0,0,0-6.57,2.72l-2.43,2.23s-2.47,2.58-4.87,1.71c0,0-.71.19-4.38-2.68a26.52,26.52,0,0,0-3-1.93v4.82c.61.42,1.32.94,2.06,1.53,0,0,3.91,3.37,7.95,2.39a8.81,8.81,0,0,0,4.77-2.68,22.61,22.61,0,0,1,4.27-3.53,5.1,5.1,0,0,1,4.76.12,28.74,28.74,0,0,1,3.68,2.47s2.5,1.9,4.28,3v0c.25.15.49.27.72.39l.16.09s.24.13.65.31a10.8,10.8,0,0,0,3.18,1,8.47,8.47,0,0,0,4.63-.47,11.31,11.31,0,0,0,2.44-1.39v-.19a14,14,0,0,0,1.18-1s3.24-3.38,6.05-3.46a10.16,10.16,0,0,1,6,1.29,38.5,38.5,0,0,1,3.9,2.74s3.91,3.38,8,2.4a8.81,8.81,0,0,0,4.77-2.68A22,22,0,0,1-179,210.7a5.07,5.07,0,0,1,4.76.12,29,29,0,0,1,3.69,2.46,54.58,54.58,0,0,0,5.16,3.54s4.4,2.52,8.45.81a11.22,11.22,0,0,0,2.45-1.39v-5.4c-.7.58-1.46,1.24-2.29,2,0,0-2.76,2.76-6.85.26" transform="translate(284.16)"/><path class="cls-3" d="M-224.82,170.19l0,0a11.71,11.71,0,0,0,2.23,1.32,10.45,10.45,0,0,0,4.7,1.08,7.07,7.07,0,0,0,4.27-1.3l.52-.37v-.25a9.77,9.77,0,0,0,1-.85l2.15-1.92,0,0h-3.19v-.19l-.21.19h-.26l-.22.19a7.16,7.16,0,0,1-3.5,1.92s-2.54.68-6.13-1.81l0,0c-.36-.24-.74-.51-1.13-.82l-.8-.6h-4.14c.66.47,1.58,1.14,2.77,2Z" transform="translate(284.16)"/><path class="cls-3" d="M-251.12,170.54a7.46,7.46,0,0,0,6.48.28,13.87,13.87,0,0,0,4.08-3.18s.36-.36.89-.82h-3.57l-.55.51a5.45,5.45,0,0,1-6.15,1.11,26.05,26.05,0,0,1-2.51-1.62h-4.24c.56.35,1.28.84,2.21,1.49a26.4,26.4,0,0,0,3.36,2.23" transform="translate(284.16)"/><path class="cls-3" d="M-232.4,232.41a8.25,8.25,0,0,1-8.25,8.25,8.25,8.25,0,0,1-8.25-8.25,8.24,8.24,0,0,1,8.25-8.24,8.25,8.25,0,0,1,8.25,8.24" transform="translate(284.16)"/><path class="cls-3" d="M-162.3,232.41a8.25,8.25,0,0,1-8.25,8.25,8.25,8.25,0,0,1-8.25-8.25,8.24,8.24,0,0,1,8.25-8.24,8.25,8.25,0,0,1,8.25,8.24" transform="translate(284.16)"/><polygon class="cls-3" points="61.29 242.54 59.5 242.54 57.26 222.29 59.26 222.29 61.29 242.54"/><polygon class="cls-3" points="65.83 242.54 64.04 242.54 62.33 222.29 64.33 222.29 65.83 242.54"/><polygon class="cls-3" points="70.37 242.54 68.58 242.54 67.41 222.29 69.41 222.29 70.37 242.54"/><polygon class="cls-3" points="74.91 242.54 73.12 242.54 72.48 222.29 74.48 222.29 74.91 242.54"/><polygon class="cls-3" points="79.45 242.54 77.66 242.54 77.56 222.29 79.56 222.29 79.45 242.54"/><polygon class="cls-3" points="83.99 242.54 82.2 242.54 82.63 222.29 84.63 222.29 83.99 242.54"/><polygon class="cls-3" points="88.53 242.54 86.75 242.54 87.71 222.29 89.71 222.29 88.53 242.54"/><polygon class="cls-3" points="93.08 242.54 91.29 242.54 92.78 222.29 94.78 222.29 93.08 242.54"/><polygon class="cls-3" points="97.62 242.54 95.83 242.54 97.86 222.29 99.86 222.29 97.62 242.54"/></g></svg>