<svg id="Layer_1" data-name="Layer 1" xmlns="http://www.w3.org/2000/svg" viewBox="0 0 157.12 165.02"><defs><style>.cls-1{fill:#ffef00;}</style></defs><title>script tv</title><path class="cls-1" d="M124.85,247.89a17.62,17.62,0,0,1-4.16-.45,20.25,20.25,0,0,1-3.72-1.28l.51-4.94a23,23,0,0,0,3.53,1.69,10.43,10.43,0,0,0,3.65.64,5,5,0,0,0,2.63-.56,1.91,1.91,0,0,0,.91-1.77,2.28,2.28,0,0,0-.48-1.49,4.05,4.05,0,0,0-1.43-1c-.64-.31-1.43-.64-2.38-1a20.68,20.68,0,0,1-3.64-1.72,6.76,6.76,0,0,1-2.29-2.25,6.28,6.28,0,0,1-.78-3.25,6.1,6.1,0,0,1,1-3.54,6.86,6.86,0,0,1,3-2.4,11,11,0,0,1,4.58-.86,14.75,14.75,0,0,1,4,.49,14.38,14.38,0,0,1,3.25,1.32l-.52,4.94a19,19,0,0,0-3.14-1.8,8.29,8.29,0,0,0-3.47-.71,3.83,3.83,0,0,0-2.31.6,2,2,0,0,0-.81,1.73,2.2,2.2,0,0,0,1.14,2,27.71,27.71,0,0,0,3.66,1.66,22.38,22.38,0,0,1,2.83,1.3,8.83,8.83,0,0,1,2,1.49,5.14,5.14,0,0,1,1.17,1.86,6.71,6.71,0,0,1,.39,2.38,6.51,6.51,0,0,1-1.06,3.77,6.59,6.59,0,0,1-3.1,2.36,13.5,13.5,0,0,1-5,.82" transform="translate(-116.97 -93.68)"/><path class="cls-1" d="M148.75,247.89a12.73,12.73,0,0,1-6.72-1.65,10.6,10.6,0,0,1-4.1-4.38,13.1,13.1,0,0,1-1.39-6,13.42,13.42,0,0,1,1.38-6.09,10.55,10.55,0,0,1,4.12-4.42,13.2,13.2,0,0,1,6.9-1.65,13.41,13.41,0,0,1,3.54.43,11.69,11.69,0,0,1,2.7,1.06l-.47,4.66a11.75,11.75,0,0,0-2.41-.94,10.75,10.75,0,0,0-2.8-.37,6.68,6.68,0,0,0-5.2,2,8.31,8.31,0,0,0,0,10.49,6.48,6.48,0,0,0,5.1,2.11,9.31,9.31,0,0,0,2.71-.4,13,13,0,0,0,2.6-1.13l.51,4.89a12.13,12.13,0,0,1-2.92,1,16.15,16.15,0,0,1-3.6.39" transform="translate(-116.97 -93.68)"/><path class="cls-1" d="M159.14,247.42v-23.3h5.4l.14,2.47a11.63,11.63,0,0,1,2.5-2,6.64,6.64,0,0,1,3.52-1,5.38,5.38,0,0,1,1,.09l-.42,5.68a6.13,6.13,0,0,0-1-.18c-.34,0-.67-.05-1-.05a5.42,5.42,0,0,0-2.68.68,3.93,3.93,0,0,0-1.7,1.65v15.89Z" transform="translate(-116.97 -93.68)"/><path class="cls-1" d="M174.52,214.8h5.77v5.78h-5.77Zm0,9.32h5.77v23.3h-5.77Z" transform="translate(-116.97 -93.68)"/><path class="cls-1" d="M185.7,258.7V224.12h4.66l1.11,3.87-1.72-.61a13.84,13.84,0,0,1,3.5-2.64,9.79,9.79,0,0,1,4.61-1,9.69,9.69,0,0,1,5.75,1.65,10.33,10.33,0,0,1,3.53,4.41,15.65,15.65,0,0,1,0,12,10.3,10.3,0,0,1-3.53,4.4,9.69,9.69,0,0,1-5.75,1.66,11.1,11.1,0,0,1-4.43-.75,12.68,12.68,0,0,1-3.45-2.38l1.49-1.16v15.1ZM197,243.13a4.62,4.62,0,0,0,4-2,10.46,10.46,0,0,0,0-10.56,4.63,4.63,0,0,0-4-2,5.44,5.44,0,0,0-3.28.93A5.37,5.37,0,0,0,191.8,232a12.4,12.4,0,0,0,0,7.62,5.35,5.35,0,0,0,1.89,2.57,5.44,5.44,0,0,0,3.28.93" transform="translate(-116.97 -93.68)"/><path class="cls-1" d="M219.67,247.89a6.43,6.43,0,0,1-3.57-.9,5.47,5.47,0,0,1-2-2.3,6.86,6.86,0,0,1-.65-2.91V228.87h-3.31l.52-4.75h2.79V219l5.78-.61v5.73h5.12v4.75H219.2v10.54a10.9,10.9,0,0,0,.21,2.55,1.27,1.27,0,0,0,1,1,9.77,9.77,0,0,0,2.38.2h1.58l-.51,4.76Z" transform="translate(-116.97 -93.68)"/><rect class="cls-1" x="110.57" y="147.4" width="6.06" height="6.34"/><path class="cls-1" d="M245.38,247.89a6.39,6.39,0,0,1-3.56-.9,5.47,5.47,0,0,1-2-2.3,6.86,6.86,0,0,1-.65-2.91V228.87h-3.31l.51-4.75h2.8V219l5.78-.61v5.73H250v4.75h-5.12v10.54a10.9,10.9,0,0,0,.21,2.55,1.27,1.27,0,0,0,1,1,9.77,9.77,0,0,0,2.38.2H250l-.51,4.76Z" transform="translate(-116.97 -93.68)"/><polygon class="cls-1" points="143.23 153.74 134.28 130.44 139.97 130.44 145.7 146.57 151.43 130.44 157.12 130.44 148.17 153.74 143.23 153.74"/><path class="cls-1" d="M248.88,93.68H142.18a15.68,15.68,0,0,0-15.69,15.69v76.92A15.69,15.69,0,0,0,142.18,202h106.7a15.69,15.69,0,0,0,15.69-15.69V109.37a15.68,15.68,0,0,0-15.69-15.69m7.2,83.23a15.68,15.68,0,0,1-15.69,15.68H150.66A15.68,15.68,0,0,1,135,176.91V117.84a15.68,15.68,0,0,1,15.68-15.69h89.73a15.68,15.68,0,0,1,15.69,15.69Z" transform="translate(-116.97 -93.68)"/><path class="cls-1" d="M241.67,114.45s-2.83.15-6.52-2.77l-.81-.61H230.2c.67.48,1.58,1.14,2.78,2l2.41,1.66a11,11,0,0,0,6.43,2.12,7.09,7.09,0,0,0,4.28-1.3l.51-.38V112c-.62.61-2.76,2.52-4.94,2.46" transform="translate(-116.97 -93.68)"/><path class="cls-1" d="M208.62,114.8a7.47,7.47,0,0,0,6.48.28,13.82,13.82,0,0,0,4.09-3.18s.36-.36.89-.83h-3.57l-.55.52a5.46,5.46,0,0,1-6.15,1.1,22.45,22.45,0,0,1-2.51-1.62h-4.24c.55.36,1.28.85,2.21,1.5a26.71,26.71,0,0,0,3.35,2.23" transform="translate(-116.97 -93.68)"/><path class="cls-1" d="M237.47,121.44a25,25,0,0,1-4.38-3s-4.63-4.1-8.8-4a8.84,8.84,0,0,0-6.58,2.72l-2.42,2.22s-2.47,2.58-4.88,1.72c0,0-.71.18-4.37-2.68,0,0-3.76-2.91-6.77-3.41,0,0-4.69-1.17-8.51.94a18.56,18.56,0,0,0-4.15,3.14s-2.12,2.4-4.56,2.17a7.85,7.85,0,0,1-3.71-1.2,34.52,34.52,0,0,1-3.86-2.77s-4.64-4.1-8.81-4A8.86,8.86,0,0,0,159.1,116l-2.43,2.23s-2.46,2.58-4.87,1.71c0,0-.71.19-4.37-2.68a26.52,26.52,0,0,0-3-1.93v4.81c.6.43,1.31.95,2.05,1.53,0,0,3.91,3.38,7.95,2.4a8.81,8.81,0,0,0,4.77-2.68,22.22,22.22,0,0,1,4.27-3.53,5.07,5.07,0,0,1,4.76.12,28.51,28.51,0,0,1,3.68,2.46s2.5,1.91,4.28,3v0c.25.14.49.27.72.38l.16.09a7,7,0,0,0,.65.32,11.09,11.09,0,0,0,3.19,1,8.44,8.44,0,0,0,4.62-.47,11.22,11.22,0,0,0,2.45-1.39v-.19c.37-.29.76-.61,1.17-1,0,0,3.24-3.38,6.05-3.46a10.16,10.16,0,0,1,6,1.29,39.23,39.23,0,0,1,3.91,2.74s3.91,3.38,7.95,2.39a8.75,8.75,0,0,0,4.77-2.67A22,22,0,0,1,222.1,119a5.09,5.09,0,0,1,4.77.12,29.3,29.3,0,0,1,3.68,2.46,54.58,54.58,0,0,0,5.16,3.54s4.41,2.52,8.45.81a11.77,11.77,0,0,0,2.45-1.39v-5.4c-.7.57-1.46,1.24-2.29,2,0,0-2.76,2.76-6.85.26" transform="translate(-116.97 -93.68)"/><path class="cls-1" d="M235.15,128.89l-3.43-2.6s-3.64-2.85-7-2.7a9,9,0,0,0-6.3,2.88L216,128.8a5.46,5.46,0,0,1-6.15,1.1,23.38,23.38,0,0,1-2.93-1.91,33.55,33.55,0,0,0-4.16-2.75,12.31,12.31,0,0,0-6.38-1.38,10.32,10.32,0,0,0-6.5,2.42s-.81.68-2.53,2.19a7.16,7.16,0,0,1-3.49,1.92s-2.55.68-6.14-1.81v0c-.37-.24-.75-.51-1.14-.82l-3.43-2.6s-3.64-2.84-7-2.7a9,9,0,0,0-6.3,2.88l-2.47,2.34a5.44,5.44,0,0,1-6.14,1.1,24.55,24.55,0,0,1-2.93-1.92,39.35,39.35,0,0,0-3.82-2.57v2.87c.55.35,1.28.84,2.2,1.49A26.4,26.4,0,0,0,150,130.9a7.46,7.46,0,0,0,6.48.28,13.87,13.87,0,0,0,4.08-3.18,13.48,13.48,0,0,1,3.91-2.78s2.48-1.13,5.84,1.07c0,0,1.35.9,4.05,2.92l1.94,1.34,0,0a12.13,12.13,0,0,0,2.23,1.32,10.49,10.49,0,0,0,4.7,1.08,7.1,7.1,0,0,0,4.28-1.3l.51-.37v-.25a9.77,9.77,0,0,0,1-.85l2.16-1.92a9.41,9.41,0,0,1,4.81-2,11,11,0,0,1,5.83,1.19s1.13.64,3.45,2.27a26.71,26.71,0,0,0,3.35,2.23,7.47,7.47,0,0,0,6.48.28,13.72,13.72,0,0,0,4.08-3.18,13.48,13.48,0,0,1,3.91-2.78s2.49-1.13,5.85,1.07c0,0,1.34.9,4,2.92l2.41,1.66a11,11,0,0,0,6.43,2.12,7.09,7.09,0,0,0,4.28-1.3l.51-.38V129.2c-.62.61-2.76,2.52-4.94,2.46,0,0-2.83.15-6.52-2.77" transform="translate(-116.97 -93.68)"/><path class="cls-1" d="M237.47,138.65a25,25,0,0,1-4.38-3.05s-4.63-4.1-8.8-4a8.84,8.84,0,0,0-6.58,2.72l-2.42,2.22s-2.47,2.58-4.88,1.72c0,0-.71.18-4.37-2.68,0,0-3.76-2.91-6.77-3.41,0,0-4.69-1.17-8.51.94a18.56,18.56,0,0,0-4.15,3.14s-2.12,2.4-4.56,2.17a7.82,7.82,0,0,1-3.71-1.2,34,34,0,0,1-3.86-2.77s-4.64-4.1-8.81-4a8.86,8.86,0,0,0-6.57,2.72l-2.43,2.23s-2.46,2.57-4.87,1.71c0,0-.71.19-4.37-2.68a26.52,26.52,0,0,0-3-1.93v4.81c.6.43,1.31.94,2.05,1.53,0,0,3.91,3.38,7.95,2.4a8.81,8.81,0,0,0,4.77-2.68,22.22,22.22,0,0,1,4.27-3.53,5.07,5.07,0,0,1,4.76.12,28.51,28.51,0,0,1,3.68,2.46s2.5,1.91,4.28,3v0q.38.23.72.39l.16.09a7,7,0,0,0,.65.32,11.09,11.09,0,0,0,3.19,1,8.44,8.44,0,0,0,4.62-.47,11.22,11.22,0,0,0,2.45-1.39v-.19c.37-.29.76-.61,1.17-1,0,0,3.24-3.38,6.05-3.46a10.16,10.16,0,0,1,6,1.29,39.23,39.23,0,0,1,3.91,2.74s3.91,3.38,7.95,2.39a8.75,8.75,0,0,0,4.77-2.67,22,22,0,0,1,4.26-3.53,5.09,5.09,0,0,1,4.77.12,29.3,29.3,0,0,1,3.68,2.46,54.58,54.58,0,0,0,5.16,3.54s4.41,2.52,8.45.8a11.41,11.41,0,0,0,2.45-1.38v-5.4c-.7.57-1.46,1.23-2.29,2,0,0-2.76,2.76-6.85.26" transform="translate(-116.97 -93.68)"/><path class="cls-1" d="M235.15,146.52l-3.43-2.59s-3.64-2.85-7-2.71a9,9,0,0,0-6.3,2.88L216,146.44a5.46,5.46,0,0,1-6.15,1.1,24.55,24.55,0,0,1-2.93-1.92,32.7,32.7,0,0,0-4.16-2.74,12.37,12.37,0,0,0-6.38-1.39,10.39,10.39,0,0,0-6.5,2.42s-.81.68-2.53,2.2a7.09,7.09,0,0,1-3.49,1.91s-2.55.69-6.14-1.81v0c-.37-.25-.75-.51-1.14-.82l-3.43-2.6s-3.64-2.85-7-2.7a9,9,0,0,0-6.3,2.87l-2.47,2.34a5.44,5.44,0,0,1-6.14,1.1,24.55,24.55,0,0,1-2.93-1.92,39.35,39.35,0,0,0-3.82-2.57v2.87c.55.36,1.28.84,2.2,1.5a27.7,27.7,0,0,0,3.36,2.23,7.48,7.48,0,0,0,6.48.27,13.92,13.92,0,0,0,4.08-3.17,13.28,13.28,0,0,1,3.91-2.78s2.48-1.14,5.84,1.06c0,0,1.35.91,4.05,2.92l1.94,1.34,0,0a12.13,12.13,0,0,0,2.23,1.32,10.48,10.48,0,0,0,4.7,1.09,7.19,7.19,0,0,0,4.28-1.3L188,149v-.25a9.77,9.77,0,0,0,1-.85l2.16-1.92a9.34,9.34,0,0,1,4.81-2,10.94,10.94,0,0,1,5.83,1.19s1.13.63,3.45,2.26a26.71,26.71,0,0,0,3.35,2.23,7.47,7.47,0,0,0,6.48.28,13.78,13.78,0,0,0,4.08-3.17,13.28,13.28,0,0,1,3.91-2.78s2.49-1.14,5.85,1.06c0,0,1.34.9,4,2.92l2.41,1.66a11,11,0,0,0,6.43,2.12,7.09,7.09,0,0,0,4.28-1.3l.51-.37v-3.23c-.62.61-2.76,2.52-4.94,2.46,0,0-2.83.16-6.52-2.77" transform="translate(-116.97 -93.68)"/><path class="cls-1" d="M237.47,156.28a25.14,25.14,0,0,1-4.38-3s-4.63-4.11-8.8-4a8.89,8.89,0,0,0-6.58,2.72l-2.42,2.23s-2.47,2.58-4.88,1.71c0,0-.71.19-4.37-2.68,0,0-3.76-2.91-6.77-3.4,0,0-4.69-1.17-8.51.93a18.56,18.56,0,0,0-4.15,3.14s-2.12,2.4-4.56,2.17a7.68,7.68,0,0,1-3.71-1.2,34.32,34.32,0,0,1-3.86-2.76s-4.64-4.1-8.81-4a8.86,8.86,0,0,0-6.57,2.72l-2.43,2.23s-2.46,2.58-4.87,1.71c0,0-.71.19-4.37-2.68a26.52,26.52,0,0,0-3-1.93V155c.6.42,1.31.94,2.05,1.53,0,0,3.91,3.38,7.95,2.39a8.81,8.81,0,0,0,4.77-2.68,22.61,22.61,0,0,1,4.27-3.53,5.09,5.09,0,0,1,4.76.13,28.51,28.51,0,0,1,3.68,2.46s2.5,1.9,4.28,3v0c.25.15.49.27.72.39l.16.09s.24.13.65.32a11.14,11.14,0,0,0,3.19.95,8.44,8.44,0,0,0,4.62-.47,11.22,11.22,0,0,0,2.45-1.39v-.18c.37-.3.76-.62,1.17-1,0,0,3.24-3.38,6.05-3.46a10.16,10.16,0,0,1,6,1.29,38.43,38.43,0,0,1,3.91,2.75s3.91,3.37,7.95,2.39a8.81,8.81,0,0,0,4.77-2.68,22,22,0,0,1,4.26-3.53,5.13,5.13,0,0,1,4.77.12,29.3,29.3,0,0,1,3.68,2.46,54.58,54.58,0,0,0,5.16,3.54s4.41,2.52,8.45.81a11.22,11.22,0,0,0,2.45-1.39V154c-.7.57-1.46,1.23-2.29,2,0,0-2.76,2.76-6.85.26" transform="translate(-116.97 -93.68)"/><path class="cls-1" d="M176.31,113.34l0,0a12.13,12.13,0,0,0,2.23,1.32,10.49,10.49,0,0,0,4.7,1.08,7.1,7.1,0,0,0,4.28-1.3l.51-.37v-.25a9.77,9.77,0,0,0,1-.85l2.16-1.92v0H188v-.19a2,2,0,0,1-.21.19h-.26l-.22.19a7.16,7.16,0,0,1-3.49,1.92s-2.55.68-6.14-1.81v0c-.37-.24-.75-.51-1.14-.82l-.8-.6h-4.14c.66.47,1.58,1.14,2.78,2Z" transform="translate(-116.97 -93.68)"/><path class="cls-1" d="M150,113.69a7.46,7.46,0,0,0,6.48.28,13.87,13.87,0,0,0,4.08-3.18s.36-.36.9-.82h-3.58l-.55.52a5.44,5.44,0,0,1-6.14,1.1,23,23,0,0,1-2.52-1.62h-4.23c.55.35,1.28.84,2.2,1.49a26.4,26.4,0,0,0,3.36,2.23" transform="translate(-116.97 -93.68)"/><path class="cls-1" d="M168.73,175.56a8.25,8.25,0,1,1-8.25-8.24,8.25,8.25,0,0,1,8.25,8.24" transform="translate(-116.97 -93.68)"/><path class="cls-1" d="M238.83,175.56a8.25,8.25,0,1,1-8.25-8.24,8.25,8.25,0,0,1,8.25,8.24" transform="translate(-116.97 -93.68)"/><polygon class="cls-1" points="74.91 92.01 73.12 92.01 72.48 71.76 74.48 71.76 74.91 92.01"/><polygon class="cls-1" points="79.45 92.01 77.66 92.01 77.56 71.76 79.56 71.76 79.45 92.01"/><polygon class="cls-1" points="83.99 92.01 82.2 92.01 82.63 71.76 84.63 71.76 83.99 92.01"/><polygon class="cls-1" points="93.08 92.01 91.29 92.01 92.78 71.76 94.78 71.76 93.08 92.01"/><polygon class="cls-1" points="97.62 92.01 95.83 92.01 97.86 71.76 99.86 71.76 97.62 92.01"/><polygon class="cls-1" points="65.83 92.01 64.04 92.01 62.33 71.76 64.33 71.76 65.83 92.01"/><polygon class="cls-1" points="70.37 92.01 68.58 92.01 67.41 71.76 69.41 71.76 70.37 92.01"/><polygon class="cls-1" points="61.29 92.01 59.5 92.01 57.26 71.76 59.26 71.76 61.29 92.01"/><polygon class="cls-1" points="88.53 92.01 86.74 92.01 87.71 71.76 89.71 71.76 88.53 92.01"/></svg>