<svg width="150" height="53" viewBox="0 0 150 53" fill="none" xmlns="http://www.w3.org/2000/svg" aria-labelledby="Karus Logo" role="img"><g clip-path="url(#clip0_173_2264)"><path d="M15.331 44.8485C17.6459 45.4032 20.0273 45.6335 22.4057 45.5335C19.4327 48.4129 13.7817 49.007 8.5907 46.2246C10.957 46.8974 13.6168 46.3943 15.331 44.8485Z" fill="url(#paint0_radial_173_2264)"></path><path d="M16.4114 18.0558C20.8505 23.1646 21.6947 30.1495 16.6081 32.15C7.90994 35.5796 -0.508286 24.9226 2.83086 13.3365C5.06705 9.16278 8.64071 5.47706 13.6169 2.99011C11.4745 6.39546 10.2581 9.33252 9.69374 11.821C8.9781 12.065 8.28213 12.3635 7.61188 12.7136C8.22767 12.85 8.83437 13.0258 9.42746 13.238C7.92204 24.1481 19.6492 25.1984 16.4114 18.0558Z" fill="url(#paint1_radial_173_2264)"></path><path d="M7.61183 12.7181C15.8137 11.5785 25.9809 21.0171 29.6408 31.3347C28.0386 29.9207 26.0884 28.9599 23.9914 28.5552C34.6957 41.5598 29.8406 52.0577 20.2528 52.0577C15.9363 51.1287 11.9253 49.1222 8.59073 46.223C13.7818 49.0055 19.4328 48.4099 22.4058 45.5319C20.0274 45.632 17.6459 45.4016 15.3311 44.8469C1.01675 41.334 -3.57515 25.309 2.83081 13.3365C-0.508339 24.918 7.90989 35.5751 16.608 32.15C21.6947 30.145 20.8444 23.16 16.4113 18.0558C14.5367 15.878 12.1341 14.22 9.43498 13.2425C8.83886 13.0288 8.23064 12.8545 7.61183 12.7181Z" fill="url(#paint2_radial_173_2264)"></path><path d="M25.2577 30.1828C24.6253 29.9434 23.9747 29.7585 23.312 29.6266C29.6332 37.3073 30.5274 44.1119 28.2262 48.3962C31.119 44.5044 30.9102 37.8559 25.2577 30.1828Z" fill="url(#paint3_radial_173_2264)"></path><path d="M11.5062 14.1503C17.9546 15.9128 24.6434 22.5902 28.0537 30.1586C28.612 30.5087 29.1431 30.9012 29.6408 31.3331C25.9809 21.0171 15.8137 11.5785 7.61182 12.7181C8.2276 12.8545 8.83431 13.0303 9.42739 13.2425C10.1415 13.4941 10.836 13.7972 11.5062 14.1503Z" fill="url(#paint4_radial_173_2264)"></path><path d="M1.95034 15.1733C-0.816903 26.4532 7.42128 36.5753 15.9288 33.2245C17.3253 32.6744 18.2739 31.7454 18.8246 30.586C18.2315 31.2892 17.469 31.8287 16.6081 32.1546C7.90997 35.5796 -0.508255 24.9226 2.83089 13.3365C2.50863 13.9427 2.21662 14.5489 1.95034 15.1733Z" fill="url(#paint5_radial_173_2264)"></path><path d="M23.8779 17.0055C25.7252 18.4377 27.3986 20.0835 28.8616 21.9082C32.0071 25.7743 34.1223 30.0071 36.0256 33.2745C41.5359 42.7434 47.2837 40.3686 50.3218 35.7645C45.6633 47.8643 32.9119 54.7735 20.2528 52.0562C29.8405 52.0562 34.6957 41.5583 23.9914 28.5537C26.0883 28.9584 28.0386 29.9192 29.6408 31.3332C25.9809 21.0171 15.8137 11.5785 7.61182 12.7182C8.28207 12.3666 8.97804 12.0665 9.69368 11.821C16.4174 9.5265 24.3061 12.2347 31.4004 18.0755C28.8465 17.3147 26.3365 16.9298 23.8779 17.0055Z" fill="url(#paint6_radial_173_2264)"></path><path d="M43.3696 6.75917C48.134 12.4742 45.8433 16.7373 36.0377 12.1968C42.9974 11.0117 38.0923 2.14444 25.7903 -4.84398e-06C32.281 -0.0090979 38.5447 2.39753 43.3635 6.75311L43.3696 6.75917Z" fill="url(#paint7_radial_173_2264)"></path><path d="M52.0677 26.3214C52.0723 29.5509 51.4807 32.7517 50.3248 35.766C47.2867 40.3701 41.5389 42.7373 36.0286 33.276C34.1253 30.0025 32.0101 25.7697 28.8646 21.9097C38.3964 26.9427 38.8382 14.2094 27.7556 13.0925C30.2883 11.0132 33.632 11.0844 36.0407 12.1983C45.8463 16.7449 48.137 12.4757 43.3726 6.76068C48.9147 11.7467 52.0753 18.8605 52.0677 26.3214Z" fill="url(#paint8_radial_173_2264)"></path><path d="M43.3697 6.75916C46.969 9.99931 49.6047 14.1715 50.9875 18.8165C50.5851 23.2812 45.6406 21.1277 41.9323 18.2679C37.9471 15.1914 33.1933 11.1602 27.7572 13.091C30.2899 11.0117 33.6336 11.0829 36.0423 12.1968C45.8434 16.7373 48.134 12.4741 43.3697 6.75916Z" fill="url(#paint9_radial_173_2264)"></path><path d="M33.3431 23.0478C37.2466 29.1872 39.9503 40.5656 47.2036 38.897C44.0898 40.7778 39.9942 40.1094 36.0257 33.2806C34.1223 30.0071 32.0072 25.7742 28.8617 21.9142C30.7 22.8842 32.2008 23.1873 33.3431 23.0478Z" fill="url(#paint10_radial_173_2264)"></path><path d="M16.4114 18.0558C20.8505 23.1646 21.6947 30.1495 16.6081 32.15C7.90994 35.5796 -0.508286 24.9226 2.83086 13.3365C7.58171e-05 32.6001 20.1757 31.8257 15.49 22.4826C16.8335 22.0779 17.5507 20.5761 16.4114 18.0558Z" fill="url(#paint11_radial_173_2264)"></path><path d="M79.9036 29.5842L74.8049 19.3545C75.0908 19.0605 75.3601 18.7514 75.6143 18.4301C76.6976 17.0419 77.5237 15.4718 78.0532 13.7911C78.613 12.0377 78.8944 10.2084 78.8884 8.3671H74.8926C74.8956 9.67498 74.7322 10.9768 74.4085 12.2438C74.1059 13.4425 73.6005 14.5807 72.9152 15.6097C72.2615 16.5887 71.387 17.4026 70.3643 17.9845C69.7031 18.3528 68.9829 18.6028 68.2355 18.7256V8.3671H64.3018V29.5842H68.2355V22.6962C69.3627 22.5507 70.4611 22.2279 71.4884 21.7399L75.0439 29.5842H79.9036Z" fill="white"></path><path d="M86.7514 8.3671L80.642 29.5842H84.8934L85.9328 25.5651H92.4159L93.4554 29.5842H97.7068L91.5914 8.3671H86.7514ZM86.8694 21.9188L89.0329 13.5517H89.3007L91.4658 21.9188H86.8694Z" fill="white"></path><path d="M112.767 19.9698C114.009 18.7392 114.63 17.0131 114.631 14.7913C114.631 12.7393 114.009 11.1556 112.767 10.0402C111.525 8.92481 109.764 8.36862 107.485 8.37317H99.9521V29.5903H103.886V21.8142H107.481H107.59L110.703 29.5873H115.403L111.455 20.9292C111.935 20.673 112.377 20.3502 112.767 19.9698ZM103.89 11.9967H107.485C108.401 11.9967 109.112 12.2665 109.619 12.8045C110.125 13.3425 110.377 14.1048 110.375 15.0899C110.375 16.0659 110.122 16.8236 109.619 17.3632C109.115 17.9027 108.404 18.177 107.485 18.1861H103.89V11.9967Z" fill="white"></path><path d="M132.083 22.7705V8.37317H128.15V22.7705C128.15 24.9938 127.091 26.1046 124.972 26.1046C123.878 26.1046 123.075 25.8258 122.562 25.2681C122.049 24.7104 121.794 23.8783 121.795 22.7705V8.37317H117.861V22.7705C117.861 27.5125 120.213 29.8843 124.916 29.8828C127.265 29.8828 129.047 29.2902 130.265 28.1051C131.483 26.92 132.088 25.1423 132.083 22.7705Z" fill="white"></path><path d="M145.272 17.9436L142.408 16.4645C141.848 16.1872 141.349 15.8007 140.939 15.3294C140.613 14.9611 140.432 14.4898 140.423 13.9988C140.423 13.291 140.666 12.7515 141.155 12.3787C141.641 12.0044 142.323 11.8179 143.198 11.8179C143.901 11.8331 144.593 12.015 145.213 12.3484C145.974 12.75 146.673 13.2607 147.286 13.8639L150 10.7404C149.104 9.87961 148.048 9.20369 146.891 8.75359C145.709 8.29287 144.452 8.05948 143.184 8.06554C140.946 8.06554 139.215 8.57324 137.991 9.59015C136.767 10.6071 136.156 12.0407 136.158 13.8942C136.155 15.2006 136.59 16.469 137.395 17.4966C138.22 18.5817 139.383 19.491 140.886 20.2245L143.93 21.7036C145.093 22.2507 145.676 22.9888 145.674 23.9147C145.702 24.571 145.378 25.1923 144.824 25.5439C144.257 25.9228 143.441 26.1122 142.378 26.1122C141.37 26.1001 140.367 25.9743 139.386 25.7379C138.271 25.4772 137.182 25.1226 136.127 24.677L135.59 28.7113C136.571 29.1054 137.591 29.3933 138.633 29.5706C139.79 29.7752 140.963 29.8767 142.139 29.8737C144.635 29.8737 146.559 29.363 147.912 28.3415C149.265 27.3201 149.939 25.8713 149.936 23.9951C149.936 22.8099 149.533 21.6991 148.726 20.6609C147.92 19.6228 146.768 18.7181 145.272 17.9436Z" fill="white"></path><path d="M68.2734 37.718C68.5744 37.7241 68.8695 37.8029 69.1358 37.9453C69.4611 38.1166 69.7606 38.3348 70.0224 38.594L71.1859 37.2573C70.8016 36.889 70.3492 36.5995 69.8529 36.4056C69.3476 36.2085 68.809 36.1085 68.2658 36.1115C67.3081 36.1115 66.5682 36.3298 66.0432 36.7647C65.5182 37.1997 65.2565 37.815 65.258 38.6076C65.2565 39.1668 65.4441 39.7094 65.7875 40.1489C66.187 40.6505 66.6999 41.0521 67.2824 41.3188L68.585 41.9538C69.0843 42.1872 69.3325 42.504 69.3325 42.8995C69.3446 43.1799 69.2054 43.4466 68.9693 43.5966C68.7257 43.7588 68.3778 43.8406 67.9208 43.8406C67.4896 43.8361 67.06 43.7815 66.6409 43.68C66.1628 43.5679 65.6968 43.4163 65.2444 43.2253L65.0144 44.953C65.435 45.1212 65.8723 45.244 66.3186 45.3198C66.8133 45.4092 67.3156 45.4531 67.8195 45.4516C68.8876 45.4516 69.7122 45.2334 70.2917 44.7954C70.8712 44.3574 71.1616 43.7361 71.1601 42.9313C71.1556 42.41 70.971 41.9053 70.6397 41.5037C70.2357 41.0142 69.7304 40.6172 69.16 40.3398L67.9329 39.7063C67.6924 39.5881 67.479 39.4229 67.3035 39.2214C67.1644 39.0638 67.0872 38.8622 67.0827 38.6515C67.0675 38.3833 67.184 38.1226 67.3958 37.9574C67.6546 37.7832 67.9632 37.6983 68.2734 37.718Z" fill="white"></path><path d="M80.1866 36.2388H77.5994V37.7937H80.1866V45.3243H81.8735V37.7937H84.4607V36.2388H81.8735H80.1866Z" fill="white"></path><path d="M92.897 36.2388L90.2781 45.3243H92.0937L92.5385 43.6042H95.3178L95.7626 45.3243H97.5782L94.9592 36.2388H92.897ZM92.9485 42.0432L93.8744 38.4606H93.9894L94.9169 42.0432H92.9485Z" fill="white"></path><path d="M109.266 41.2067C109.799 40.6808 110.065 39.9427 110.065 38.991C110.065 38.112 109.799 37.4331 109.266 36.9557C108.733 36.4783 107.977 36.2388 106.997 36.2388H103.778V45.3243H105.465V41.9978H107.004H107.051L108.384 45.3319H110.396L108.703 41.6189C108.909 41.5083 109.1 41.3703 109.266 41.2067ZM105.465 37.7937H107.004C107.342 37.7756 107.671 37.9013 107.912 38.1393C108.346 38.7182 108.346 39.5154 107.912 40.0943C107.673 40.3353 107.343 40.4626 107.004 40.4429H105.465V37.7937Z" fill="white"></path><path d="M118.881 36.2388H116.294V37.7937H118.881V45.3243H120.566V37.7937H123.154V36.2388H120.566H118.881Z" fill="white"></path><path d="M129.702 36.2388V37.7937V39.9958V41.5568V43.7694V45.3243H131.389H135.923V43.7694H131.389V41.5568H134.773V39.9958H131.389V37.7937H135.923V36.2388H131.389H129.702Z" fill="white"></path><path d="M147.959 41.2067C148.492 40.6808 148.758 39.9427 148.758 38.991C148.758 38.112 148.492 37.4331 147.959 36.9557C147.426 36.4783 146.673 36.2388 145.7 36.2388H142.473V45.3243H144.158V41.9978H145.7H145.746L147.079 45.3319H149.092L147.398 41.6189C147.604 41.5098 147.793 41.3703 147.959 41.2067ZM144.158 37.7937H145.7C146.038 37.774 146.367 37.8998 146.608 38.1393C147.044 38.7182 147.044 39.5154 146.608 40.0943C146.369 40.3353 146.039 40.4626 145.7 40.4429H144.158V37.7937Z" fill="white"></path></g><defs><radialGradient id="paint0_radial_173_2264" cx="0" cy="0" r="1" gradientUnits="userSpaceOnUse" gradientTransform="translate(-34.9847 45.335) scale(81.4801 81.616)"><stop stop-color="white"></stop><stop offset="0.5" stop-color="#EB1D25"></stop><stop offset="1" stop-color="#801519"></stop></radialGradient><radialGradient id="paint1_radial_173_2264" cx="0" cy="0" r="1" gradientUnits="userSpaceOnUse" gradientTransform="translate(-32.0115 -34.6915) scale(104.533 104.708)"><stop stop-color="white"></stop><stop offset="0.5" stop-color="#EB1D25"></stop><stop offset="1" stop-color="#801519"></stop></radialGradient><radialGradient id="paint2_radial_173_2264" cx="0" cy="0" r="1" gradientUnits="userSpaceOnUse" gradientTransform="translate(-49.2581 78.8429) scale(142.515 142.753)"><stop stop-color="white"></stop><stop offset="0.5" stop-color="#EB1D25"></stop><stop offset="1" stop-color="#801519"></stop></radialGradient><radialGradient id="paint3_radial_173_2264" cx="0" cy="0" r="1" gradientUnits="userSpaceOnUse" gradientTransform="translate(-56.2466 31.0376) scale(112.362 112.549)"><stop stop-color="white"></stop><stop offset="0.5" stop-color="#EB1D25"></stop><stop offset="1" stop-color="#801519"></stop></radialGradient><radialGradient id="paint4_radial_173_2264" cx="0" cy="0" r="1" gradientUnits="userSpaceOnUse" gradientTransform="translate(-70.0737 -14.5352) scale(149.85 150.101)"><stop stop-color="white"></stop><stop offset="0.5" stop-color="#EB1D25"></stop><stop offset="1" stop-color="#801519"></stop></radialGradient><radialGradient id="paint5_radial_173_2264" cx="0" cy="0" r="1" gradientUnits="userSpaceOnUse" gradientTransform="translate(-27.1382 47.8204) scale(81.7676 81.9042)"><stop stop-color="white"></stop><stop offset="0.5" stop-color="#EB1D25"></stop><stop offset="1" stop-color="#801519"></stop></radialGradient><radialGradient id="paint6_radial_173_2264" cx="0" cy="0" r="1" gradientUnits="userSpaceOnUse" gradientTransform="translate(-51.1917 -21.0883) scale(191.295 191.615)"><stop stop-color="white"></stop><stop offset="0.5" stop-color="#EB1D25"></stop><stop offset="1" stop-color="#801519"></stop></radialGradient><radialGradient id="paint7_radial_173_2264" cx="0" cy="0" r="1" gradientUnits="userSpaceOnUse" gradientTransform="translate(-50.2506 -28.9326) scale(162.42 162.691)"><stop stop-color="white"></stop><stop offset="0.5" stop-color="#EB1D25"></stop><stop offset="1" stop-color="#801519"></stop></radialGradient><radialGradient id="paint8_radial_173_2264" cx="0" cy="0" r="1" gradientUnits="userSpaceOnUse" gradientTransform="translate(74.6429 -30.3223) scale(109.499 109.682)"><stop stop-color="white"></stop><stop offset="0.5" stop-color="#EB1D25"></stop><stop offset="1" stop-color="#801519"></stop></radialGradient><radialGradient id="paint9_radial_173_2264" cx="0" cy="0" r="1" gradientUnits="userSpaceOnUse" gradientTransform="translate(-1.08627 10.0372) scale(97.3089 97.4715)"><stop stop-color="white"></stop><stop offset="0.5" stop-color="#EB1D25"></stop><stop offset="1" stop-color="#801519"></stop></radialGradient><radialGradient id="paint10_radial_173_2264" cx="0" cy="0" r="1" gradientUnits="userSpaceOnUse" gradientTransform="translate(-59.0712 -19.0029) scale(144.602 144.843)"><stop stop-color="white"></stop><stop offset="0.5" stop-color="#EB1D25"></stop><stop offset="1" stop-color="#801519"></stop></radialGradient><radialGradient id="paint11_radial_173_2264" cx="0" cy="0" r="1" gradientUnits="userSpaceOnUse" gradientTransform="translate(-47.4742 -12.7484) scale(91.6458 91.7989)"><stop stop-color="white"></stop><stop offset="0.5" stop-color="#EB1D25"></stop><stop offset="1" stop-color="#801519"></stop></radialGradient><clipPath id="clip0_173_2264"><rect width="150" height="52.6442" fill="white"></rect></clipPath></defs></svg>