<svg width="364" height="46" viewBox="0 0 364 46" fill="none" xmlns="http://www.w3.org/2000/svg">
<path d="M42.4285 1.40314H0.964285C0.70854 1.40314 0.46327 1.50473 0.282432 1.68557C0.101593 1.86641 0 2.11168 0 2.36742V43.8317C0 44.0874 0.101593 44.3327 0.282432 44.5135C0.46327 44.6943 0.70854 44.7959 0.964285 44.7959H42.4285C42.6843 44.7959 42.9295 44.6943 43.1104 44.5135C43.2912 44.3327 43.3928 44.0874 43.3928 43.8317V2.36742C43.3928 2.11168 43.2912 1.86641 43.1104 1.68557C42.9295 1.50473 42.6843 1.40314 42.4285 1.40314ZM28.9285 29.3674C28.9285 29.6231 28.8269 29.8684 28.6461 30.0492C28.4653 30.2301 28.22 30.3317 27.9643 30.3317H15.4286C15.1728 30.3317 14.9275 30.2301 14.7467 30.0492C14.5659 29.8684 14.4643 29.6231 14.4643 29.3674V16.8317C14.4643 16.5759 14.5659 16.3307 14.7467 16.1498C14.9275 15.969 15.1728 15.8674 15.4286 15.8674H27.9643C28.22 15.8674 28.4653 15.969 28.6461 16.1498C28.8269 16.3307 28.9285 16.5759 28.9285 16.8317V29.3674Z" fill="white"/>
<path d="M129.241 15.8665H116.705C116.173 15.8665 115.741 16.2982 115.741 16.8307V29.3664C115.741 29.899 116.173 30.3307 116.705 30.3307H129.241C129.773 30.3307 130.205 29.899 130.205 29.3664V16.8307C130.205 16.2982 129.773 15.8665 129.241 15.8665Z" fill="white"/>
<path d="M114.77 1.4032H102.234C101.701 1.4032 101.27 1.83492 101.27 2.36748V14.9032C101.27 15.4357 101.701 15.8675 102.234 15.8675H114.77C115.302 15.8675 115.734 15.4357 115.734 14.9032V2.36748C115.734 1.83492 115.302 1.4032 114.77 1.4032Z" fill="white"/>
<path d="M143.699 1.4032H131.164C130.631 1.4032 130.199 1.83492 130.199 2.36748V14.9032C130.199 15.4357 130.631 15.8675 131.164 15.8675H143.699C144.232 15.8675 144.664 15.4357 144.664 14.9032V2.36748C144.664 1.83492 144.232 1.4032 143.699 1.4032Z" fill="white"/>
<path d="M114.77 30.3308H102.234C101.701 30.3308 101.27 30.7625 101.27 31.2951V43.8308C101.27 44.3633 101.701 44.7951 102.234 44.7951H114.77C115.302 44.7951 115.734 44.3633 115.734 43.8308V31.2951C115.734 30.7625 115.302 30.3308 114.77 30.3308Z" fill="white"/>
<path d="M143.699 30.3308H131.164C130.631 30.3308 130.199 30.7625 130.199 31.2951V43.8308C130.199 44.3633 130.631 44.7951 131.164 44.7951H143.699C144.232 44.7951 144.664 44.3633 144.664 43.8308V31.2951C144.664 30.7625 144.232 30.3308 143.699 30.3308Z" fill="white"/>
<path d="M93.0532 1.4032H80.5175C79.9849 1.4032 79.5532 1.83492 79.5532 2.36748V14.9032C79.5532 15.4357 79.9849 15.8675 80.5175 15.8675H93.0532C93.5858 15.8675 94.0175 15.4357 94.0175 14.9032V2.36748C94.0175 1.83492 93.5858 1.4032 93.0532 1.4032Z" fill="white"/>
<path d="M93.0532 30.3308H80.5175C79.9849 30.3308 79.5532 30.7625 79.5532 31.2951V43.8308C79.5532 44.3633 79.9849 44.7951 80.5175 44.7951H93.0532C93.5858 44.7951 94.0175 44.3633 94.0175 43.8308V31.2951C94.0175 30.7625 93.5858 30.3308 93.0532 30.3308Z" fill="white"/>
<path d="M79.5521 16.8209C79.5521 16.5652 79.4505 16.3199 79.2696 16.139C79.0888 15.9582 78.8435 15.8566 78.5878 15.8566H65.0878V2.36748C65.0878 2.11174 64.9862 1.86647 64.8054 1.68563C64.6245 1.50479 64.3793 1.4032 64.1235 1.4032H51.5878C51.3321 1.4032 51.0868 1.50479 50.906 1.68563C50.7251 1.86647 50.6235 2.11174 50.6235 2.36748V43.81C50.6235 44.0658 50.7251 44.311 50.906 44.4919C51.0868 44.6727 51.3321 44.7743 51.5878 44.7743H64.1235C64.3793 44.7743 64.6245 44.6727 64.8054 44.4919C64.9862 44.311 65.0878 44.0658 65.0878 43.81V30.3209H78.5878C78.8435 30.3209 79.0888 30.2193 79.2696 30.0384C79.4505 29.8576 79.5521 29.6123 79.5521 29.3566V16.8209Z" fill="white"/>
<path d="M178.734 11.9945C180.427 11.9945 181.879 12.5993 183.028 13.7483C184.177 14.8974 184.903 16.4698 185.205 18.4051L198.147 14.2321C196.696 9.75683 194.277 6.24914 190.951 3.83005C187.624 1.41096 183.572 0.201416 178.795 0.201416C175.71 0.201416 172.868 0.806189 170.207 1.89478C167.546 3.04385 165.248 4.67674 163.312 6.73296C161.377 8.78919 159.926 11.1478 158.958 13.8693C157.99 16.6512 157.507 19.5541 157.507 22.6385C157.507 25.7833 157.99 28.6862 158.958 31.4077C159.926 34.1896 161.377 36.5483 163.312 38.544C165.248 40.6607 167.546 42.2936 170.207 43.3822C172.868 44.5313 175.71 45.0756 178.795 45.0756C183.572 45.0756 187.624 43.866 190.951 41.4469C194.277 39.0278 196.696 35.5806 198.147 31.0448L185.205 26.8719C184.903 28.8676 184.177 30.4401 183.028 31.5891C181.879 32.7382 180.427 33.2825 178.734 33.2825C176.436 33.2825 174.622 32.3148 173.291 30.3796C171.961 28.4443 171.295 25.9043 171.295 22.6385C171.295 19.4332 171.961 16.8327 173.291 14.8974C174.622 12.9621 176.436 11.9945 178.734 11.9945Z" fill="white"/>
<path d="M230.383 16.7117H217.561V0.927141H203.833V44.3498H217.561V28.2024H230.383V44.3498H244.111V0.927141H230.383V16.7117Z" fill="white"/>
<path d="M249.785 44.3498H263.332L265.63 37.4554H280.024L282.322 44.3498H296.292L280.991 0.927141H265.086L249.785 44.3498ZM276.395 26.6905H269.259L272.827 16.1069L276.395 26.6905Z" fill="white"/>
<path d="M301.973 0.927141V44.3498H315.702V0.927141H301.973Z" fill="white"/>
<path d="M350.133 0.912386V21.4747L336.223 0.912386H322.918V44.3351H336.042V22.2609L351.403 44.3351H363.257V0.912386H350.133Z" fill="white"/>
</svg>
