<svg id="unruly-logo" xmlns="http://www.w3.org/2000/svg" focusable="false" role="img" width="156" height="50" x="0" y="0" viewBox="0 0 2000 645.8" style="enable-background:new 0 0 2000 645.8" xml:space="preserve"><defs><style>.light-gray{fill:#f8f7f7}</style></defs><g id="logo-svg-content"><path class="light-gray" d="M1898.4 10.7H2000l-201.9 234.2-55 148.3h-101.2l55-148.3-28.2-234.2h101.6l15.7 129.4zM295.6 393.2 441.5 0 599 190.5l66.7-179.8h102L621.8 404 463.6 215.2l-66 178zM951.4 234.3l2.3-.9c46.5-18.8 88.8-59.1 106.1-105.8 24-64.6-9-117-73.6-117H837.4L695.6 393.2h101.9l55.1-148.6 26.6 148.6h101.3l-29.1-158.9zm-5.6-88.3c-9.8 26.5-39.3 48-65.8 48h-14.4l35.7-96h14.3c26.5 0 40 21.5 30.2 48zM105.7 10.7h101.9l-96.4 259.9c-6 16 2.3 29.1 18.3 29.1 9.6 0 19-3.4 26.3-9.6 10.9-9.3 13.2-19.1 20.1-37.1l89.8-242.2h102l-77.6 209.3s-5 14.3-11.8 31.7c-17.7 45.9-33.2 88.9-87.6 124.8-33.4 22-66.2 26.6-99.5 26.6-72.4 0-109.2-58.7-82.4-131l96.9-261.5zM1159.4 10.7h102L1165 270.6c-6 16 2.3 29.1 18.3 29.1 9.6 0 19-3.4 26.3-9.6 10.8-9.3 13.2-19.1 20.1-37.1l89.8-242.2h102l-77.6 209.3s-5 14.3-11.8 31.7c-17.7 45.9-33.2 88.9-87.7 124.8-33.4 22-66.2 26.6-99.5 26.6-72.3 0-109.3-58.7-82.4-131l96.9-261.5zM1491.3 10.7h101.9l-104 280.4h138.7l-69.6 102.1h-208.9zM62.7 578.9H23.2L9.7 613.1H2.2l39-97.5h4.3l38.2 97.5h-7.6l-13.4-34.2zm-37-6.2h34.7l-13.2-35c-1.1-2.7-2.4-6.6-4-11.4-1.1 3.9-2.4 7.8-3.9 11.5l-13.6 34.9zM158.2 613.1h-6.8v-90.7h-31.5V516h69.9v6.4h-31.5v90.7zM230.9 539.5c3.3 0 6.6.3 9.8.9l-1.3 6.3c-3.1-.8-6.2-1.1-9.4-1.1-6.2 0-11.2 2.6-15.1 7.8-3.9 5.2-5.9 11.8-5.9 19.8V613h-6.6v-72.2h5.6l.7 13h.5c3-5.3 6.1-9.1 9.5-11.2 3.6-2.1 7.9-3.2 12.2-3.1zM284.5 614.5c-10.5 0-18.7-3.2-24.5-9.7-5.9-6.5-8.8-15.5-8.8-27.2 0-11.5 2.8-20.7 8.5-27.7s13.3-10.4 22.9-10.4c8.5 0 15.2 3 20.1 8.9s7.4 14 7.4 24.2v5.3h-52c.1 9.9 2.4 17.5 6.9 22.7 4.5 5.3 11 7.9 19.5 7.8 3.6 0 7.3-.2 10.9-.9 4.1-.9 8-2.1 11.9-3.7v6c-3.6 1.6-7.4 2.8-11.3 3.6-3.8.8-7.6 1.1-11.5 1.1zm-1.9-69.1c-7 0-12.5 2.3-16.7 6.9s-6.7 11.2-7.4 19.8h44.6c0-8.4-1.8-14.9-5.4-19.6-3.7-4.8-8.7-7.1-15.1-7.1zM420.2 613.1v-47.4c0-7-1.4-12.2-4.1-15.4s-7-4.8-12.6-4.8c-7.4 0-12.9 2-16.4 6.1s-5.3 10.5-5.3 19.2v42.3H375v-49.3c0-12.2-5.6-18.3-16.7-18.3-7.6 0-13.1 2.2-16.5 6.6-3.5 4.4-5.2 11.5-5.2 21.2v39.8H330v-72.2h5.4l1.4 9.9h.4c2-3.6 4.9-6.4 8.5-8.3 3.7-2 7.9-3 12.1-3 11.4 0 18.7 4.3 21.9 12.8h.3c2.2-4 5.5-7.3 9.5-9.5 4.1-2.3 8.8-3.4 13.5-3.3 7.9 0 13.8 2.1 17.7 6.3 3.9 4.2 5.9 10.9 5.9 20V613l-6.4.1zM509.8 576.9c0 11.8-2.9 21-8.6 27.6s-13.6 9.9-23.6 9.9c-5.9.1-11.7-1.5-16.7-4.6-4.9-3.2-8.8-7.7-11.1-13.1-2.7-6.2-4-13-3.8-19.8 0-11.8 2.9-21 8.6-27.5s13.5-9.9 23.5-9.9c9.9 0 17.7 3.3 23.3 10 5.5 6.7 8.4 15.9 8.4 27.4zm-57 0c0 9.9 2.2 17.7 6.5 23.2s10.5 8.3 18.5 8.3 14.2-2.8 18.5-8.3 6.5-13.3 6.5-23.2c0-10-2.2-17.7-6.6-23.2-4.4-5.5-10.6-8.2-18.6-8.2-8 0-14.1 2.7-18.4 8.2-4.2 5.5-6.4 13.2-6.4 23.2zM558.2 539.5c3.3 0 6.6.3 9.8.9l-1.3 6.3c-3.1-.8-6.2-1.1-9.4-1.1-6.2 0-11.2 2.6-15.1 7.8s-5.9 11.8-5.9 19.8V613h-6.6v-72.2h5.6l.7 13h.5c3-5.3 6.1-9.1 9.5-11.2 3.7-2.1 7.9-3.2 12.2-3.1zM619.7 613.1V516h6.8v97.1h-6.8zM702.6 613.1v-46.8c0-7.3-1.5-12.5-4.6-15.8s-7.8-5-14.2-5c-8.6 0-15 2.2-19 6.5s-6 11.4-6 21.2V613h-6.6v-72.1h5.6l1.3 9.9h.4c4.7-7.5 13-11.3 25-11.3 16.4 0 24.6 8.8 24.6 26.4v47.2h-6.5zM751.6 608.6c3.7.1 7.3-.3 10.9-1.1v5.3c-3.6 1.1-7.3 1.7-11 1.6-6.4 0-11.1-1.7-14.1-5.1s-4.5-8.8-4.5-16.1v-46.6h-10.7v-3.9l10.7-3 3.3-16.3h3.4v17.5h21.2v5.7h-21.2v45.7c0 5.5 1 9.6 2.9 12.3 1.8 2.6 4.9 4 9.1 4zM807.2 614.5c-10.5 0-18.7-3.2-24.5-9.7-5.9-6.5-8.8-15.5-8.8-27.2 0-11.5 2.8-20.7 8.5-27.7 5.7-6.9 13.3-10.4 22.9-10.4 8.5 0 15.2 3 20.1 8.9s7.4 14 7.4 24.2v5.3h-52c.1 9.9 2.4 17.5 6.9 22.7 4.5 5.2 11 7.8 19.5 7.8 3.6 0 7.3-.2 10.9-.9 4.1-.9 8-2.1 11.9-3.7v6c-3.6 1.6-7.4 2.8-11.3 3.6-3.8.8-7.6 1.1-11.5 1.1zm-1.9-69.1c-6.9 0-12.5 2.3-16.7 6.9-4.2 4.6-6.7 11.2-7.4 19.8h44.6c0-8.4-1.8-14.9-5.5-19.6-3.5-4.8-8.6-7.1-15-7.1zM881.1 539.5c3.3 0 6.6.3 9.8.9l-1.3 6.3c-3.1-.8-6.2-1.1-9.4-1.1-6.2 0-11.2 2.6-15.1 7.8s-5.9 11.8-5.9 19.8V613h-6.6v-72.2h5.6l.7 13h.5c3-5.3 6.1-9.1 9.5-11.2 3.7-2.1 7.9-3.2 12.2-3.1zM956 613.1v-46.8c0-7.3-1.5-12.5-4.6-15.8-3.1-3.3-7.8-5-14.2-5-8.6 0-15 2.2-19 6.5-4 4.4-6 11.4-6 21.2V613h-6.6v-72.1h5.6l1.3 9.9h.4c4.7-7.5 13-11.3 25-11.3 16.4 0 24.6 8.8 24.6 26.4v47.2H956zM1029.7 613.1l-1.7-11.4h-.5c-3.6 4.7-7.4 8-11.2 9.9-4.2 2-8.9 3-13.6 2.9-7.1 0-12.6-1.8-16.5-5.5s-5.9-8.7-5.9-15.1c-.2-6.6 3.1-12.9 8.8-16.4 5.9-3.9 14.3-6 25.5-6.2l13.7-.4v-4.8c0-6.9-1.4-12-4.2-15.5-2.8-3.5-7.3-5.2-13.5-5.2-6.7 0-13.6 1.9-20.8 5.6l-2.5-5.7c7.3-3.6 15.4-5.5 23.5-5.6 7.9 0 13.8 2.1 17.8 6.2 3.9 4.1 5.9 10.5 5.9 19.3v48l-4.8-.1zm-26.6-4.6c7.7 0 13.8-2.2 18.2-6.6 4.4-4.4 6.7-10.5 6.7-18.4v-7.1l-12.6.5c-10.1.5-17.4 2.1-21.7 4.8s-6.5 6.8-6.5 12.5c0 4.5 1.4 8 4.2 10.5 2.8 2.5 6.7 3.8 11.7 3.8zM1077 608.6c3.7.1 7.3-.3 10.9-1.1v5.3c-3.6 1.1-7.3 1.7-11 1.6-6.4 0-11.1-1.7-14.1-5.1s-4.6-8.8-4.6-16.1v-46.6h-10.7v-3.9l10.7-3 3.3-16.3h3.4v17.5h21.2v5.7h-21.2v45.7c0 5.5 1 9.6 2.9 12.3 2 2.6 5 4 9.2 4zM1102.5 520.9c0-4.2 1.4-6.4 4.2-6.4 1.3 0 2.5.6 3.2 1.7.9 1.4 1.3 3.1 1.2 4.7.1 1.7-.3 3.3-1.2 4.7-.7 1.1-1.9 1.8-3.2 1.7-2.8 0-4.2-2.1-4.2-6.4zm7.5 92.2h-6.6v-72.2h6.6v72.2zM1193.9 576.9c0 11.8-2.9 21-8.6 27.6s-13.6 9.9-23.6 9.9c-5.9.1-11.7-1.5-16.7-4.6-4.9-3.2-8.8-7.7-11.1-13.1-2.7-6.2-4-13-3.8-19.8 0-11.8 2.9-21 8.6-27.5s13.5-9.9 23.5-9.9c9.9 0 17.7 3.3 23.3 10 5.6 6.7 8.4 15.9 8.4 27.4zm-57 0c0 9.9 2.2 17.7 6.5 23.2 4.4 5.6 10.5 8.3 18.5 8.3s14.2-2.8 18.5-8.3 6.5-13.3 6.5-23.2c0-10-2.2-17.7-6.6-23.2s-10.6-8.2-18.6-8.2c-8 0-14.1 2.7-18.4 8.2s-6.4 13.2-6.4 23.2zM1264.2 613.1v-46.8c0-7.3-1.5-12.5-4.6-15.8-3.1-3.3-7.8-5-14.2-5-8.6 0-15 2.2-19 6.5-4 4.4-6 11.4-6 21.2V613h-6.6v-72.1h5.6l1.3 9.9h.4c4.7-7.5 13-11.3 25-11.3 16.4 0 24.6 8.8 24.6 26.4v47.2h-6.5zM1337.9 613.1l-1.7-11.4h-.5c-3.6 4.7-7.4 8-11.2 9.9-4.2 2-8.9 3-13.6 2.9-7.1 0-12.6-1.8-16.5-5.5-3.9-3.6-5.9-8.7-5.9-15.1-.2-6.6 3.1-12.9 8.8-16.4 5.9-3.9 14.3-6 25.5-6.2l13.8-.4v-4.8c0-6.9-1.4-12-4.2-15.5-2.8-3.5-7.3-5.2-13.5-5.2-6.7 0-13.6 1.9-20.8 5.6l-2.5-5.7c7.3-3.6 15.4-5.5 23.5-5.6 7.9 0 13.8 2.1 17.8 6.2 3.9 4.1 5.9 10.5 5.9 19.3v48l-4.9-.1zm-26.5-4.6c7.7 0 13.8-2.2 18.2-6.6s6.7-10.5 6.7-18.4v-7.1l-12.6.5c-10.1.5-17.4 2.1-21.7 4.8s-6.5 6.8-6.5 12.5c0 4.5 1.4 8 4.2 10.5 2.7 2.5 6.6 3.8 11.7 3.8zM1372.7 613.1h-6.6V509.8h6.6v103.3zM1475.3 520.8c-12.2 0-21.8 3.9-28.8 11.7-7 7.8-10.5 18.5-10.5 32 0 13.9 3.3 24.6 9.9 32.3s16 11.5 28.3 11.5c7.6.1 15.2-1 22.4-3.1v6c-6.4 2.3-14.4 3.4-24 3.4-13.6 0-24.4-4.4-32.2-13.2-7.8-8.8-11.8-21.1-11.8-36.9 0-9.9 1.9-18.6 5.6-26.1 3.5-7.3 9.1-13.4 16.1-17.5 7-4.1 15.2-6.1 24.5-6.1 8.8-.1 17.5 1.7 25.4 5.3l-2.7 6.1c-6.8-3.7-14.4-5.5-22.2-5.4zM1576.4 576.9c0 11.8-2.9 21-8.6 27.6s-13.6 9.9-23.6 9.9c-5.9.1-11.7-1.5-16.7-4.6-4.9-3.2-8.8-7.7-11.1-13.1-2.7-6.2-4-13-3.8-19.8 0-11.8 2.9-21 8.6-27.5 5.7-6.6 13.5-9.9 23.5-9.9 9.9 0 17.7 3.3 23.3 10 5.6 6.7 8.4 15.9 8.4 27.4zm-57 0c0 9.9 2.2 17.7 6.5 23.2 4.4 5.6 10.5 8.3 18.5 8.3s14.2-2.8 18.5-8.3 6.5-13.3 6.5-23.2c0-10-2.2-17.7-6.6-23.2s-10.6-8.2-18.6-8.2c-8 0-14.1 2.7-18.4 8.2s-6.4 13.2-6.4 23.2zM1686.6 613.1v-47.4c0-7-1.4-12.2-4.1-15.4s-7-4.8-12.6-4.8c-7.4 0-12.9 2-16.4 6.1s-5.3 10.5-5.3 19.2v42.3h-6.7v-49.3c0-12.2-5.6-18.3-16.7-18.3-7.6 0-13.1 2.2-16.5 6.6s-5.2 11.5-5.2 21.2v39.8h-6.6v-72.2h5.4l1.4 9.9h.4c2-3.5 4.9-6.4 8.5-8.3 3.7-2 7.9-3 12.2-3 11.4 0 18.7 4.3 21.9 12.8h.3c2.2-4 5.5-7.3 9.5-9.5 4.1-2.3 8.8-3.4 13.5-3.3 7.9 0 13.8 2.1 17.7 6.3s5.9 10.9 5.9 20V613l-6.6.1zM1747.3 614.5c-11.1 0-19.2-4.2-24.3-12.5h-.5l.2 5.6c.2 3.3.3 6.9.3 10.8v27.5h-6.6v-105h5.6l1.3 10.3h.4c5-7.8 12.9-11.7 23.8-11.7 9.7 0 17.2 3.2 22.3 9.6 5.1 6.4 7.7 15.7 7.7 27.9 0 11.9-2.7 21.1-8.1 27.6s-12.8 9.8-22.1 9.9zm-.1-5.9c7.4 0 13.1-2.7 17.2-8.2 4.1-5.5 6.1-13.2 6.1-23 0-21.2-7.7-31.8-23-31.8-8.4 0-14.6 2.3-18.5 6.9-3.9 4.6-5.9 12.2-5.9 22.6v2.1c0 11.3 1.9 19.4 5.7 24.2 3.7 4.8 9.8 7.2 18.4 7.2zM1841.2 613.1l-1.7-11.4h-.5c-3.6 4.7-7.4 8-11.2 9.9-4.2 2-8.9 3-13.6 2.9-7.1 0-12.6-1.8-16.5-5.5s-5.9-8.7-5.9-15.1c-.2-6.6 3.1-12.9 8.8-16.4 5.9-3.9 14.4-6 25.5-6.2l13.7-.4v-4.8c0-6.9-1.4-12-4.2-15.5s-7.3-5.2-13.5-5.2c-6.7 0-13.6 1.9-20.8 5.6l-2.4-5.7c7.3-3.6 15.3-5.5 23.5-5.6 7.9 0 13.8 2.1 17.8 6.2s5.9 10.5 5.9 19.3v48l-4.9-.1zm-26.5-4.6c7.7 0 13.8-2.2 18.2-6.6 4.4-4.4 6.7-10.5 6.7-18.4v-7.1l-12.6.5c-10.1.5-17.4 2.1-21.7 4.8s-6.5 6.8-6.5 12.5c0 4.5 1.4 8 4.2 10.5 2.7 2.5 6.6 3.8 11.7 3.8zM1919.8 613.1v-46.8c0-7.3-1.5-12.5-4.6-15.8s-7.8-5-14.2-5c-8.6 0-15 2.2-19 6.5-4 4.4-6 11.4-6 21.2V613h-6.6v-72.1h5.6l1.3 9.9h.4c4.7-7.5 13-11.3 25-11.3 16.4 0 24.6 8.8 24.6 26.4v47.2h-6.5zM1937.6 540.9h6.8l15.3 40.5c4.7 12.4 7.6 20.8 8.8 25.2h.4c1.9-5.7 4.9-14.2 9.1-25.6l15.3-40.1h6.8l-32.3 83.9c-2.6 6.8-4.8 11.4-6.6 13.8-1.6 2.3-3.7 4.1-6.2 5.4-2.7 1.3-5.7 1.9-8.6 1.8-2.9-.1-5.7-.5-8.4-1.4v-5.7c2.7.7 5.5 1.1 8.3 1.1 2.1.1 4.2-.5 6-1.6 1.9-1.3 3.5-3 4.7-4.9 1.9-3.4 3.5-6.9 4.8-10.6 1.8-4.8 3-8 3.6-9.5l-27.8-72.3z"></path></g></svg>