<svg width="86" height="86" viewBox="0 0 86 86" fill="none" xmlns="http://www.w3.org/2000/svg">
<g clip-path="url(#clip0_301_424)">
<path d="M43 86C66.7482 86 86 66.7482 86 43C86 19.2518 66.7482 0 43 0C19.2518 0 0 19.2518 0 43C0 66.7482 19.2518 86 43 86Z" fill="url(#paint0_linear_301_424)"/>
<path d="M27.2857 27.2857C27.2857 25.6186 27.948 24.0198 29.1268 22.8411C30.3055 21.6623 31.9043 21 33.5714 21C35.2385 21 36.8374 21.6623 38.0161 22.8411C39.1949 24.0198 39.8571 25.6186 39.8571 27.2857C39.8571 28.9528 39.1949 30.5516 38.0161 31.7303C36.8374 32.9092 35.2385 33.5714 33.5714 33.5714C31.9043 33.5714 30.3055 32.9092 29.1268 31.7303C27.948 30.5516 27.2857 28.9528 27.2857 27.2857ZM48.5911 32.264L48.7231 32.3646C50.0566 33.3531 51.727 33.7738 53.3697 33.5353C55.0123 33.2967 56.4939 32.4181 57.4911 31.0912C58.4884 29.7643 58.9202 28.0967 58.6925 26.4525C58.4647 24.8084 57.5959 23.3209 56.2757 22.315C54.9553 21.309 53.2907 20.8661 51.645 21.083C49.9994 21.2998 48.5063 22.1588 47.4916 23.4725C46.477 24.7861 46.0231 26.4478 46.2291 28.0949C46.4351 29.7419 47.2842 31.2407 48.5911 32.264ZM37.5566 36.7143C37.9513 35.9668 38.4928 35.3067 39.1486 34.7733C39.8043 34.2399 40.561 33.8442 41.3733 33.61C42.1855 33.3758 43.0366 33.3078 43.8756 33.4101C44.7147 33.5125 45.5246 33.783 46.2568 34.2055C46.9889 34.6281 47.6283 35.1939 48.1367 35.8692C48.6451 36.5446 49.012 37.3156 49.2156 38.136C49.4191 38.9564 49.4551 39.8095 49.3213 40.6441C49.1877 41.4789 48.8868 42.2779 48.4371 42.9937C47.572 44.3707 46.2068 45.3588 44.6284 45.7504C43.05 46.142 41.3814 45.9066 39.9729 45.0938C38.5644 44.2809 37.5258 42.9537 37.0752 41.3912C36.6247 39.8286 36.7971 38.1523 37.5566 36.7143ZM25.7143 36.7143H34.1057C33.5472 38.3095 33.4257 40.0251 33.754 41.683C34.0822 43.3409 34.8483 44.8809 35.9726 46.1429H35.1429C33.5225 46.1426 31.9417 46.6432 30.6168 47.576C29.2919 48.5088 28.2875 49.8282 27.7414 51.3537C26.6864 50.9299 25.6987 50.355 24.8091 49.6471C22.4457 47.7457 21 44.936 21 41.4286C21 40.1782 21.4967 38.9792 22.3807 38.095C23.2649 37.211 24.4639 36.7143 25.7143 36.7143ZM50.8571 46.1429C52.4771 46.1429 54.0573 46.6435 55.3817 47.5763C56.7061 48.5091 57.7098 49.8284 58.2554 51.3537C59.324 50.9169 60.314 50.348 61.1909 49.6471C63.5543 47.7457 65 44.936 65 41.4286C65 40.1782 64.5033 38.9792 63.6192 38.095C62.7351 37.211 61.5361 36.7143 60.2857 36.7143H51.8943C52.24 37.698 52.4286 38.7571 52.4286 39.8571C52.4315 42.1769 51.5762 44.4158 50.0274 46.1429H50.8571ZM55.2163 52.2023C55.4457 52.7554 55.5714 53.3651 55.5714 54C55.5714 57.5074 54.1289 60.3171 51.7623 62.2186C49.4334 64.0886 46.3094 65 43 65C39.6906 65 36.5666 64.0886 34.2377 62.2186C31.8743 60.3171 30.4286 57.5074 30.4286 54C30.4269 53.3805 30.5477 52.7666 30.7841 52.194C31.0204 51.6212 31.3675 51.1009 31.8056 50.6628C32.2438 50.2247 32.7641 49.8776 33.3368 49.6412C33.9095 49.4049 34.5233 49.2841 35.1429 49.2857H50.8571C51.7909 49.2855 52.7036 49.5625 53.4798 50.0819C54.2558 50.6011 54.8603 51.3391 55.2163 52.2023Z" fill="url(#paint1_linear_301_424)"/>
</g>
<defs>
<linearGradient id="paint0_linear_301_424" x1="43" y1="86" x2="43" y2="-14.3333" gradientUnits="userSpaceOnUse">
<stop stop-color="#FFEDAD"/>
<stop offset="1" stop-color="#FFFFE5"/>
</linearGradient>
<linearGradient id="paint1_linear_301_424" x1="43" y1="21" x2="43" y2="65" gradientUnits="userSpaceOnUse">
<stop stop-color="#FE5F01"/>
<stop offset="1" stop-color="#FFBD01"/>
</linearGradient>
<clipPath id="clip0_301_424">
<rect width="86" height="86" fill="white"/>
</clipPath>
</defs>
</svg>
