<svg width="86" height="86" viewBox="0 0 86 86" fill="none" xmlns="http://www.w3.org/2000/svg">
<g clip-path="url(#clip0_301_416)">
<path d="M43 86C66.7482 86 86 66.7482 86 43C86 19.2518 66.7482 0 43 0C19.2518 0 0 19.2518 0 43C0 66.7482 19.2518 86 43 86Z" fill="url(#paint0_linear_301_416)"/>
<path d="M42.5047 26.3582L44.2838 27.5444L42.5047 28.7306V26.3582ZM68.3633 26.0582V35.9656C68.3633 40.6091 64.5855 44.3871 59.9418 44.3871H48.9444V42.158C48.9444 40.9793 48.6132 39.8768 48.0392 38.938H58.951C59.7717 38.938 60.4372 38.2727 60.4372 37.4518C60.4372 36.631 59.7718 35.9656 58.951 35.9656H32.4981C32.4981 35.1449 31.8328 34.4794 31.0119 34.4794C30.191 34.4794 29.5257 35.1448 29.5257 35.9656H27.0488C26.2282 35.9656 25.5627 36.631 25.5627 37.4518C25.5627 38.2727 26.228 38.938 27.0488 38.938H29.5257C29.5257 39.7587 30.191 40.4242 31.0119 40.4242C31.8328 40.4242 32.4981 39.7589 32.4981 38.938H37.4653C36.8913 39.8768 36.5601 40.9793 36.5601 42.158V44.3871H26.0582C21.4147 44.3871 17.6367 40.6093 17.6367 35.9656V26.0582C17.6367 21.4145 21.4145 17.6367 26.0582 17.6367H59.942C64.5855 17.6367 68.3633 21.4145 68.3633 26.0582ZM47.7874 26.3078L41.8429 22.3447C40.8552 21.6863 39.5325 22.3943 39.5325 23.5813V31.5074C39.5325 32.6944 40.8554 33.4024 41.8429 32.744L47.7874 28.7809C48.6698 28.1925 48.6698 26.896 47.7874 26.3078ZM51.9168 50.5297H45.9722V42.1578C45.9722 40.3795 44.5305 38.9378 42.7522 38.9378C40.974 38.9378 39.5323 40.3795 39.5323 42.1578V57.5337L36.2597 54.6703C34.0592 52.7449 30.6155 54.3077 30.6155 57.2315C30.6155 58.0649 30.9214 58.8695 31.4752 59.4925L37.1434 65.8693C38.5522 67.4542 40.5765 68.3633 42.6972 68.3633H51.9168C55.4734 68.3633 58.3567 65.4801 58.3567 61.9234V56.9696C58.3567 53.4129 55.4734 50.5297 51.9168 50.5297Z" fill="url(#paint1_linear_301_416)"/>
</g>
<defs>
<linearGradient id="paint0_linear_301_416" x1="43" y1="86" x2="43" y2="-14.3333" gradientUnits="userSpaceOnUse">
<stop stop-color="#FFEDAD"/>
<stop offset="1" stop-color="#FFFFE5"/>
</linearGradient>
<linearGradient id="paint1_linear_301_416" x1="43" y1="68.3633" x2="43" y2="17.6367" gradientUnits="userSpaceOnUse">
<stop stop-color="#FFDE00"/>
<stop offset="1" stop-color="#FD5900"/>
</linearGradient>
<clipPath id="clip0_301_416">
<rect width="86" height="86" fill="white"/>
</clipPath>
</defs>
</svg>
