<svg width="27" height="27" viewBox="0 0 27 27" fill="none" xmlns="http://www.w3.org/2000/svg">
<path d="M2.20789 6.05855L6.22593 8.37828L12.7015 4.63962V0L2.20789 6.05855Z" fill="#FFEF00"/>
<path d="M1.40944 7.44153V19.5585L5.42743 17.2387V9.76131L1.40944 7.44153Z" fill="#FFEF00"/>
<path d="M14.2984 0V4.63962L20.7741 8.37828L24.7921 6.05855L14.2984 0Z" fill="#FFEF00"/>
<path d="M13.5 6.02258L7.02438 9.76124V17.2387L13.5 20.9773L19.9756 17.2387V9.76124L13.5 6.02258Z" fill="#FFEF00"/>
<path d="M21.5725 9.76131V17.2387L25.5906 19.5585V7.44153L21.5725 9.76131Z" fill="#FFEF00"/>
<path d="M6.22593 18.6217L2.20789 20.9415L12.7015 27V22.3604L6.22593 18.6217Z" fill="#FFEF00"/>
<path d="M20.7741 18.6217L14.2984 22.3604V27L24.7921 20.9415L20.7741 18.6217Z" fill="#FFEF00"/>
</svg>
