<svg width="18" height="18" viewBox="0 0 18 18" fill="none" xmlns="http://www.w3.org/2000/svg">
<path d="M14.2734 11.6719C13.2715 11.6719 12.3875 12.1489 11.8074 12.878L6.70233 10.0352C6.8162 9.70914 6.89062 9.36443 6.89062 9C6.89062 8.63557 6.81627 8.29086 6.7024 7.96482L11.8074 5.12205C12.3875 5.85105 13.2715 6.32812 14.2734 6.32812C16.0182 6.32812 17.4375 4.90883 17.4375 3.16406C17.4375 1.41929 16.0182 0 14.2734 0C12.5287 0 11.1094 1.41929 11.1094 3.16406C11.1094 3.52849 11.1838 3.8732 11.2977 4.19924L6.19263 7.04201C5.61248 6.31301 4.72852 5.83594 3.72656 5.83594C1.98179 5.83594 0.5625 7.25523 0.5625 9C0.5625 10.7448 1.98179 12.1641 3.72656 12.1641C4.72852 12.1641 5.61248 11.687 6.19263 10.958L11.2977 13.8007C11.1838 14.1268 11.1094 14.4715 11.1094 14.8359C11.1094 16.5807 12.5287 18 14.2734 18C16.0182 18 17.4375 16.5807 17.4375 14.8359C17.4375 13.0912 16.0182 11.6719 14.2734 11.6719Z" fill="#FFEF00"/>
</svg>
