<svg width="16" height="14" viewBox="0 0 16 14" fill="none" xmlns="http://www.w3.org/2000/svg">
<path d="M15.0523 2.19136C14.6436 1.66088 14.115 1.23478 13.5099 0.94797C12.9048 0.661164 12.2403 0.52182 11.571 0.541355C10.9187 0.555577 10.2795 0.72636 9.70707 1.03931C9.13464 1.35227 8.64583 1.79823 8.28181 2.33961C8.18416 2.48381 8.08994 2.6331 8 2.78621C7.91 2.6331 7.81584 2.48381 7.71819 2.33961C7.35417 1.79822 6.86536 1.35225 6.29294 1.03928C5.72052 0.726319 5.08126 0.555527 4.42902 0.541299C3.75981 0.522787 3.09569 0.662592 2.49073 0.94933C1.88577 1.23607 1.35709 1.66163 0.947739 2.19136C-0.193882 3.67932 -0.145254 5.7453 1.07149 7.4549C3.28625 10.5665 7.66644 13.3032 7.8517 13.418C7.89623 13.4457 7.94759 13.4603 8 13.4603C8.05241 13.4603 8.10377 13.4457 8.1483 13.418C8.33356 13.3031 12.7137 10.5664 14.9284 7.45479C16.1453 5.7453 16.1939 3.67932 15.0523 2.19136Z" fill="#FFEF00"/>
</svg>
